<?xml version="1.0" encoding="UTF-8"?>
<svg id="Layer_1" data-name="Layer 1" xmlns="http://www.w3.org/2000/svg" viewBox="0 0 1080 1080">
  <defs>
    <style>
      .cls-1 {
        fill: #8797c2;
      }
    </style>
  </defs>
  <path class="cls-1" d="M518.36.7c241.23-15.93,403.47,241.5,281.58,451.98-106.89,184.58-373.08,199.21-500.98,28.69C156.28,291.15,281.19,16.37,518.36.7ZM532.56,121.07c-238.3,11.53-219.13,376.67,24.2,357.7,226.2-17.63,204.69-368.78-24.2-357.7Z"/>
  <path class="cls-1" d="M302.36,667.31c152.35,5.36,313.43-10.07,464.81-.81,135.79,8.3,247.73,111.21,259.5,247.86,2.56,29.74,2.93,79.67,1.27,109.23-2.98,52.74-70.32,75.28-106.55,37.89-29.54-30.48-14.76-100.94-18.18-141.5-5.21-61.89-58.69-118.69-119.9-129.57-146.98.11-304.59-12.01-451.05-3.63-62.98,3.6-113.33,27.01-141.16,85.94-23.9,50.61-11.58,100.33-15.99,152.68-5.89,70-115.24,75.77-121.97-1.73-15.73-181.3,55.63-332.08,249.21-356.36Z"/>
</svg>