<?xml version="1.0" encoding="UTF-8"?>
<svg id="Layer_1" data-name="Layer 1" xmlns="http://www.w3.org/2000/svg" viewBox="0 0 1080 1080">
  <defs>
    <style>
      .cls-1 {
        fill: #6f7c97;
      }
    </style>
  </defs>
  <path class="cls-1" d="M538.98,354c.65-.19,1.6-1.53,1.45-2.4l-5.98-35.07c-7.07-147.25,143.04-252.76,279.57-189.62,111.56,51.59,149.38,193.19,75.1,295.31-30.19,41.51-83.54,72.74-134.39,78.72-5.31.62-19.28-1.22-22.76.97-.74.47-1.01,1.19-1.23,1.99l-.39,421.63c-3.12,11.72-13.34,18.51-25.47,18.5H117.34c-6.82-.55-11.23-2.25-16.5-6.52-.31-.25-5.47-5.43-5.62-5.81-.98-2.45-1.55-7.34-2.37-10.17V375.45c.42-3.57,6.39-16.12,9.29-17.15,1.51-.54,2.83-.03,4.01-.32.42-.1,3.77-3.97,7.23-3.97h425.61ZM790.95,169.33c-77.54-33.64-170.53,6.78-197.97,84.71-36.36,103.28,43.52,205.16,149.86,197.99,59.74-4.03,113.27-48.73,130.04-105.84,20.54-69.97-16.72-148.57-81.92-176.86ZM141.85,404v490c.98-.32,2.17,1,2.5,1h21.48v-126.5c0-3.67,7.75-14.68,11.23-16.82,1.02-.63,8.73-4.68,9.25-4.68h53.45v-126.5c0-4.39,8.21-15.21,12.47-17.49.88-.47,6.63-3.01,7.01-3.01h54.45v-128.5c0-2.2,6.99-12.45,9.38-14.08,4.21-2.86,8.99-4.81,14.1-5.41,47.98,2.86,100.43-3.84,147.89-.05,8.24.66,10.26,1.73,15.8,6.66,1.09.97,2.54.85,3.7,2.09,1.64,1.76,4.66,8.23,4.96,10.76,3.33,28.06-2.3,62.34-.08,91.07,1.52,10.81-1.27,23.11,0,34.01.17,1.46.12,2.57,1.55,3.45h53.95c1.18,0,8.57,4.19,10.14,5.37s8.34,10.4,8.34,11.13v130.5h53.45c.44,0,7.2,2.95,8.12,3.4,5.17,2.54,12.36,12.41,12.36,18.1v125.5c.98-.32,2.17,1,2.5,1h22.48v-398.5c0-.36-1.03-1.61-1.16-2.35-2-.44-4.07.19-6.08-.4-41.23-12.2-80.19-41.26-105.26-76.14-2.72-3.78-5.48-9.12-7.59-13.35-5.45-2.63-11.28-.23-16.18-.35-1.52-.04-3.2-.92-5.06-.95-10.33-.18-20.71.03-31.05,0-115.92-.38-232.65-1.25-348.6,0-6.53.07-13.13-.43-19.52,1.05ZM460.56,501c-27.78,0-55.5-.06-83.25.62-4.67.12-10.72-2.63-14.65,1.88v95l1.5,1.5h96.41v-99ZM387.62,649h-96.41c-.33,0-1.52,1.32-2.5,1v97h98.91v-98ZM534.49,649h-96.41l-1.5,1.5v96.5h97.91v-98ZM313.69,895v-97.5l-3.45-1.55c-28.88,1.98-60.46-2.25-89.02,0-1.92.15-3.62.59-5.45,1.05v96.5l1.5,1.5h96.41ZM460.56,796l-95.9.51c-.47.22-2.01,1.81-2.01,1.99v95l1.5,1.5h96.41v-99ZM608.42,895v-97.5l-3.45-1.55c-28.83,2.03-60.52-2.31-89.01.01-1.82.15-3.66.15-5.22,1.28l-1.31,95.3.23,1.3c.72.15,1.98,1.17,2.34,1.17h96.41Z"/>
  <path class="cls-1" d="M781.76,280c3.89.43,15.9,4.21,15.5,9l1.95-.98c.48,2.27,1.89,4.99,3.02,7.29.3.61,1.8.55,1.99,1.39.47,2.07.33,11.42-.04,13.75-.16,1-4.58,11.04-4.96,11.55-.08.1-1.27-.88-1.74-.68-.24.1-2.39,3.37-3.36,4.01-3.77,2.48-8.87,3.31-13.37,3.67-19.2,1.51-40.39-.2-59.71-1.04-2.93-3.05-8.33-6.28-10.73-9.66-1.06-1.5-.32-3.92-2.96-5,.6-27.19-.85-54.47-.65-81.63.06-7.52-.44-26.68,1.09-32.7,4.31-16.83,29.03-22.05,40.53-9.52,1.35,1.47,7.95,11.32,7.95,12.05v78.5c8.14.64,17.49-.88,25.48,0Z"/>
</svg>