<?xml version="1.0" encoding="UTF-8"?>
<svg id="Layer_1" data-name="Layer 1" xmlns="http://www.w3.org/2000/svg" viewBox="0 0 1080 1080">
  <defs>
    <style>
      .cls-1 {
        fill: #8797c2;
      }
    </style>
  </defs>
  <path class="cls-1" d="M609.55,930.5c-18.95,17.42-50.05,14.95-65.44-6.19-4.33-5.95-6.17-11.68-8.96-18.28-26.32-62.07-46.44-128.63-72.72-190.59-13.4-31.58-19.92-41.47-51.8-55.64-64.92-28.86-139.66-48.18-203.26-78.2-37.19-17.55-40.73-55.97-9.08-81.28,69.55-29.96,145.02-51.8,213.86-82.74,28.01-12.59,35.48-21.16,47.67-49.18,29.58-67.97,51.85-141.32,80.7-209.84,18.16-29.18,61.23-29.98,78.72.57,28.27,67.19,50.45,137.14,78.67,204.31,14.52,34.55,21.62,42.33,56.3,57.2,69.77,29.92,144.41,50.88,212.55,84.04,23.47,20.05,20.47,56.76-5.72,72.9-70.13,32.68-150.64,52.59-219.98,85.69-24.37,11.63-31.79,24.77-42.09,48.71-27.59,64.12-47.34,136.23-76.18,199.23-3.96,8.66-6.26,12.86-13.25,19.28ZM581.67,307.92c-2.58-2.61-4.64,4.77-5.22,6.09-34.07,77.31-36.07,143.41-122.37,183.33-31,14.34-67.77,27.07-100.08,39.14-2.21.83-4.49,1.45-6.87,1.47.17,2.14,2.22,2.38,3.72,3.07,74.77,34.26,145.36,36.11,185.69,119.98,16.61,34.54,27.61,74.34,42.13,109.97,1.15.91,3.23-3.4,3.77-4.53,24.01-50.44,32.48-112.45,74.1-152.88,41.37-40.19,105-49.95,155.15-74.88-37.72-17.48-82.53-28.02-119.03-47.42-64.49-34.28-79.71-100.07-104.55-163.3-1.33-3.39-5.71-19.3-6.45-20.05Z"/>
  <path class="cls-1" d="M286.61,792.16h59.77c21.11,0,40.53,25.94,40.21,46.17-.33,20.96-20.02,44.62-41.72,44.62h-58.26v62.8c0,1.13-5.16,12.88-6.32,14.87-16.54,28.46-61.26,27.96-77.22-.94-.95-1.71-5.74-13.18-5.74-13.93v-62.8h-59.77c-20.52,0-39.81-25.03-40.22-44.65-.43-20.18,19.24-46.14,40.22-46.14h59.77v-62.8c0-1.13,5.16-12.88,6.32-14.87,16.81-28.92,62.08-27.78,77.69,1.98,1.29,2.46,5.27,10.88,5.27,12.89v62.8Z"/>
  <path class="cls-1" d="M286.61,195.95h62.8c17.82,0,36.83,25.94,37.18,43.11.38,18.67-17.44,46.17-37.18,46.17h-60.53c-.16,0-2.27,2.11-2.27,2.27v60.53c0,7.93-10.86,23.06-17.4,27.99-20.51,15.46-51.67,10.19-65.58-11.59-1.51-2.37-6.3-14.38-6.3-16.4v-62.8h-62.8c-1.75,0-12.9-4.71-15.17-6.01-30.09-17.3-28.41-63.5,3-78.8,1.5-.73,11.53-4.47,12.18-4.47h62.8v-62.8c0-2.37,6.05-15.31,7.82-17.91,16.9-24.9,56.75-24.9,73.65,0,1.77,2.6,7.82,15.54,7.82,17.91v62.8Z"/>
</svg>