<?xml version="1.0" encoding="UTF-8"?>
<svg id="Layer_1" data-name="Layer 1" xmlns="http://www.w3.org/2000/svg" viewBox="0 0 24 24">
  <defs>
    <style>
      .cls-1 {
        fill: #898e9a;
      }
    </style>
  </defs>
  <path class="cls-1" d="M8.41,23.99c-5.76-.23-9.76-5.83-7.99-11.36.8-2.52,2.81-4.6,5.3-5.49.37-.13.74-.22,1.11-.34C7.59,3.32,10.53.59,14.07.09c5.82-.82,10.74,4.18,9.82,9.99-.56,3.49-3.27,6.33-6.72,7.09-.57,2.65-2.41,4.91-4.87,6.03-1.03.47-2.2.75-3.32.79-.18,0-.38,0-.56,0ZM17.36,15.12c.64-.16,1.28-.49,1.82-.87,2.81-1.96,3.74-5.72,2.12-8.76-1.53-2.88-4.94-4.27-8.06-3.27-2.07.66-3.71,2.32-4.39,4.38,0,.06.37.03.44.04,2.44.19,4.69,1.37,6.21,3.28,1.16,1.47,1.83,3.33,1.86,5.21ZM8.31,8.53C3.18,8.82.2,14.54,2.95,18.92c2.64,4.2,8.79,4.22,11.46.04,2.98-4.66-.61-10.74-6.1-10.43Z"/>
  <path class="cls-1" d="M9.64,17.11h.8c.22,0,.58.24.7.42.41.64-.03,1.44-.77,1.49-1.09-.06-2.24.07-3.32,0-.63-.04-1.05-.51-.95-1.15.05-.34.47-.76.82-.76h.8v-3.34c-.37.29-.79.38-1.21.12-.48-.3-.58-1.02-.2-1.44.22-.24,1.55-1.11,1.88-1.28.41-.22.9-.17,1.21.19.07.08.23.39.23.48v5.26Z"/>
</svg>