<svg width="16" height="16" viewBox="0 0 16 16" fill="none" xmlns="http://www.w3.org/2000/svg">
<path d="M3.33333 5.99936V11.3327M6.33333 5.99936V11.3327M9.66667 5.99936V11.3327M12.6667 5.99936V11.3327M2 12.3994L2 12.9327C2 13.3061 2 13.4927 2.07266 13.6354C2.13658 13.7608 2.23856 13.8628 2.36401 13.9267C2.50661 13.9994 2.6933 13.9994 3.06667 13.9994H12.9333C13.3067 13.9994 13.4934 13.9994 13.636 13.9267C13.7614 13.8628 13.8634 13.7608 13.9273 13.6354C14 13.4927 14 13.3061 14 12.9327V12.3994C14 12.026 14 11.8393 13.9273 11.6967C13.8634 11.5713 13.7614 11.4693 13.636 11.4054C13.4934 11.3327 13.3067 11.3327 12.9333 11.3327H3.06667C2.6933 11.3327 2.50661 11.3327 2.36401 11.4054C2.23857 11.4693 2.13658 11.5713 2.07266 11.6967C2 11.8393 2 12.026 2 12.3994ZM7.76861 2.05078L2.83527 3.14708C2.53723 3.21331 2.38821 3.24643 2.27698 3.32656C2.17886 3.39725 2.10182 3.49329 2.0541 3.60441C2 3.73038 2 3.88303 2 4.18835L2 4.93269C2 5.30606 2 5.49275 2.07266 5.63536C2.13658 5.7608 2.23856 5.86278 2.36401 5.9267C2.50661 5.99936 2.6933 5.99936 3.06667 5.99936H12.9333C13.3067 5.99936 13.4934 5.99936 13.636 5.9267C13.7614 5.86278 13.8634 5.7608 13.9273 5.63536C14 5.49275 14 5.30606 14 4.9327V4.18835C14 3.88303 14 3.73038 13.9459 3.60441C13.8982 3.49329 13.8211 3.39725 13.723 3.32656C13.6118 3.24643 13.4628 3.21331 13.1647 3.14708L8.23139 2.05078C8.14504 2.03159 8.10187 2.022 8.05824 2.01817C8.01949 2.01478 7.98051 2.01478 7.94176 2.01817C7.89813 2.022 7.85496 2.03159 7.76861 2.05078Z" stroke="#16C47F" stroke-width="1.3" stroke-linecap="round" stroke-linejoin="round"/>
</svg>
