<svg width="17" height="16" viewBox="0 0 17 16" fill="none" xmlns="http://www.w3.org/2000/svg">
<g clip-path="url(#clip0_61851_38863)">
<path d="M15.8643 0.46875H0.801758V8.03125H15.8643V0.46875Z" stroke="#6F7C97" stroke-width="0.9375" stroke-miterlimit="10" stroke-linecap="round" stroke-linejoin="round"/>
<path d="M8.33301 15.5312C10.4041 15.5312 12.083 13.8523 12.083 11.7812C12.083 9.71018 10.4041 8.03125 8.33301 8.03125C6.26194 8.03125 4.58301 9.71018 4.58301 11.7812C4.58301 13.8523 6.26194 15.5312 8.33301 15.5312Z" stroke="#6F7C97" stroke-width="0.9375" stroke-miterlimit="10" stroke-linecap="round" stroke-linejoin="round"/>
<path d="M0.801758 8.03125V9.90625H5.08482" stroke="#6F7C97" stroke-width="0.9375" stroke-miterlimit="10" stroke-linecap="round" stroke-linejoin="round"/>
<path d="M11.5811 9.90625H15.8641V8.03125" stroke="#6F7C97" stroke-width="0.9375" stroke-miterlimit="10" stroke-linecap="round" stroke-linejoin="round"/>
<path d="M8.93219 10.4952C8.93219 10.4952 8.60191 10.1906 8.09284 10.3439C7.62541 10.4848 7.50931 11.1243 7.82697 11.3735C8.00938 11.5165 8.28381 11.6342 8.65366 11.7649C9.48147 12.0575 9.17547 13.2249 8.33341 13.2305C8.00478 13.2327 7.85116 13.2119 7.5625 13.023" stroke="#6F7C97" stroke-width="0.9375" stroke-miterlimit="10" stroke-linecap="round" stroke-linejoin="round"/>
<path d="M8.33301 10.3047V9.90625" stroke="#6F7C97" stroke-width="0.9375" stroke-miterlimit="10" stroke-linecap="round" stroke-linejoin="round"/>
<path d="M8.33301 13.2305V13.6566" stroke="#6F7C97" stroke-width="0.9375" stroke-miterlimit="10" stroke-linecap="round" stroke-linejoin="round"/>
<path d="M8.33301 6.15625C9.19595 6.15625 9.89551 5.30279 9.89551 4.25C9.89551 3.19721 9.19595 2.34375 8.33301 2.34375C7.47006 2.34375 6.77051 3.19721 6.77051 4.25C6.77051 5.30279 7.47006 6.15625 8.33301 6.15625Z" stroke="#6F7C97" stroke-width="0.9375" stroke-miterlimit="10" stroke-linecap="round" stroke-linejoin="round"/>
<path d="M12.3955 4.25H13.3643" stroke="#6F7C97" stroke-width="0.9375" stroke-miterlimit="10" stroke-linecap="round" stroke-linejoin="round"/>
<path d="M4.27051 4.25H3.30176" stroke="#6F7C97" stroke-width="0.9375" stroke-miterlimit="10" stroke-linecap="round" stroke-linejoin="round"/>
<path d="M13.6768 0.46875C13.6768 1.67687 14.6561 2.65625 15.8643 2.65625" stroke="#6F7C97" stroke-width="0.9375" stroke-miterlimit="10" stroke-linecap="round" stroke-linejoin="round"/>
<path d="M2.98926 0.46875C2.98926 1.67687 2.00988 2.65625 0.801758 2.65625" stroke="#6F7C97" stroke-width="0.9375" stroke-miterlimit="10" stroke-linecap="round" stroke-linejoin="round"/>
<path d="M13.6768 8.03125C13.6768 6.82313 14.6561 5.84375 15.8643 5.84375" stroke="#6F7C97" stroke-width="0.9375" stroke-miterlimit="10" stroke-linecap="round" stroke-linejoin="round"/>
<path d="M2.98926 8.03125C2.98926 6.82313 2.00988 5.84375 0.801758 5.84375" stroke="#6F7C97" stroke-width="0.9375" stroke-miterlimit="10" stroke-linecap="round" stroke-linejoin="round"/>
</g>
<defs>
<clipPath id="clip0_61851_38863">
<rect width="16" height="16" fill="white" transform="translate(0.333008)"/>
</clipPath>
</defs>
</svg>
