<?xml version="1.0" encoding="UTF-8"?>
<svg id="Layer_1" data-name="Layer 1" xmlns="http://www.w3.org/2000/svg" viewBox="0 0 1080 1080">
  <defs>
    <style>
      .cls-1 {
        fill: #8797c2;
      }
    </style>
  </defs>
  <path class="cls-1" d="M1052.02,400.89c-20.01,24.98-49.72,34.83-80.01,41.74l.14,303.28c43.43-.1,86.28,33.09,99.35,74.12,11.01,34.54,11.13,141.55,1.17,176.02-13.72,47.51-58.06,78.92-106.94,80.87H114.5c-44.16-1.78-88.57-28.24-104.25-70.52-13.83-37.27-13.67-163.95,3.38-199.75,17.26-36.23,55.32-57.94,94.56-62.24l.05-301.78c-41.91-6.52-82.65-30.69-97.99-72.02-14.17-38.17-13.96-171.06,2.55-208.39,19.14-43.29,58.33-55.8,100.47-66.48C253.31,60.26,396.78,36.03,537.48,3.08l458.74,99.95c71.18,23.37,81.25,73.77,83.11,141.14,1.34,48.45,3.73,117.96-27.31,156.71ZM956.5,216.94l-413.87-91.28L123.75,216.94v104.23h832.75v-104.23ZM345.64,441.03h-113.56l-3.92,3.91v298.35h117.47v-302.26ZM611.91,441.03h-143.58v302.26h143.58v-302.26ZM852.08,441.03h-116.17v302.26h116.17v-302.26ZM956.5,865.76H123.75v88.59l832.75-1.3v-87.29Z"/>
</svg>