<?xml version="1.0" encoding="UTF-8"?>
<svg id="Layer_1" data-name="Layer 1" xmlns="http://www.w3.org/2000/svg" viewBox="0 0 1080 1080">
  <defs>
    <style>
      .cls-1 {
        fill: #08624c;
      }

      .cls-2 {
        fill: #cee0db;
      }
    </style>
  </defs>
  <path class="cls-2" d="M749.64,218.89c-.57,12.76,6,24.24,17.08,30.39,1.65.92,9.01,4.66,9.94,4.66h146.79v142.41c0,1.31,3.65,10.94,4.65,12.88,6.73,13.12,17.57,18.51,31.87,18.52l-.12,276.88,4.5,3.56c-13.8-1-24.34,1.8-32.74,13.27-1.2,1.64-6.7,11.47-6.7,12.29v148.25h-145.33c-1.86,0-13.52,5.96-15.8,7.57-8.52,6.02-14.16,16.98-14.14,27.49h-417.73c0-11.42-5.38-21.83-14.7-28.39-1.74-1.22-12.63-6.67-13.78-6.67h-145.33v-145.33c0-18.11-24.44-30.52-40.9-28.48l5.93-2.29-1.55-276.68c14.83.32,36.51-14.27,36.51-29.94v-145.33h146.79c1.19,0,9.03-4.15,10.83-5.23,11.35-6.82,16.04-16.62,16.19-29.82h417.73ZM776.75,766.02c5.24-6.08,9.16-13.79,9.45-22l-.04-353.52c-7.34-43.75-65.81-42.43-71.56,1.49v353.43c3.15,31.19,41.29,44.78,62.15,20.61ZM322.77,359.45c-11.19,1.88-25.25,17.79-25.92,29.59l-.06,356.45c4.84,41.89,61.65,43.6,70.17,2.86l.06-357.91c-2.92-23.17-21.59-34.8-44.26-30.99ZM462.98,359.45c-15.48,2.6-27.21,20.38-27.35,35.46,1.36,119.43-2.85,239.5,2.15,358.57,14.85,38.9,67.89,28.43,69.38-12.46l.08-344.73c-1.38-25.07-18.58-41.16-44.26-36.84ZM585.11,767.54c20.26,20.2,56.64,9.36,60.83-19.19v-360.77c-7.67-39.14-63.74-38.45-70.12,1.46l-.05,357.91c.36,6.98,4.48,15.75,9.34,20.6Z"/>
  <path class="cls-1" d="M964.34,708.18c8.35.61,6.46,2.66,9.21,3.9,2.03.92,4.5.54,6.46,1.59,7.15,3.83,14.11,16.46,15.01,24.45v184.04c-3.27,19.84-18.16,29.76-37.27,31.38-55.07-3.13-114.87,4.27-169.39,0-21.31-1.67-38.69-13.15-38.72-36.5-.02-10.51,5.62-21.47,14.14-27.49,2.28-1.61,13.94-7.57,15.8-7.57h145.33v-148.25c0-.82,5.5-10.65,6.7-12.29,8.4-11.47,18.94-14.27,32.74-13.27Z"/>
  <path class="cls-1" d="M121.59,429.21c-1.49-.03-9.46-1.94-11.28-2.6-14.74-5.28-22.38-19.66-23.75-34.67-4.97-54.34,3.71-115.82-.08-170.92,1.51-19.18,12.12-33.47,31.42-37.23l185.44.13c16.45,4.21,28.77,17.41,28.57,34.96-.15,13.2-4.83,23-16.19,29.82-1.8,1.08-9.64,5.23-10.83,5.23h-146.79v145.33c0,15.67-21.68,30.26-36.51,29.94Z"/>
  <path class="cls-1" d="M959.96,427.75c-14.3,0-25.14-5.4-31.87-18.52-1-1.94-4.65-11.57-4.65-12.88v-142.41h-146.79c-.94,0-8.29-3.74-9.94-4.66-11.07-6.15-17.64-17.63-17.08-30.39.74-16.74,14.3-33.19,31.56-34.89,57.95,3.46,122.34-5.16,179.54-.21,19.24,1.66,31.19,14.21,34.28,32.91v181.13c-4.09,18.72-15.41,29.95-35.06,29.94Z"/>
  <path class="cls-1" d="M117.2,708.18c16.45-2.04,40.9,10.37,40.9,28.48v145.33h145.33c1.15,0,12.04,5.44,13.78,6.67,9.32,6.55,14.7,16.97,14.7,28.39,0,16.8-10.93,31.06-27.15,34.92l-188.29.13c-18.09-4.09-28.25-17.55-29.92-35.81,3.36-55.35-4.58-116.14,0-170.84,1.5-17.96,11.16-34.85,30.65-37.27Z"/>
  <path class="cls-1" d="M776.75,766.02c-20.86,24.17-59,10.58-62.15-20.61v-353.43c5.75-43.92,64.22-45.23,71.56-1.49l.04,353.52c-.3,8.2-4.21,15.92-9.45,22Z"/>
  <path class="cls-1" d="M462.98,359.45c25.68-4.31,42.88,11.77,44.26,36.84l-.08,344.73c-1.49,40.89-54.53,51.36-69.38,12.46-5-119.08-.79-239.14-2.15-358.57.14-15.08,11.86-32.86,27.35-35.46Z"/>
  <path class="cls-1" d="M585.11,767.54c-4.86-4.85-8.98-13.61-9.34-20.6l.05-357.91c6.37-39.91,62.44-40.6,70.12-1.46v360.77c-4.19,28.55-40.57,39.39-60.83,19.19Z"/>
  <path class="cls-1" d="M322.77,359.45c22.66-3.81,41.34,7.82,44.26,30.99l-.06,357.91c-8.52,40.74-65.33,39.02-70.17-2.86l.06-356.45c.66-11.8,14.73-27.71,25.92-29.59Z"/>
</svg>