<svg width="16" height="16" viewBox="0 0 16 16" fill="none" xmlns="http://www.w3.org/2000/svg">
<g clip-path="url(#clip0_61851_38768)">
<path d="M11.0127 11.5232V12.5273" stroke="#6F7C97" stroke-width="0.9375" stroke-miterlimit="10" stroke-linecap="round" stroke-linejoin="round"/>
<path d="M2.47754 11.0195H8.50254" stroke="#6F7C97" stroke-width="0.9375" stroke-miterlimit="10" stroke-linecap="round" stroke-linejoin="round"/>
<path d="M2.47754 13.0273H5.49004" stroke="#6F7C97" stroke-width="0.9375" stroke-miterlimit="10" stroke-linecap="round" stroke-linejoin="round"/>
<path d="M9.91113 5.38744L10.6213 6.09766" stroke="#6F7C97" stroke-width="0.9375" stroke-miterlimit="10" stroke-linecap="round" stroke-linejoin="round"/>
<path d="M6.07715 8.51172L7.78093 6.80794" stroke="#6F7C97" stroke-width="0.9375" stroke-miterlimit="10" stroke-linecap="round" stroke-linejoin="round"/>
<mask id="mask0_61851_38768" style="mask-type:luminance" maskUnits="userSpaceOnUse" x="0" y="0" width="16" height="17">
<path d="M0 0.00781345H16V16.0078H0V0.00781345Z" fill="white"/>
</mask>
<g mask="url(#mask0_61851_38768)">
<path d="M15.5312 9.51406C15.5312 9.24772 15.4256 8.99241 15.237 8.80409C15.0487 8.61556 14.7934 8.50988 14.5271 8.50988H12.0167C11.4621 8.50988 11.0125 8.9595 11.0125 9.51406C11.0125 9.24772 10.9068 8.99241 10.7183 8.80409C10.53 8.61556 10.2747 8.50988 10.0083 8.50988H1.47294C1.20656 8.50988 0.95125 8.61556 0.762969 8.80409C0.574438 8.99241 0.46875 9.24772 0.46875 9.51406V14.5349C0.46875 14.8012 0.574438 15.0565 0.762969 15.2448C0.95125 15.4334 1.20656 15.5391 1.47294 15.5391H10.0083C10.2747 15.5391 10.53 15.4334 10.7183 15.2448C10.9068 15.0565 11.0125 14.8012 11.0125 14.5349C11.0125 15.0894 11.4621 15.5391 12.0167 15.5391H14.5271C14.7934 15.5391 15.0487 15.4334 15.237 15.2448C15.4256 15.0565 15.5312 14.8012 15.5312 14.5349V9.51406Z" stroke="#6F7C97" stroke-width="0.9375" stroke-miterlimit="10" stroke-linecap="round" stroke-linejoin="round"/>
<path d="M2.52734 8.51144L7.07147 3.96759C7.25975 3.77903 7.51503 3.67338 7.78141 3.67338C8.04775 3.67338 8.30306 3.77903 8.49137 3.96734C8.09925 3.57522 8.09925 2.93956 8.49137 2.54744L10.2665 0.772345C10.455 0.583782 10.7103 0.478126 10.9767 0.478126C11.243 0.478126 11.4983 0.583782 11.6866 0.772345C12.6315 1.717 14.2922 3.37766 15.2368 4.32256C15.4254 4.51084 15.5311 4.76616 15.5311 5.0325C15.5311 5.29884 15.4254 5.55416 15.2368 5.74269L13.4617 7.51781C13.0696 7.90994 12.434 7.90994 12.0418 7.51781C12.2301 7.70609 12.3358 7.96141 12.3358 8.22778C12.3358 8.32466 12.3218 8.42006 12.2949 8.51144H12.0165C11.4619 8.51144 11.0123 8.96106 11.0123 9.51562C11.0123 9.24925 10.9066 8.99394 10.7181 8.80566C10.5298 8.61713 10.2745 8.51144 10.0082 8.51144H2.52734Z" stroke="#6F7C97" stroke-width="0.9375" stroke-miterlimit="10" stroke-linecap="round" stroke-linejoin="round"/>
</g>
</g>
<defs>
<clipPath id="clip0_61851_38768">
<rect width="16" height="16" fill="white"/>
</clipPath>
</defs>
</svg>
