<?xml version="1.0" encoding="UTF-8"?>
<svg id="Layer_1" data-name="Layer 1" xmlns="http://www.w3.org/2000/svg" viewBox="0 0 1080 1080">
  <defs>
    <style>
      .cls-1 {
        fill: #08624c;
      }
    </style>
  </defs>
  <path class="cls-1" d="M907.55,374.98c-1.86-6.71-5.4-12.05-10.89-16.27-114.32-49.67-225.85-106.93-340.64-155.47-7.38-3.12-19.43-9.64-27.04-9.38-5.88.2-13.6,4.23-19.23,6.52-115.72,47.01-229.19,108.5-344.54,157.28-11.98,5.69-13.71,17.51-14.83,29.49,5.52,110.97-7.15,228.77-.01,338.97.83,12.77,2.92,22.72,13.9,30.42,115.33,58,226.78,129.66,342.14,186.85,16.06,7.96,20.79,12.3,38.69,4.32,117.02-65.28,235.1-127.8,352.13-192.58,6.95-5.1,10.57-13.38,11.01-21.89l-.69-358.27ZM502.15,878.31l-295.95-162.27v-290.94l295.95,132.96v320.25ZM529.78,510.52l-285-129.03,285.27-129.24,280.48,126.81,3.29,3.13-284.04,128.33ZM853.85,716.04l-50.04,26.45v-143.68c0-3.25-3.62-11.37-5.73-14.3-16.03-22.17-47.74-10.51-50.08,15.67l-.19,172.81-54.09,29.55v-152.26c0-6.03-10.11-17.53-15.71-20.03-14.71-6.59-31.6.57-37.82,15.1l-.74,187.69-80.84,45.25-1.44-318.81,296.68-134.38v290.94Z"/>
</svg>