<svg width="17" height="16" viewBox="0 0 17 16" fill="none" xmlns="http://www.w3.org/2000/svg">
<g clip-path="url(#clip0_61851_38922)">
<path d="M7.70715 13.4062H1.20996V0.46875H11.585V3.12603V5.09375" stroke="#6F7C97" stroke-width="0.9375" stroke-miterlimit="22.9256" stroke-linecap="round" stroke-linejoin="round"/>
<path fill-rule="evenodd" clip-rule="evenodd" d="M4.50577 8.25L5.1363 8.75478L5.92659 9.07034L5.80471 9.86878L5.92659 10.7109L5.17418 11.0046L4.50577 11.5313L3.87521 11.0265L3.08496 10.7109L3.2068 9.9125L3.08496 9.07034L3.83737 8.77662L4.50577 8.25Z" stroke="#6F7C97" stroke-width="0.9375" stroke-miterlimit="22.9256" stroke-linecap="round" stroke-linejoin="round"/>
<path fill-rule="evenodd" clip-rule="evenodd" d="M11.5852 7.83594C13.7222 7.83594 15.4546 10.602 15.4546 14.0141C15.4546 14.1834 15.4503 14.3512 15.4419 14.5171C15.4131 15.0861 14.9441 15.5319 14.3744 15.5319H8.79604C8.22626 15.5319 7.75732 15.0861 7.72851 14.5171C7.72013 14.3512 7.71582 14.1834 7.71582 14.0141C7.71585 10.602 9.44823 7.83594 11.5852 7.83594Z" stroke="#6F7C97" stroke-width="0.9375" stroke-miterlimit="22.9256" stroke-linecap="round" stroke-linejoin="round"/>
<path fill-rule="evenodd" clip-rule="evenodd" d="M11.585 7.6875C12.1579 7.03125 12.7308 6.0625 13.3037 5.40625H12.4443L11.585 5.09375L10.7256 5.40625H9.86621L11.585 7.6875Z" stroke="#6F7C97" stroke-width="0.9375" stroke-miterlimit="22.9256" stroke-linecap="round" stroke-linejoin="round"/>
<path d="M3.08496 2.34375H9.70996" stroke="#6F7C97" stroke-width="0.9375" stroke-miterlimit="22.9256" stroke-linecap="round" stroke-linejoin="round"/>
<path d="M3.08496 4.21875H8.45434" stroke="#6F7C97" stroke-width="0.9375" stroke-miterlimit="22.9256" stroke-linecap="round" stroke-linejoin="round"/>
<path d="M3.08496 6.09375H5.86621" stroke="#6F7C97" stroke-width="0.9375" stroke-miterlimit="22.9256" stroke-linecap="round" stroke-linejoin="round"/>
<path d="M12.163 10.0977H11.5452C11.1387 10.0977 10.8076 10.4281 10.8076 10.8378C10.8076 11.1241 10.9592 11.3694 11.2153 11.4975L12.0036 11.8916" stroke="#6F7C97" stroke-width="0.9375" stroke-miterlimit="22.9256" stroke-linecap="round" stroke-linejoin="round"/>
<path d="M11.0068 13.2666H11.6247C12.0311 13.2666 12.3622 12.9362 12.3622 12.5265C12.3622 12.2402 12.2106 11.9948 11.9545 11.8668L11.1663 11.4727" stroke="#6F7C97" stroke-width="0.9375" stroke-miterlimit="22.9256" stroke-linecap="round" stroke-linejoin="round"/>
<path d="M11.585 10.0987V9.66016" stroke="#6F7C97" stroke-width="0.9375" stroke-miterlimit="22.9256" stroke-linecap="round" stroke-linejoin="round"/>
<path d="M11.585 13.708V13.2695" stroke="#6F7C97" stroke-width="0.9375" stroke-miterlimit="22.9256" stroke-linecap="round" stroke-linejoin="round"/>
</g>
<defs>
<clipPath id="clip0_61851_38922">
<rect width="16" height="16" fill="white" transform="translate(0.333008)"/>
</clipPath>
</defs>
</svg>
