<svg width="14" height="16" viewBox="0 0 14 16" fill="none" xmlns="http://www.w3.org/2000/svg">
<path d="M13 6.66536H1M9.66667 1.33203V3.9987M4.33333 1.33203V3.9987M4.2 14.6654H9.8C10.9201 14.6654 11.4802 14.6654 11.908 14.4474C12.2843 14.2556 12.5903 13.9497 12.782 13.5733C13 13.1455 13 12.5855 13 11.4654V5.86536C13 4.74526 13 4.18521 12.782 3.75738C12.5903 3.38106 12.2843 3.0751 11.908 2.88335C11.4802 2.66536 10.9201 2.66536 9.8 2.66536H4.2C3.0799 2.66536 2.51984 2.66536 2.09202 2.88335C1.71569 3.0751 1.40973 3.38106 1.21799 3.75738C1 4.18521 1 4.74526 1 5.86536V11.4654C1 12.5855 1 13.1455 1.21799 13.5733C1.40973 13.9497 1.71569 14.2556 2.09202 14.4474C2.51984 14.6654 3.0799 14.6654 4.2 14.6654Z" stroke="#6F7C97" stroke-width="1.5" stroke-linecap="round" stroke-linejoin="round"/>
</svg>
