<?xml version="1.0" encoding="UTF-8"?>
<svg id="Layer_1" xmlns="http://www.w3.org/2000/svg" version="1.1" viewBox="0 0 1080 1080">
  <!-- Generator: Adobe Illustrator 29.7.1, SVG Export Plug-In . SVG Version: 2.1.1 Build 8)  -->
  <defs>
    <style>
      .st0 {
        fill: #6f7c97;
      }
    </style>
  </defs>
  <path class="st0" d="M1049.03,39.3v1018.06H30.97V39.3h1018.06ZM985.26,103.07H94.74v166.83c0,.2,1.54,1.79,2.28,1.71v-95.09c0-.52,3.5-8.63,4.09-9.58,3.72-5.97,14.63-12,21.48-12.69h834.83c8.6-.54,25.56,13.12,25.56,21.12v96.23h2.28V103.07ZM156.24,215.24v54.66l1.71,1.71h764.11l1.71-1.71v-54.66H156.24ZM956.79,391.18v-57.51l-1.71-1.71H124.92l-1.71,1.71v57.51h833.58ZM985.26,881.98v-428.75l-1.71-1.71H97.59c-.2,0-2.85,2.65-2.85,2.85v425.9l890.52,1.71ZM985.26,941.2H96.45l-1.71,1.71v49.54h890.52v-51.24Z"/>
  <path class="st0" d="M894.55,545.65c13.15,12.14,24.6,6.58,37.97,12.71,9.52,4.36,14.73,14.01,17.16,23.84l.32,164.9c-.31,3.38-1.47,7.82-2.7,10.96-10.43,26.69-35.13,13.14-51.89,28.97-11.02,10.42-7.81,20.36-11.57,32.84-3.81,12.65-12.35,18.8-24.69,22-50.98-2.79-107.74,4.65-158.06.31-20.83-1.8-36.44-21.26-27.89-41.63,4.71-11.23,16.93-17.71,25.11-26.12,55.56-57.1,62.17-144.36,14.57-209.37-12.8-17.49-35.32-28.48-27.63-53.11,3.92-12.56,14.51-19.39,27.29-20.53,46.55-4.18,99.39,2.84,146.59.28,9.4,1.52,17.03,6.43,21.77,14.67,7.12,12.38,2.41,28.92,13.65,39.3ZM768.89,781.77h61.49c9.12-28.49,31.65-49.34,59.28-59.93v-111.33c-27.72-9.38-48.81-30.87-59.4-58.09-.87-1.73-2.13-1.7-3.8-1.9-9.81-1.16-21.13.62-31.01.78-6.27.1-13.31-2.21-19.73.44,40.65,71.54,37.39,160.87-6.84,230.02Z"/>
  <path class="st0" d="M387.84,541.92c-3.95,4.68-9.3,8.63-12.98,12.98-53.99,63.84-52.43,155.94,5.03,217.32,12.15,12.97,31.09,21.14,29.2,42.07-1.35,14.96-13.41,25.86-27.95,27.84l-158.33.03c-12.3-2.74-21.81-8.23-26-20.69-4.65-13.82-.09-21.07-11.74-33.86-14.63-16.05-47.6-3.57-53.39-33.1-3.53-18.02-.37-53.5-.44-73.57-.12-30.49-2.92-69.44-.1-99.06.65-6.84,5.43-15.59,10.86-19.88,13.32-10.52,29.88-2.99,43.44-16.35,12.3-12.13,6.28-26.87,14.11-39.98,5.38-9,14.27-13.23,24.46-14.26,46.23,2.69,96.63-3.65,142.37-.06,27.8,2.18,39.51,29.21,21.46,50.57ZM249.61,781.77h61.49c-4.56-10.13-11.05-19.23-15.61-29.37-26.55-58.97-25.94-123.8,0-182.68,2.62-5.95,5.96-11.54,8.79-17.38-.65-3.6-15.67-.98-18.61-1.03-6.05-.1-32.35-2.4-35.51.41-1.54,1.37-7.96,16.63-10.33,20.42-11.26,17.99-29.47,31.77-49.52,38.32v111.37c22.11,8.63,39.72,21.71,51.54,42.05,3.18,5.48,6.17,11.72,7.75,17.88Z"/>
  <path class="st0" d="M641,574.87c1.14.9,1.98,3.95,4.52,4.59,10.32,21.86,27.16,43.06,37.23,64.68,6.01,12.9,5.27,19.2-.95,31.75-8.18,16.47-25.65,47.87-36.35,62.15-20.74,27.7-66.1,3.18-51.25-31.32l27.76-47.35c-5.6-9.58-10.58-19.59-16.01-29.29-3.07-5.49-8.75-12.11-11.51-18.34-13.72-30.89,21.24-57.03,46.56-36.88Z"/>
  <path class="st0" d="M462.99,668.63c11.8,20.98,42.34,53.45,14.28,74.9-16.73,12.79-34.65,5.88-45.42-10.19-9.86-14.71-25.2-40.59-32.94-56.12-6.94-13.91-7.35-20.43-.71-34.4,7.11-14.95,26.62-49.94,36.54-62.53,22.7-28.82,65.96-3.09,51.07,31.71l-27.17,45.62c-.44,1.44,3.36,9.25,4.35,11.01Z"/>
  <path class="st0" d="M575.96,657.19c-6.09,11.46-27.31,51.79-36.25,57.68-25.15,16.56-55.51-7.21-45.27-35.02,12.76-20.92,23.12-45.75,36.44-66.05,11.98-18.26,36.27-24.05,50.61-5.03,13.52,17.93,3.18,32.06-5.52,48.43Z"/>
</svg>