<?xml version="1.0" encoding="UTF-8"?>
<svg id="Layer_1" data-name="Layer 1" xmlns="http://www.w3.org/2000/svg" viewBox="0 0 1080 1080">
  <defs>
    <style>
      .cls-1 {
        fill: #6f7c97;
      }
    </style>
  </defs>
  <path class="cls-1" d="M798.74,223.58v-49.45c0-2.28,3.74-11.35,5.18-13.81s6.6-9.13,9.33-9.65l45.53.41c6.82,5.8,11.96,13.9,12.94,23.01-3.18,48.12,4.09,101.43,0,148.94-1.3,15.03-14.19,28.09-28.75,31.2-46.54-.06-97.34,4.27-143.67,1.28-23.92-1.54-42.29-16.89-39.31-42.39,1.6-13.74,16.9-31.58,31.36-31.58h61.44c-34.61-27.42-77.74-47.48-120.87-57.46-213.66-49.42-410.39,117.96-399.68,335.74.82,16.77,8.37,42.45,4.54,57.41-8.66,33.89-57.11,35.93-69.21,3.26l-.22-161.6c30.68-152.91,154.74-276.59,307.31-308.12,52.77,2.62,109.48-3.84,161.79-.15,12.77.9,34.31,7.85,46.93,12.02,41.56,13.7,80.31,35.13,115.37,60.96Z"/>
  <path class="cls-1" d="M315.19,857.99v51.45c0,2.08-5.48,12.62-7.16,14.81-1.98,2.59-3.89,5.27-7.27,5.72-13.67,1.82-31.66-1.29-45.81-.26-7.3-5.38-11.96-15.29-12.73-24.24-4-46.53,3.06-98.76.05-145.89,1.58-15.81,15.3-31.12,31.43-32.52,48.11,3.18,101.43-4.11,148.93,0,44.79,3.87,38.74,72.97-2.03,72.97h-59.44l34.3,23.15c230.44,131.94,513.58-54.59,485.21-317.37-2.01-18.6-10.02-35.94,2.18-52.79,17.14-23.67,53.13-19.18,63.7,7.88l-.04,163.68c-31.26,150.51-152.97,272.87-303.22,305.22l-173.48-.15c-56.32-12.59-108.26-37.8-154.61-71.68Z"/>
  <path class="cls-1" d="M505.37,445.73c-12.43,12.34-5.73,31.51,10.43,36.32,47.53,14.14,99.94,9.31,134.05,51.77,49.57,61.7,13.57,152.82-63.86,164.37-1.17,14.36,2.61,30.08-2.87,43.59-12.06,29.78-54.52,30.08-66.97.67-5.82-13.74-2.12-29.69-3.15-44.31-33.55-4.15-64.92-28.26-78.09-59.28-20.34-47.88,36.68-74.79,61.55-40.57,8.7,11.97,8.26,25.76,28.04,27.91,10.81,1.17,40.28,1.3,50.87-.09,28.74-3.77,33.38-45.35,4.56-55.34-32.55-11.29-74.86-10.34-105.55-27.33-48-26.56-62.95-88.97-32.53-134.77,16.16-24.33,41.89-38.52,70.73-42.17,2-16.37-3.18-32.44,5.63-47.32,13.94-23.56,49.48-23.24,62.91.63,8.41,14.96,3.21,31.36,5.26,47.69,29.59,5.14,56.27,22.38,71.67,48.21,5.93,9.95,11.7,22.28,10.8,34.13-2.21,29.18-38.25,43.59-60.4,24.47-12.39-10.7-10.4-27.93-28.68-33.26-10.25-2.99-47.62-2.82-59.25-1.67-5.09.5-11.49,2.72-15.14,6.34Z"/>
</svg>