<?xml version="1.0" encoding="UTF-8"?>
<svg id="Layer_1" xmlns="http://www.w3.org/2000/svg" version="1.1" viewBox="0 0 1080 1080">
  <!-- Generator: Adobe Illustrator 29.7.1, SVG Export Plug-In . SVG Version: 2.1.1 Build 8)  -->
  <defs>
    <style>
      .st0 {
        fill: #6f7c97;
      }
    </style>
  </defs>
  <path class="st0" d="M935.35,597.28V79.85c0-42.97-34.89-78.03-77.87-78.03H77.87C34.89,1.82,0,36.88,0,79.85v779.62c0,42.97,34.89,77.87,77.87,77.87h533.59c42.32,81.42,126.97,133.28,219.7,133.28,136.83,0,248.13-111.47,248.13-248.3,0-96.44-57.19-184.81-143.94-225.03ZM48.46,79.85c0-16.15,13.25-29.56,29.4-29.56h779.62c16.32,0,29.4,13.41,29.4,29.56v89.66h-217.6l-99.03,79.97H48.46V79.85ZM77.87,888.87c-16.15,0-29.4-13.09-29.4-29.4V297.94h538.92l99.03-79.97h200.48v362.67c-18.09-4.04-36.67-6.14-55.73-6.14-63.65,0-124.23,24.07-170.43,67.69-50.08,47.33-77.54,111.31-77.54,180.12,0,22.94,2.91,45.23,8.88,66.56H77.87ZM831.15,1022.15c-78.83,0-150.56-46.69-182.38-118.74l-.16-.16c-11.31-25.36-16.96-52.5-16.96-80.93,0-55.25,22.13-106.78,62.36-144.91,37.16-35.06,85.94-54.44,137.15-54.44,24.72,0,48.79,4.36,71.4,13.09,76.73,29.24,128.27,104.2,128.27,186.26,0,110.17-89.5,199.83-199.67,199.83Z"/>
  <rect class="st0" x="116.32" y="374.88" width="446.71" height="61.11" rx="1.89" ry="1.89"/>
  <rect class="st0" x="116.32" y="120.98" width="113.78" height="61.11" rx="1.89" ry="1.89"/>
  <rect class="st0" x="290.16" y="120.98" width="113.78" height="61.11" rx="1.89" ry="1.89"/>
  <rect class="st0" x="458.73" y="120.98" width="113.78" height="61.11" rx="1.89" ry="1.89"/>
  <rect class="st0" x="116.32" y="500.43" width="446.71" height="61.11" rx="1.89" ry="1.89"/>
  <rect class="st0" x="116.32" y="620.71" width="446.71" height="61.11" rx="1.89" ry="1.89"/>
  <polygon class="st0" points="889.11 916.94 753.12 916.94 826.92 822.39 753.44 726.25 889.11 726.25 889.11 758.37 864.88 758.37 864.88 750.48 802.45 750.48 857.53 822.55 802.78 892.7 864.88 892.7 864.88 884.8 889.11 884.8 889.11 916.94"/>
</svg>