<?xml version="1.0" encoding="UTF-8"?>
<svg id="Layer_1" xmlns="http://www.w3.org/2000/svg" version="1.1" viewBox="0 0 1080 1080">
  <!-- Generator: Adobe Illustrator 29.7.1, SVG Export Plug-In . SVG Version: 2.1.1 Build 8)  -->
  <defs>
    <style>
      .st0 {
        fill: #6f7c97;
      }
    </style>
  </defs>
  <path class="st0" d="M740.67,175.47c17,13.55,28.8,28.66,32.53,50.9l.56,198.25c11.35,3.96,22.85,7.4,33.98,11.98,87.43,35.93,158.97,117.45,174.09,212.55,1.27,7.96.69,19.54,2.27,26.54.18.8,1.82.26,2.06,2.11,1.91,14.6-1.05,38.08-3.2,52.89-19.09,131.36-122.81,224.32-252.15,242.39-5.15.72-14.35,0-18.79,1.03-17.21,3.98-36.27,1.3-54.13-1.03-6.44-.84-14.46-1.96-20.76-3.22-9.55-1.91-29.24-9.81-37.19-9.84-10.09-.04-29.1,5.5-40.09,6.95-18.31,2.42-38.44,4.74-56.84,6.1-11.22.83-26.41-.53-37.01.96-40.3,5.64-85.07,0-125.84-3.93-46.28-4.46-93.15-11.67-137.57-26.28-39.75-13.08-104.35-42.06-108.73-90.09V227.25c3.95-47.3,64.91-75.44,103.99-88.84,86.75-29.73,186.07-34.76,277.16-31.47,80.74,2.91,201.21,17.14,265.65,68.52ZM710.04,216.11c-35.02-31.05-129.82-48.75-176.14-54.15-100.75-11.75-261.33-6.76-353.28,39.14-9.25,4.62-35.08,20.4-34.46,32.03.33,6.22,9.93,16.34,14.8,19.99,51.13,38.27,164.99,52,228.17,54.61,89.38,3.69,227.02-1.66,304.97-47.94,12-7.13,34.29-19.36,22.68-35.93-.85-1.21-5.75-6.87-6.73-7.75ZM720.33,305.72c-4.4.42-8.39,4.22-12.33,6.15-59.65,29.27-141.84,42.27-207.98,46.79-103.76,7.09-248.76-1.38-342.87-47.75-3.89-1.92-6.92-5.56-11.29-5.19l-.08,131.36c1.87,22.42,40.95,38.49,59.5,45.5,58.33,22.04,136.58,31.99,198.79,33.99,23.35.75,47.02.04,70.27-1.26,57.29-68.88,144.83-103.86,234.53-100.73,3.69.13,7.49,1.78,11.45,1.04v-109.9ZM865.55,536.16c-102.04-101.05-273.93-92.85-360.43,23.41-127.48,171.34,28.75,397.37,233.45,360.33,180.93-32.74,261.88-250.15,126.98-383.74ZM437.59,567.48c-10.14-.31-20.37.39-30.51.04-24.73-.86-50.62-2.44-74.88-5.05-61.49-6.61-124.39-19.49-180.05-46.74-2.96-1.45-5.22-6.47-6.34.25l.29,127.69c2.13,13.59,22.49,25.44,33.71,31.23,52.9,27.32,133.03,39.6,192.35,43.43,11.42.74,23.34.35,34.82.86l1.22-1.9c-4.26-37.66,2.11-78.61,14.46-114.29,4.22-12.18,10.4-23.49,14.92-35.52ZM417.41,771.5c-12.66-.62-25.67-.34-38.31-1.19-37.64-2.54-77.74-7-114.55-14.3-40.45-8.02-80.85-20.1-117.19-39.65l-1.54,3.42c.97,43.84-1.55,88.06,1.31,131.66,4.85,14.11,31.51,27.56,44.71,33.22,77.79,33.34,190.3,42.16,274.24,38.49,18.27-.8,36.25-2.46,54.43-3.01,2.36-2.32-8.55-8.67-10.34-10.18-32.37-27.23-59.01-60.2-77.1-98.69-6.18-13.16-10.3-26.39-15.67-39.77Z"/>
  <path class="st0" d="M830.58,677.72c-38.41,38.45-77.6,76.24-116.9,113.89-10.23,9.8-24.27,28.92-38.78,30.65-17.67,2.11-28.76-14.99-39.85-25.65-28.78-27.68-57.52-55.34-86.08-83.26-17.9-19.25-3.34-46.98,22.88-43.86,11.93,1.42,19.51,12.84,27.54,20.41,24.18,22.78,47.89,46.1,71.49,69.43,2.32-.13,17.19-14.55,20.12-17.37,40.16-38.52,78.95-78.52,119.21-117.07,20.39-15.62,47.07-2.61,43.98,24-1.3,11.2-16.12,21.31-23.63,28.82Z"/>
</svg>