<?xml version="1.0" encoding="UTF-8"?>
<svg id="Layer_1" data-name="Layer 1" xmlns="http://www.w3.org/2000/svg" viewBox="0 0 1080 1080">
  <defs>
    <style>
      .cls-1 {
        fill: #8797c2;
      }
    </style>
  </defs>
  <path class="cls-1" d="M473.92,726.66v185.82c0,15.94-25.34,61.79-36.61,74.65-49.82,56.87-150.68,65.86-214.49,29.73-107.56-60.91-66.29-191.36-74.27-293.1-62.52-2.51-122.04-44.93-138.55-106.02-15.62-57.78-12.81-253.96,7.4-310.29,66.8-186.19,321.22-107.59,472.29-128.35,44.39-6.1,96.67-25.81,137.68-43.97,73.41-32.51,190.3-130.35,258.09-43.22,34.35,44.15,21.78,130.68,22.09,185.43.89,160.05.33,320.04.25,480.16-43.89,165.79-166.68,66.02-259.91,22.26-53.78-25.25-114.21-50.14-173.98-53.09ZM799.25,170.66c-38.28,18.21-74.7,40.36-113.26,58.11-188.23,86.66-281.75,49.36-474.52,61.74-66.05,4.24-94.11,31.99-98.21,98.01-3.15,50.76-4.39,134.71.02,184.62,5.94,67.11,81.04,28.02,118.07,48.92,9.59,5.41,21.91,20.49,24.4,31.24,8.21,74.4-6.66,159.75,1.25,232.85,2.46,22.75,16.84,39,39.83,42.17,34.02,4.68,65.14-3.93,68.73-42.06,6.61-70.04-9.14-157.15.14-225.18,2.46-18.03,17.51-38.47,35.42-43.64,26.95-7.77,99.71-.8,129.05,4.75,94.83,17.92,184.51,69.63,269.05,113.26V170.66Z"/>
  <path class="cls-1" d="M1061.98,588.07c-31.51,30.58-82.37,14.71-92.03-27.45,5.04-66.85-9.28-150.72-.44-215.59,7.63-56.04,97.58-57.73,107.48.44-3.96,66.63,7.73,144.71.71,210-1.22,11.31-7.63,24.74-15.72,32.59Z"/>
</svg>