<?xml version="1.0" encoding="UTF-8"?>
<svg id="Layer_1" data-name="Layer 1" xmlns="http://www.w3.org/2000/svg" viewBox="0 0 1080 1080">
  <defs>
    <style>
      .cls-1 {
        fill: #8797c2;
      }
    </style>
  </defs>
  <path class="cls-1" d="M608.24,54.11c.45.17,1.24.77,2.39,1.2,15.14,5.58,30.35,11.14,45.48,16.76.35.13.85-.13,1.2,0,45.43,16.88,90.35,36.08,136.45,51.47.97,1.29,2.13,1.25,3.59,1.2,21.93,10.29,45.77,16.58,67.28,27.87,41.92,22,69.76,62.51,75.15,109.77.04.39-.04.8,0,1.2.35,3.41,1.11,6.69,1.25,10.12-3.77,96.33,4.81,196.22,0,292.14-.71,14.18-3.26,32.06-6.03,46.03-.03.13-.85.74-1.2,2.39-1.32,6.33-2.57,12.89-4.18,19.16-4.04,15.75-9.97,30.88-13.77,46.67l-1.2,1.2c-7.32,16.96-14.7,33.93-23.31,50.29-6.53,12.4-20.01,30.36-24.56,41.87-.24.6-.98.93-1.2,2.39-10.71,12.78-19.91,26.71-30.22,39.83-1.23,1.56-1.67,3.93-2.09,4.46-.3.38-.82.72-1.2,1.2-10.54,13.09-23.39,27.38-34.71,39.5-.75.8-1.6,1.55-2.39,2.39-7.61,8.12-17.08,17.26-25.13,25.13-.81.79-1.6,1.62-2.39,2.39-24.59,23.76-53.07,47.34-80.19,68.22-1.11.86-1.82,1.96-2.39,2.39-30.77,23.48-64.37,44.91-96.95,65.83-1.44.93-5.2.53-5.98,3.59-4.52.59-18.65,10.36-24.71,13-39.01,16.96-70.95,7.13-105.75-13-.75-.43-2.46-2.21-4.79-3.59-47.68-28.21-93.97-61.45-136.45-96.95-.66-.55-1.37-1.53-2.39-2.39-14.02-11.79-28.7-24.44-41.89-37.1-.8-.77-1.58-1.6-2.39-2.39-21.25-20.63-42.49-43.92-61.04-67.03-.87-1.08-1.93-1.8-2.39-2.39-10.59-13.39-20.38-27.74-29.92-41.89-.84-1.24-2.1-1.96-2.39-2.39-18.53-27.97-37-62.02-49.07-93.36-.13-.35.13-.85,0-1.2-7.51-19.79-13.32-40.36-17.95-61.04-.24-1.06-1.11-1.97-1.2-2.39-.37-1.72-.96-3.56-1.2-4.79-.07-.38.07-.81,0-1.2-4.31-22.82-5.5-45.1-5.98-68.22,0-.4,0-.8,0-1.2-.44-22.7.11-45.51,0-68.22,0-.4,0-.8,0-1.2-.11-23.12-.07-46.3,0-69.42,0-.4,0-.8,0-1.2.07-22.72-.17-45.5,0-68.22,0-.4,0-.8,0-1.2.18-22.64-1.19-45.73,1.2-68.22.04-.39-.05-.8,0-1.2,2.84-24.05,12.55-48.41,26.33-68.22.63-.9.9-1.98,1.2-2.39,8.84-12,25.79-25.97,38.39-34.01,2.25-1.44,6.87-2.99,8.28-4.29.38-.35,1.04-.51,1.2-1.2,21.87-10.33,44.82-17.97,67.39-26.61,1.24-.47,1.85-2.05,2.03-2.12,45.92-17.56,92.69-34.32,138.84-51.47,1.06-.39,2.28-.71,3.59-1.2,31.68-11.77,64.49-25.31,96.33-35.93,53.32-17.78,82,1.1,131.08,19.17ZM516.08,133.11c-2.01.26-3.45.55-5.41,1.13-20.45,6.14-42.51,16.47-62.81,24-.97.36-1.75.96-2.39,1.2-22.38,8.3-44.69,16.79-67.03,25.13-6.32,2.36-12.97,4.85-19.15,7.18-16.75,6.32-33.6,12.83-50.27,19.15-.35.13-.85-.13-1.2,0-27.41,10.4-60.81,19.64-86.6,32.49-10.35,5.16-14.95,8.01-19.92,18.98-.15.32.14.84,0,1.2-5.43,13.75-2.99,22.16-3.54,36.55-2.99,77.49-4.29,164.26-1.3,241.77.99,25.73,4.52,44.55,10.82,68.77.1.37-.1.82,0,1.2,7.48,27.99,14.31,43.13,27.53,68.22,1.66,3.15,2.66,5.82,4.79,9.58,12.38,21.91,25.19,41.19,40.69,61.04.87,1.11,1.9,1.77,2.39,2.39,19.66,24.72,39.07,45.27,62.24,67.03.81.76,1.53,1.6,2.39,2.39,6.86,6.33,18.52,19.45,25.71,24.01,1.4.89,2.51,1.38,4.21,1.13h1.2c.7,4.36,16.02,16.08,20.45,19.65,14.93,12,31.56,24.16,47.77,34.21h1.2c.09.68-.27,1.28.26,2.1.85,1.31,19.4,13.07,22.58,15.15,5.92,3.87,42.41,27.15,45.98,27.15,21.79-11.08,42.88-24.84,63.21-38.64,2.45-1.67,4.8-4.37,6.81-5.76,5.54-3.85,11.28-7.98,16.76-11.97,29.25-21.3,56.12-42.04,82.59-67.03.84-.79,1.59-1.63,2.39-2.39,23.57-22.43,43.45-42.81,63.44-68.22.34-.43.85-.76,1.2-1.2,16.83-21.6,31.28-42.88,44.28-67.03.38-.71,1.41-1.7,2.39-3.59,21.51-41.23,35.12-85.32,37.16-132.2,4-92.02-1.94-185.44-1.54-277.45-3.51-15.46-12.01-21.92-25.62-28.24-41.27-19.18-91.32-34.14-134.48-50.44-6.37-2.41-12.76-4.79-19.15-7.18-22.68-8.48-45.57-16.74-68.22-25.13-.35-.13-.85.13-1.2,0-.18-.07-.97-1.76-2.87-2.46-21.75-8.04-43.42-16.34-65.35-23.87l-.93-.9c-.78-.24-1.22.87-1.46.9Z"/>
  <path class="cls-1" d="M725.54,376.08c.76,1.33,2.31,3.39,2.39,3.59,7.5,17.37,1.61,28.31,0,44.28-1.15.32-1.14,1.38-1.2,2.39-13.94,15.81-28.64,31.25-43.51,46.26-59.44,60-120.57,118.44-179.74,178.73-16.21,13.07-36.49,15.38-55.63,7.21-.34-.15-.87.15-1.2,0-11.32-5.29-39.53-36.08-50.27-46.68-.8-.79-1.59-1.6-2.39-2.39-4.77-4.71-9.65-9.59-14.36-14.36-.8-.81-1.61-1.6-2.39-2.39-13.39-13.57-42.76-39.55-48.79-55.94-15.72-42.79,25.76-85.21,68.75-67.55,14.29,5.87,36.48,30.42,48.26,42.1.8.79,1.59,1.6,2.39,2.39,7.48,7.4,14.31,15.63,22.14,22.72,16.22-15.48,31.41-32.06,47.28-47.85.4-.4.8-.8,1.2-1.2.14-.14,2.21-.31,3.62-1.71,38.63-38.47,78.35-85.03,119.03-120.4,26.73-23.24,65.96-21.3,84.41,10.8Z"/>
</svg>