<?xml version="1.0" encoding="UTF-8"?>
<svg id="Layer_1" data-name="Layer 1" xmlns="http://www.w3.org/2000/svg" viewBox="0 0 1080 1080">
  <defs>
    <style>
      .cls-1 {
        fill: #8797c2;
      }
    </style>
  </defs>
  <path class="cls-1" d="M116.84,268.7L500.12,28.16c44.7-22.83,69.94-5.14,107.45,17.04,119.42,70.62,234.29,149.87,353.14,221.53,36.75,34.1,15.7,92.87-33.89,96.71H152.54c-48.82-4.9-67.83-59.05-35.7-94.74ZM736.42,255.19l-192.97-122.53-192.96,118.78,385.93,3.75Z"/>
  <path class="cls-1" d="M100.2,925.55l877.1-.66c66.5,10.38,65.11,100.32-.9,109.33l-868.37-.03c-68.86-3.97-73.77-96.46-7.83-108.64Z"/>
  <path class="cls-1" d="M291.6,873.64c-33.6,33.72-91.77,11.32-94.92-35.64l.25-389.92c7.98-66.64,103.87-71.55,110.66,9.83,9.97,119.38-7.45,251.89.13,372.66-1.81,15.52-4.71,31.62-16.13,43.07Z"/>
  <path class="cls-1" d="M442.98,397.13c37.95-.72,54.13,29.78,56.46,63.15,8.47,121.29-6.32,252.6-.42,374.93-8.01,76.94-106.46,67.79-109.74,2.42-.22-4.43,1.81-9.44,1.72-14.58-1.6-91.14-2.22-183.02-1.7-274.12.18-31.07-2.15-79.47,1.79-108.46,3.26-23.98,28.27-42.9,51.88-43.35Z"/>
  <path class="cls-1" d="M826.62,396.87c27.95-1.12,56.27,24.85,56.18,53.37l-.37,392.56c-10.71,63.71-100.35,62.52-108.28-2.14l.32-397.66c4.27-24.99,26.44-45.09,52.15-46.12Z"/>
  <path class="cls-1" d="M634.66,397.14c29.68-.9,54.59,23.85,56.47,53.08l-.39,390.06c-9.1,65.65-99.57,66.38-108.28.38l.27-400.24c5.77-23.88,26.84-42.51,51.93-43.27Z"/>
</svg>