<?xml version="1.0" encoding="UTF-8"?>
<svg id="Layer_1" data-name="Layer 1" xmlns="http://www.w3.org/2000/svg" viewBox="0 0 1080 1080">
  <defs>
    <style>
      .cls-1 {
        fill: #8797c2;
      }
    </style>
  </defs>
  <path class="cls-1" d="M249.41,98.68l231.54,1.93c130.39,5.06,266.35-7.16,396.09-.09,109.85,5.99,197.84,80.69,200.17,195.56,2.87,142.16,4.35,295.09.33,437.84-2.61,92.66-12.14,169.47-99.87,219.91-46.49,26.73-80.64,23.03-131.52,24.95-203.29,7.68-408.11-.7-611.82,2.56-124.59,5.67-223.19-64.52-231.09-193.08-10.02-163,7.1-335.66,0-499.51C14.11,152.6,120.02,89.88,249.41,98.68ZM943.8,238.67c-20.79-22.21-47.15-26.35-76.12-29.36H208.24c-21.85,2.71-40.35,3.75-58.78,17.08-10.87,7.86-40.05,38.91-26.62,51.82,123.32,80.8,240.18,171.37,362.42,253.72,22.6,15.23,49.02,40.5,76.8,21.18l394.53-276.15,4.19-5.13c1.15-6.18-12.29-28.15-16.98-33.16ZM426.72,624.72c-95-63.38-186.25-132.58-280.48-197.06-4.58-3.14-31.07-22.34-33.93-19.37l2.39,382.32c6.78,51.85,37.51,75.92,88.79,79.45l671.3-.02c49.29-2.14,81.97-27.93,88.8-77.07l2.39-384.69c-2.72-2.83-16.42,7.71-19.71,9.89-102.71,68.31-199.97,146.12-303.45,213.17-89.65,58.09-130.19,50.68-216.11-6.64Z"/>
</svg>