<?xml version="1.0" encoding="UTF-8"?>
<svg id="Layer_1" data-name="Layer 1" xmlns="http://www.w3.org/2000/svg" viewBox="0 0 24 24">
  <defs>
    <style>
      .cls-1 {
        fill: #939393;
      }
    </style>
  </defs>
  <path class="cls-1" d="M2.11,8.7h19.72v-2.21c0-.33-.31-.85-.64-.97-1.07-.38-2.93.09-4.05-.14-.98-.2-1.06-1.79.02-2.04.71-.16,3.51-.07,4.28.08,1.19.24,2.17,1.25,2.39,2.44.01,3.68.33,7.67.1,11.33-.11,1.83-.97,3.15-2.87,3.41l-7.51.09c.04.3.37.39.49.68.19.49.04.95-.37,1.25-.55.41-.95.24-1.45-.16-.43-.35-1.63-1.55-1.97-1.97-.51-.64-.56-1.07-.04-1.73.35-.46,1.51-1.6,1.97-1.97.31-.25.66-.51,1.07-.42.66.13,1.04.86.79,1.48-.11.29-.45.37-.49.68h7.52c.34,0,.76-.77.76-1.09v-6.56H2.11v6.48c0,.06.13.55.17.63.06.12.41.46.55.5,1.18.19,2.66-.14,3.81.06,1.23.21,1.29,1.93-.08,2.13-.94.14-3.59.07-4.47-.24-1.05-.37-1.91-1.49-1.99-2.59-.29-3.85.21-8.08.02-11.97.26-1.45,1.69-2.56,3.16-2.56h7.12c-.08-.33-.43-.45-.53-.8-.27-1.02.81-1.75,1.69-1.13.37.26,1.96,1.86,2.25,2.25.39.51.4.94,0,1.45-.35.46-1.75,1.86-2.21,2.21-1.28.99-2.51-.8-1.25-1.73l-.08-.16H3.27c-.26,0-.66.16-.85.36-.17.18-.32.58-.32.81v2.13Z"/>
</svg>