<?xml version="1.0" encoding="UTF-8"?>
<svg id="Layer_1" data-name="Layer 1" xmlns="http://www.w3.org/2000/svg" viewBox="0 0 1080 1080">
  <defs>
    <style>
      .cls-1 {
        fill: #8797c2;
      }
    </style>
  </defs>
  <path class="cls-1" d="M0-.97h1076.73l3.27,3.27v1074.05l-3.27,3.27H3.27l-3.27-3.27V-.97ZM495.27,75.29H76.36v418.29h418.91V75.29ZM1003.64,75.29h-418.91v418.29l418.91-1.09V75.29ZM495.27,582.9H76.36v420.47l418.91-2.18v-418.29ZM1003.64,582.9h-418.91v418.29h418.91v-418.29Z"/>
  <path class="cls-1" d="M750.55,249.57h60c2.28,0,16.86,10.46,19.47,13.24,16.41,17.55,15.73,46.57-2.03,63-1.9,1.76-16.41,10.91-17.44,10.91h-56.73l-2.21,4.32c17.76,26.04,45.24,38.29,75.79,25.59,6.96-2.89,13.68-9.79,21.17-11.54,55.68-13,83.91,54.43,26.37,87.34-72.5,41.46-160.35,11.27-201.14-58.48-5.09-8.7-17.95-44.93-19.76-46.71-2.38-2.35-15.11-5.07-21.18-10.44-23.19-20.49-18.41-57.12,7.88-72.45,3.8-2.22,11.38-3.36,13.3-5.25,2.46-2.42,5.88-18.31,8.17-23.43,30.86-68.96,91.37-111.87,169.5-97.43,27.07,5,77.6,28.62,84.11,57.61,7.87,35.04-19.29,61.76-54.61,54.55-12.54-2.56-23.4-17.44-36.52-22.35-28.94-10.84-62.21,3.29-74.15,31.56Z"/>
  <path class="cls-1" d="M313.4,110.92c12.14,12.02,10.12,27.65,14.36,33.58.78,1.09,20.08,9.28,24.17,11.82,42.72,26.55,75.62,102.1,14.63,127,41.06,38.35,42.13,96.88.01,135.11-3.62,3.29-13.88,8-14.95,11.22-1.43,4.32.16,11.08-.91,16.52-10.31,52.38-80.24,50.77-89.19-.25-53.29-2.71-101.28-51.5-95.81-106.06,1.76-17.56,16.74-35.32,35.01-35.85,1.9-1.76-12.93-17.04-15.32-20.63-31.68-47.7-13.15-102.04,33.5-130.05,3.8-2.28,16.97-6.84,17.91-8.26,1.63-2.48,2.07-15.15,5.77-22.56,12.87-25.77,50.34-31.89,70.82-11.6ZM314.18,256.09c-5.78-11.43-.02-23.37-15.22-27.26-6.69-1.71-37.54-3.19-39.32,4.44-.59,3.59,2.72,4.35,5.02,5.85,5.32,3.49,47.27,18.7,49.52,16.97ZM250.91,330.2c3.34,6.03,1.45,14.5,4.76,20.27,6.49,11.3,42.84,10.91,51.92.4l-56.68-20.68Z"/>
  <path class="cls-1" d="M268.59,752.59c23.26-1.49,46.26,1.12,57.67,24.12,16.55,33.39-8.88,67.36-44.82,65.43l-2.18,30.52c22.97-4.88,46.86,10.38,66.73,12.87,12.84,1.61,23.98-3.47,36.73-1.78,44.19,5.83,52.14,71.56,4.66,87.06-47.45,15.49-83.28-13.08-130.99-8.79-33.83,3.04-73.07,34.82-98.96-5.83-28.23-44.33,37.24-69.67,34.57-114.03-55.49-.56-66.21-71.46-14.04-89.3-6.83-81.22,44.97-154.94,132.66-145.72,53.84,5.66,96.19,64.81,97.42,116.4,1.08,45.33-59.45,64.78-83.42,24.3-9.88-16.69-5.09-54.42-33.38-51.73-22.6,2.15-28.22,38.8-22.66,56.49Z"/>
  <path class="cls-1" d="M701.45,820.36c-38.27-5.38-51.96-58.13-19.62-80.6l16.33-9.79c-13.35-19.08-46.5-48.69-48.07-71.83-3.03-44.62,45.78-66.83,77.62-36.11l57.78,78.49c3.05.72,3.58-.45,5.47-2.11,10.99-9.64,27.51-37.94,38.22-51.16s22.05-32.34,40.79-35.52c37.84-6.42,62.62,23.6,51.5,60.13-2.51,8.24-44.79,56.6-42.2,59.15,38.25,3.29,53.48,53.7,25.12,78.49-3.23,2.82-20.56,10.86-24.04,10.86h-46.91l34.94,5.41c36.21,10.91,42.23,62.68,8.8,80.75-14.24,7.7-28.21,5.04-43.76,5.32,11.67,49.54-51.18,88-81.67,43.44-10.26-14.99-5.81-26.77-9.82-42.48-15.08-1.64-24.6.99-37.96-7.85-31.95-21.14-25.62-66.04,9.48-79.14l30.52-5.47c-13.31-1.33-29.68,1.81-42.55,0Z"/>
</svg>