<?xml version="1.0" encoding="UTF-8"?>
<svg id="Layer_1" data-name="Layer 1" xmlns="http://www.w3.org/2000/svg" viewBox="0 0 24 24">
  <path d="M21.75,9.83H2.12v6.88c0,.28.59.75.88.81.95.2,3.05-.48,2.9,1.19-.1,1.12-1.88,1-2.69.93-1.62-.13-2.86-1.07-3.17-2.7l.03-12.1c.38-1.66,1.79-2.58,3.46-2.57,5.45.2,11.07-.25,16.5,0,1.87.09,3.6.71,3.82,2.86.36,3.62-.27,7.82,0,11.51-.26,2.08-1.59,2.92-3.58,3.02-.9.04-2.42.14-2.3-1.17.16-1.73,2.82-.29,3.58-1.41.04-.06.2-.41.2-.44v-6.8ZM2.12,5.2c-.13.65.1,1.71,0,2.41l.12.12h19.39l.12-.12v-2.41s-.2-.35-.24-.4c-.29-.37-.64-.39-1.08-.45-5.51.27-11.35-.35-16.82,0-.57.04-1.35.17-1.48.85Z"/>
  <path d="M10.89,12.85c.14-.71,1.17-1,1.73-.52.12.1.36.48.36.6v5.07l.16.08c.74-.56,1.47-2.09,2.55-1.51.71.38.65,1.19.19,1.75-.61.74-2.41,2.57-3.14,3.14-.62.48-1,.48-1.61,0-.77-.6-2.51-2.37-3.14-3.14s-.33-1.98.77-1.9c.66.05,1.45,1.26,1.97,1.66l.16-.08v-5.15Z"/>
</svg>