<?xml version="1.0" encoding="UTF-8"?>
<svg id="Layer_1" xmlns="http://www.w3.org/2000/svg" version="1.1" viewBox="0 0 1080 1080">
  <!-- Generator: Adobe Illustrator 29.7.1, SVG Export Plug-In . SVG Version: 2.1.1 Build 8)  -->
  <defs>
    <style>
      .st0 {
        fill: #6f7c97;
      }
    </style>
  </defs>
  <path class="st0" d="M279.35,510.33c-5.38-15.86-12.29-31.27-16.53-47.71C197.91,210.88,470.26,8.27,691.64,145.15c122.24,75.58,169.33,234.38,107.79,365.18h200.08c.44,0,7.11,2.28,8.25,2.76,11.62,4.88,16.56,15.19,18.11,27.17v456.55c-1.44,12.01-8.63,23.53-20.59,27.14-306.74,3.68-614.18.45-921.18,1.62-14.59.41-28.59-11.73-29.99-26.3l.06-462.64c1.37-7.93,5.22-15.28,11.85-19.97,1.91-1.35,11.68-6.34,13.24-6.34h200.08ZM659.44,193.9c-139.46-85.58-320.17-.74-345.49,159.52-27.56,174.47,148.53,313.57,312.55,246.47,172-70.37,191.88-308.44,32.94-405.98ZM366.24,616.79c-18.05-14.26-34.24-30.58-49.56-47.73H112.93v154.19h854.16v-154.19h-203.75c-15.35,17.15-31.84,33.06-49.56,47.73h149.91c.75,0,9.5,4.22,10.81,5.1,14.22,9.56,16.32,29.13,6.24,42.54-6.86,9.12-17.31,10.24-28,11.16l-630.26-.08c-28.38-.78-41.76-35.91-17.69-53.13,1.15-.82,9.74-5.58,10.32-5.58h151.13ZM967.09,780.77H113.54v186.01h853.55v-186.01Z"/>
  <path class="st0" d="M204.71,162.79h25.09c1.81,0,9.98,5.06,11.67,6.69,9.59,9.24,12.27,22.72,6.68,34.91-9.55,20.83-36.24,43.89-47.71,64.87-13.09,14.62-30.04,16.67-45.33,3.7-13.87-21.09-33.44-40.99-46.86-62.05-8.11-12.73-10.08-29.5,1.63-40.77,1.71-1.65,11.7-7.35,13.45-7.35h23.86l-.76-76.27c-.9-35.51,47.13-45.41,57.99-10.94l.28,87.21Z"/>
  <path class="st0" d="M932.82,162.79h22.64c.6,0,9.91,4.13,11.02,4.89,11.26,7.68,14.04,24.75,8.56,36.71-9.92,21.64-38.02,46.26-49.98,68.11-15.81,12.54-31.88,11.91-45.49-3.23-11.97-21.05-36.86-43.1-47.32-64.04-6.2-12.39-3.89-28.35,7.67-36.83,1.92-1.41,9.84-5.61,11.52-5.61h22.64l.55-84.49c6.78-31.43,50.55-31.24,57.9-.27l.29,84.76Z"/>
  <path class="st0" d="M560.37,246.44c6.47,6.38,6.01,14.85,8.37,17.94.75.99,8.62,2.72,11.56,4.35,27.91,15.5,13.28,59.4-19.81,54.07-11.3-1.82-28.06-14.61-36.64,1.89-5.34,10.27-.75,13.63,7.72,18.47,22.18,12.67,50.01,15.87,69.04,33.76,36.66,34.45,28.83,95.32-10.76,123.91-4.34,3.13-18.61,9.35-20.47,11.35-1.7,1.82-2.7,9.46-5.1,13.26-11.51,18.24-37.76,17.3-49.31-.47-1.93-2.96-2.15-7.76-5.06-9.62-2.53-1.61-9.51-2.25-13.37-3.76-12.92-5.05-34.96-15.72-37.98-30.55-5.1-25,17.62-43.37,41.06-33.72,17.21,7.09,19.18,14.13,42.23,11.63,22.1-2.4,35.13-31.38,12.72-43.33-21.31-11.36-44.86-14.9-65.88-30.79-36.95-27.93-30.92-89.49,6.86-114.13,4.1-2.67,12.18-5.14,14.52-7.5s3.01-7.55,4.92-10.98c9.01-16.15,32.52-18.44,45.37-5.76Z"/>
</svg>