<?xml version="1.0" encoding="UTF-8"?>
<svg id="Layer_1" data-name="Layer 1" xmlns="http://www.w3.org/2000/svg" viewBox="0 0 1080 1080">
  <defs>
    <style>
      .cls-1 {
        fill: #8797c2;
      }
    </style>
  </defs>
  <path class="cls-1" d="M751.85,127.01c.06.32-.05.67,0,1v126.01c14.31.02,28.68-.05,43,0,.33,0,.67,0,1,0,17.32.05,34.69-.15,52,0,.33,0,.67,0,1,0,26.63.26,56.08-4.66,63.92,28.58l.08,463.42c.01.73.35.88,1,1,3.74.71,9.33-.38,13.49.01,9.03.85,20.53,3.41,25.3,11.7l.21,146.29c-3.92,3.37-5.4,10.22-8,14-6.71,9.75-32.57,34.19-44,36-.32.05-.67-.03-1,0-15.3,1.51-35.11-.08-51,0-.33,0-.67,0-1,0-17.32.08-34.68-.03-52,0-.33,0-.67,0-1,0-17.32.03-34.68-.02-52,0-.33,0-.67,0-1,0-17.32.02-34.68-.01-52,0-.33,0-.67,0-1,0-17.32.01-34.68,0-52,0-.33,0-.67,0-1,0-16.98,0-34.02,0-51,0-.33,0-.67,0-1,0-17.32,0-34.68,0-52,0h-1c-17.32,0-34.68,0-52,0-.33,0-.67,0-1,0-17.32,0-34.68.01-52,0-.33,0-.67,0-1,0-16.98-.01-34.02.01-51,0-.33,0-.67,0-1,0-17.32-.01-34.68.02-52,0-.33,0-.67,0-1,0-17.32-.02-34.68.03-52,0-.33,0-.67,0-1,0-17.32-.03-34.68.08-52,0-.33,0-.67,0-1,0-16.17-.08-36.43,1.55-52,0-.33-.03-.68.05-1,0-12.8-2.07-36.69-25.23-44-36-2.31-3.4-3.83-8.83-7-12-2.3-49.24-.39-99.03-.97-148.47.87-4.63,16.42-11.53,20.47-11.53h19.5v-466.5c0-6,8.54-14.28,12-18.5.25-.31.9-.54,1-1,15.46-10.03,34.23-6.83,52-7,.33,0,.67,0,1,0,17.31-.15,34.68.05,52,0,.33,0,.67,0,1,0,13.65-.04,27.35.03,41.01,0,.02-6.99-.04-14.02,0-21.01,0-.33,0-.67,0-1,.07-16.98-.1-34.02,0-51,0-.33,0-.67,0-1,.09-15.24-1.89-37.87,1-52,.07-.32-.08-.69,0-1,1-3.93,6.39-15.19,10.53-15.97l49.75.2,36.24,19.73,35.19-19.75c18.47.2,37.49-1.49,55.69.89l33.08,18.86,36.24-19.73,54.22.33,33.77,19.29c4.96.8,29.98-18.8,38.75-19.87,14.85-1.82,33.55,1.23,48.82.23,3.12.92,9.13,12.79,9.71,15.79ZM458.85,181.01c-7.78,1.07-28.96,16.97-38.64,20.86-21.06,8.45-23.66-.6-40.36-5.86-.22-.07-.37-1.71-1.49-1l-.51,1v349l.5.98c.62.01.45-.96.5-.98,5.63-1.9,9.82-5.76,15.03-7.47,10.97-3.6,19.75-2.17,29.97,2.47.64.29,1.34.68,2,1,4.3,2.11,9.59,5.52,14,8,.64.36,1.63,1.23,3,2,4.72,2.66,21.55,14.05,25.5,14.06,4.26,0,20.6-11.31,25.5-14.06,1.38-.77,2.36-1.65,3-2,9.19-5.12,23.59-14,34-14,.33,0,.67-.01,1,0,12.74.53,39.33,18.37,52,25,.34.18.63.81,1,1,3.45,1.75,6.6,5.46,11.04,3.56,20.41-9.29,44.43-33.57,68.01-28.11,6.64,1.54,11.87,5.78,17.95,8.55.14.06,1.02,2.6,2,0V196.01l-1-1c-16.48,10.31-27.7,13.63-46,5-.33-.16-.63-.82-1-1-7.16-3.56-27.33-17.22-33-18-5.89-6.05-11.8-8.05-18-1-7.74-.11-35.48,24.3-53,25-.33.01-.67,0-1,0-14.94-.2-39.94-17.39-54-25-1.98-1.07-5.15-4.93-8.5-4.93-2.14,0-8.49,3.59-9.5,5.93ZM266.85,323.01c-16.65-.05-33.35.04-50,0v424c16.65.03,33.35-.04,50,0,.33,0,.67,0,1,0,17.32.04,34.68-.05,52,0,.33,0,.67,0,1,0,17.32.05,34.68-.13,52,0,.33,0,.67,0,1,0,16.08.13,36.66-2.54,51,5,.33.17.62.77,1,1,3.59,2.18,5.42,3.67,8,7,.62.8,1.88,1.8,2,2,5.84,9.54,7.86,24.72,12.61,35.06l163.75-.2c6.18-10.37,6.95-24.51,13.64-34.86.45-.69.78-1.71,1-2,.75-.96,7.97-7.38,9-8,.45-.27,1.44-.73,2-1,13.4-6.3,35.94-3.87,51-4,.33,0,.67,0,1,0,17.32-.13,34.68.05,52,0,.33,0,.67,0,1,0,17.32-.05,34.68.04,52,0,.33,0,.67,0,1,0,16.32-.04,32.68.03,49,0v-424c-16.32.03-32.68-.04-49,0-.33,0-.67,0-1,0-14.32.04-28.68-.03-43,0v289.5c0,7.47-10.34,18.76-16.7,22.3-16.65,9.26-29.09,3.28-44.3-4.8-.67-.35-1.36-.66-2-1-.3-.16-1.01-1.52-2.26-2.2-10.36-5.64-20.43-11.87-31.15-16.82-21.47,8.01-46.72,33.75-70.59,29.01-.32-.06-.68.07-1,0l-51-28-2-1c-18.63,6.1-42.39,29.3-61.78,29.72-12.69.28-31.64-12.39-43.22-18.72-.34-.19-.63-.8-1-1-4.04-2.19-16.84-10.54-20.26-9.85l-45.36,25.73c-26.69,10.67-48.78-4.57-50.38-32.88-.02-.33.01-.67,0-1-.76-16.97.08-34.9,0-52,0-.33,0-.67,0-1-.08-17.32.04-34.68,0-52,0-.33,0-.67,0-1-.04-16.98.01-34.02,0-51,0-.33,0-.67,0-1-.01-17.32.02-34.68,0-52,0-.33,0-.67,0-1-.02-17.32.12-34.69,0-52,0-.33,0-.67,0-1-.04-4.99.03-10.02,0-15.01-13.65-.02-27.35.05-41.01,0-.33,0-.67,0-1,0ZM167.85,817.01c.86,14.86-1.13,30.9-.07,45.62.13,1.87,1,2.88,1.07,3.38.05.33-.06.68,0,1,3.32,18.55,17.28,27.78,35.46,29.04h652.09c18.16-.27,32.75-11.11,36.45-29.04.07-.32-.05-.68,0-1,.09-.58.93-1.49,1.07-3.38,1.14-14.63-1-30.82-.07-45.62l-1-1-213.34-.05c-8.55,20.2-9.38,44.26-35.66,49.05-1.21.22-3.29-.64-4,1-72.18-.96-145.82-.98-218,0-.71-1.62-2.76-.81-4-1-26.42-4.03-27.75-28.58-35.61-49.06l-213.39.06-1,1Z"/>
  <path class="cls-1" d="M652.85,285.01c.05.32-.04.67,0,1,1.04,9.31-1.99,20.26-8.03,27.47-1.79,2.13-7.61,6.03-7.97,7.53h-1l-12.46,4.04c-59.8-3.59-124.91,4.63-184.09,0-4.77-.37-9.24-1.8-13.46-4.04-.26-.14-.76.14-1,0-11.38-6.71-17.41-22.18-16-35,.04-.33-.05-.68,0-1,2.22-14.07,15.58-26.26,29.61-27.89,59.28,3.03,123.19-4.4,181.94-.15,15.24,1.1,29.96,12.5,32.46,28.04Z"/>
  <path class="cls-1" d="M635.85,360.01c.33.17.62.77,1,1,10.6,6.29,16.17,17.77,16,30,0,.33.02.67,0,1-.73,11.08-6.44,21.33-16,27-.55.32-.86.93-1,1-2.63,1.36-9.57,3.69-12.49,4.01-9.4,1.02-45.76,1.12-53.73-1.29-13.44-4.06-22.91-16.81-23.78-30.72-.02-.33,0-.67,0-1-.18-14.64,8.93-28.91,23.03-33.47,8.46-2.74,43.42-2.5,53.52-1.57,3.63.33,10.26,2.39,13.46,4.04Z"/>
  <path class="cls-1" d="M515.85,391.01c0,.33.02.67,0,1-.96,13.07-11.07,26.86-23.78,30.72-7.91,2.4-44.36,2.31-53.73,1.29-3.04-.33-9.72-2.63-12.49-4.01-.27-.13-.75.14-1,0-20.91-11.48-20.87-48.54,0-60,.25-.14.73.13,1,0,3.33-1.66,9.72-3.7,13.46-4.04,10.1-.93,45.05-1.17,53.52,1.57,13.88,4.49,23.23,18.96,23.03,33.47Z"/>
</svg>