<?xml version="1.0" encoding="UTF-8"?>
<svg id="Layer_1" data-name="Layer 1" xmlns="http://www.w3.org/2000/svg" viewBox="0 0 1080 1080">
  <defs>
    <style>
      .cls-1 {
        fill: #8797c2;
      }
    </style>
  </defs>
  <path class="cls-1" d="M819.03,189.8h172.33c3.36,0,20.19,12.01,23.21,15.88,3.62,4.66,9.79,19.14,9.79,24.39v584.51c17.79-.75,39.99.06,50.83,16.37l.57,177.71c-9.41,32.56-36.49,55.91-65.44,71.34l-948.41-1.27c-26.86-14.36-48.97-34.71-61.65-62.91l-.26-183.08c1.96-16.17,35.64-19.83,49.05-18.14l-.02-584.53c1.79-12.43,7.22-23.99,17.28-31.56,1.8-1.35,14.83-8.7,15.73-8.7h168.67l3.67-3.66V29.94c0-3.48,9.32-21.34,13.91-22.72,6.45-1.94,60.04-1.26,66.62.89,9.8,3.2,33.18,23.29,42.91,23.29,15.31-3.13,34.45-22.78,48.77-24.76,10.13-1.4,54.07-1.54,63.56.22,11.38,2.12,36.31,24.54,46.55,24.54,15.31-3.13,34.45-22.78,48.77-24.76,10.13-1.4,54.08-1.54,63.56.22,13.15,2.45,31.99,22.7,46.6,24.49,9.92-.17,34.84-22.32,46.5-24.49,9.08-1.69,48.95-1.53,58.68-.23,8.7,1.16,18.21,16.51,18.21,23.31v159.86ZM731.04,116.58c-15.02,2.54-21.99,13.44-39.62,11.68-19.43-1.94-66.19-38.85-76.1-37.97-22.4,7.69-57.42,39.6-80.71,38.35-21.83-1.16-54.86-30.7-76.53-38.35-26.23,7.29-59.07,42.23-86.44,37.45-10.55-1.84-18.97-9.8-29.26-11.16v441.74c21.61-8.42,31.47-17.8,55.43-7.75,10.87,4.55,54.02,34.18,60.67,33.75,22.63-10.17,58.24-40.93,83.17-38.27,20.3,2.16,53.57,29.92,73.3,38.27,27.07-9.25,60.06-43.25,89.36-37.11,9.51,1.99,17.12,9.56,26.74,11.11V116.58ZM254.37,277.66h-117.33v536.92h248.11c.84,0,13.57,5.25,15.65,6.34,23.68,12.36,20.92,37.44,33.57,56.78l200.25.47c13.13-1.51,14.35-26.11,19.43-36.74,6.25-13.09,21.53-26.85,36.66-26.85h243.22l-1.22-536.92h-113.67v367.3c0,4.08-10.42,19.87-14.14,23.19-36.53,32.56-74.84-12.89-109.3-26.84-24.42,9.32-59.2,42.55-85.38,38.9-16.84-2.35-65.53-38.89-73.08-38.46-22.16,6.85-56.71,38.81-78.65,38.8-22.91-.01-58.15-30.71-80.24-38.8-33.25,13.01-75.72,60.59-110.83,25.58-2.65-2.64-13.05-22.21-13.05-24.8v-364.86ZM349.7,904.88H75.93v64.67c0,9.29,23.29,34.31,35.39,33l856.9-1.21c11.02-1.83,29.26-21.52,29.26-31.8v-64.67h-273.78c-5.59,31.59-13.65,58.4-50.01,61.12-91.06,6.81-191.1-4.82-283.07-.69-28.41-6.49-35.44-35.43-40.92-60.43Z"/>
  <path class="cls-1" d="M415.07,192.82h243.27c25.56,6.71,38.36,30.36,33.02,56.21-2.4,11.63-20.61,29.06-32.59,30.91-13.56,2.09-40.42,1.45-55.65,1.68-64.15.95-128.77-2.96-193.01-2.03-41.14-16.6-38.47-75.36,4.96-86.76Z"/>
  <path class="cls-1" d="M593.52,317.29c13.2-2.08,44.32-1.93,57.8-.32,55.53,6.65,55.11,85.03-2.07,90.13-16.49,1.47-54.85,1.81-68.96-4.56-39.4-17.78-31.39-78.21,13.24-85.25Z"/>
  <path class="cls-1" d="M505.3,393.95c-17.63,16.3-60.37,15.66-83.49,13.06-52.36-5.88-55.21-80.15-3.79-89.21,16.05-2.83,56.26-3,70.97,2.61,29.3,11.17,40.27,51.38,16.31,73.54Z"/>
</svg>