<?xml version="1.0" encoding="UTF-8"?>
<svg id="Layer_1" data-name="Layer 1" xmlns="http://www.w3.org/2000/svg" viewBox="0 0 1080 1080">
  <defs>
    <style>
      .cls-1 {
        fill: #8996c2;
      }

      .cls-2 {
        fill: #8797c2;
      }
    </style>
  </defs>
  <path class="cls-2" d="M394.39,24.26l518.34-.48c39.18,15.72,66.02,56.16,69.95,98.23v833.99c-3.44,42.42-28.36,79.43-66.07,98.58-173.16,2.94-347.06,1-520.48.98-38.73-17.4-65.5-57.14-68.63-99.56-3.49-47.35,3.47-98.59-.8-146.14-1.42-2.92-31.47-19.68-35-19.16-21.57,8.05-53.2,37.26-76.09,36.41-22.89-.85-53.02-28.64-74.81-36.6-33.51,12.14-69.67,55.89-105.2,25.41-7.62-6.54-13.67-19.92-13.93-29.96-.08-3.03,1.52-6.66,1.49-10.53-1.29-161.45-1.78-322.2,0-483.48.18-16.03-3.08-44.91,3.15-58.64s23.44-23.88,38.28-23.64c21.44.35,68.12,38.48,77.59,36.95,20.66-8.83,52.33-36.86,74.56-36.71,22.26.15,53.94,28.19,74.99,36.73,7.59-3.2,34.45-14.84,35.82-21.92,2-33.45-2.53-69.6-.03-102.71,3.11-41.21,30.51-79.62,66.89-97.75ZM410.77,809v54h488.63V123.86c0-4.1-8.72-16.49-12.47-19.36-8.77-6.73-18.23-8.75-29.08-9.91-96.7-.77-193.47.75-290.11,1.17-36.92.16-75.02-3.65-111.91-1.18-25.33,1.7-42.34,10.79-45.06,38.15-1.91,19.22-2.59,71.93-.1,90.36.3,2.22.29,3.39,1.72,5.36,1.3,1.79,32.32,18.52,34.25,18.23,32.53-14.56,80.34-60.52,109.69-17.01,2.79,4.13,5.26,8.23,6.25,13.22l.49,543.15c-.89,14.82-8.23,28.06-21.42,35.23-32.82,17.84-65.27-20.29-94.77-30.89-7.28-.78-28.42,14.76-36.12,18.61ZM479.82,324.8c-8.63,2.99-15.31,9.78-24.7,11.58-30.99,5.95-58.36-25.75-85.95-34.71-30.12,9.97-58.74,45.93-92.93,32.84l-59.46-32.72c-9.18-.62-51.4,32.19-67.56,34.97-17.76,3.05-28.36-3.91-42.96-11.97v385.94c8.77-1.21,15.36-8.68,24.32-10.2,6.47-1.1,13.87-.52,20.42-.02l65.9,34.88c29.87-10.11,59.27-46.01,92.94-32.62,11.76,4.68,51.68,32.62,59.31,32.62,28.41-9.33,56.16-41.23,87.73-34.49,7.84,1.67,15.16,9.04,22.92,11.61v-387.71ZM899.4,946.2h-488.63c3.77,45.68,46.81,38.84,80.63,39.02,111.26.59,223.22.56,334.53-1.84,14.42-.31,28.21,2.61,44.11-.15,16.39-2.84,29.64-20.48,29.36-37.03Z"/>
  <path class="cls-1" d="M728.72,143.23c26.7,21.28,14.37,67.66-18.29,73.16-16.66,2.8-94.02,2.8-110.69,0-43.12-7.23-43.61-75.05,0-82.37,19.01-3.19,87.44-2.69,107.58-.43,7.73.87,15.42,4.87,21.41,9.64Z"/>
  <path class="cls-1" d="M427.51,474.3c-7.12,6.62-13.1,9.05-22.87,9.89-72.18,6.24-153.39-4.67-226.52-.22-47.56-9.75-44.75-74.87,1.77-82.9h226.31c35.42,7.77,49.15,47.35,21.31,73.23Z"/>
  <path class="cls-1" d="M321.04,536.02c15.19-17.84,58.19-16.84,79.98-14.69,54.52,5.38,52.74,76.76,6.68,84.54-11.67,1.97-59.37,1.69-69.49-2.25-26.13-10.18-35.6-45.95-17.17-67.59Z"/>
  <path class="cls-1" d="M180.16,521.73c13.11-2.04,53.73-1.61,65.99,2.2,36.93,11.48,37.43,66.88.32,80.04-10.5,3.72-52.58,3.67-64.97,2.32-48.63-5.28-50.83-76.85-1.33-84.56Z"/>
</svg>