<?xml version="1.0" encoding="UTF-8"?>
<svg id="Layer_1" xmlns="http://www.w3.org/2000/svg" version="1.1" viewBox="0 0 1080 1080">
  <!-- Generator: Adobe Illustrator 29.7.1, SVG Export Plug-In . SVG Version: 2.1.1 Build 8)  -->
  <defs>
    <style>
      .st0 {
        fill: #6f7c97;
      }
    </style>
  </defs>
  <path class="st0" d="M919.27,76.23c20.42,19.97,30.93,43.88,32.67,72.74v795.35c-3.3,54.69-42.53,95.77-96.4,103.42l-420.73.02c-50.01-6.05-90.37-43.96-96.38-94.44l.1-148.97c.23-1.85-.61-2.27-1.67-3.33-2.93-2.94-12.74-6.85-16.78-9.23-1.99-1.18-3.68-2.65-6.64-4.3-3.71-2.07-17.37-10.73-20.36-10.54-4.89,1.85-9.5,4.49-14.07,6.97-14.33,7.77-44.67,29.42-59.21,29.71-12.04.24-26.9-10.37-37.24-16.16-5.64-3.15-33.66-20.78-37.34-20.53-16.38,7.32-31.22,17.52-46.86,26.14-8.62,4.75-17,10.69-27.25,10.72-16.33.05-29.71-14.15-29.41-30.33V269.85c-.84-20.39,16.91-35.56,37.08-31,7.03,1.59,15.94,8.67,21.99,11.98,14.78,8.07,29.45,16.36,44.37,24.16,1.89.06,15.46-7.6,18.38-9.2,12.7-6.95,25.59-16.14,38.38-22.56,19.26-9.67,31.44-3.67,47.45,8.14l43.15,23.6h2.01s43.79-25.22,43.79-25.22l.17-110.73c6.1-50.08,46.99-89.04,97.35-93.47h418.7c25.85,2.91,46.46,12.79,64.75,30.67ZM397.41,800.91v69.94h494.54l1.05-5.45V151.97c-1.9-24.89-16.54-41.48-40.56-47.37l-414.62-.1c-20.96,4.26-38.27,19.62-40.45,41.48l.17,105.31,43.48,23.91c15.3-7.67,30.16-16.2,45.2-24.38,3.9-2.12,8.56-6.15,12.83-8.15,24.64-11.49,45.4,1.22,46.27,28.19v510.61c-.72,24.58-20.84,38.84-43.88,28.81-16.59-7.22-34.23-20.77-50.76-29.17-2.89-1.47-5.91-2.86-8.88-4.18l-44.39,23.98ZM486.33,731.97v-411.12l-2.34-1.37c-13.73,6.4-30.3,21.71-46.04,19.76-16.18-2-49.3-27.86-66.47-35.42-1.78-.78-3.36-1.88-5.47-1.47l-59.13,33.87c-9.71,4.15-17.05,4-26.76,0l-60.02-33.95c-4.43-.05-17.99,9.87-22.64,12.44-3.09,1.71-6.56,2.78-9.55,4.44-17.39,9.69-34.09,25.89-54.97,17.38-9.07-3.7-20.78-13.98-29.3-16.68-1.23-.39-1.43-.94-2.5.46l-.47,411.65c1.7.17,3.16-.06,4.73-.76,16.6-7.35,30.33-24.73,51.1-16.62l62.71,35.14c3.2.28,48.49-27.67,56.05-31.48,9.98-5.04,17.72-7.7,29.1-3.65l62.72,35.13,40.48-21.86c13.77-7.62,21.97-16.78,39.28-14.88,10.12,1.11,25.13,13.99,34.72,18.23,1.58.7,3.03.93,4.74.76ZM397.41,929.79v19.48c0,18.21,25.56,39.38,43.47,39.45l406.65.04c21.98-2.7,39.73-16.52,44.17-38.75.66-3.32,3.1-20.23-1.25-20.23h-493.04Z"/>
  <path class="st0" d="M421,433.62c13.21,16.75,3.77,44.91-18.05,48.62h-218.89c-34.19-8.01-31.98-55.13,3.01-60.02l211.83.04c8.35,1.14,16.77,4.59,22.1,11.36Z"/>
  <path class="st0" d="M418.09,591.79c-2.87,2.61-10.56,6.25-14.44,7.04-8.88,1.83-45.81,1.32-55.7.27-33.28-3.56-33.89-53.97.07-58.89,9.73-1.41,42.92-1.29,52.92-.09,24.54,2.95,34.75,35.66,17.15,51.67Z"/>
  <path class="st0" d="M256.19,590.76c-3.21,3.46-11.56,7.67-16.19,8.28-10.6,1.4-32.36.95-43.74.68-9.64-.23-20.54-1.14-27.58-8.16-17.07-17-8.18-47.22,15.66-51.17,9.42-1.56,44.79-1.39,54.47,0,23.93,3.44,33.29,33.22,17.37,50.37Z"/>
  <rect class="st0" x="570.44" y="160.6" width="148.78" height="62.14" rx="31.07" ry="31.07"/>
</svg>