<?xml version="1.0" encoding="UTF-8"?>
<svg id="Layer_1" data-name="Layer 1" xmlns="http://www.w3.org/2000/svg" viewBox="0 0 1080 1080">
  <defs>
    <style>
      .cls-1 {
        fill: #6f7c97;
      }
    </style>
  </defs>
  <path class="cls-1" d="M455.22,109.29c.27.11.36,1.15,1.15,1.51,31.97,14.42,41.35,39.16,57.81,68.38,74.17,131.66,145.96,268.71,222.05,400.09.69,1.2.52,2.86,1.21,4.08,13.71.46,26.49-2.61,40.38-1.93,165.16,8.12,260.96,188.93,169.26,328.99-78.81,120.37-258.16,125.49-344.6,9.97-39.05-52.19-52.28-119.95-35.01-183.05l-404.17.04c-57.29.18-97.84-56.1-75.79-110.86L358.07,139.27c21.02-31.34,61.57-44.4,97.15-29.98ZM441.18,162.26c-12.53-9.71-30.65-6.26-38.9,6.72-88.89,161.21-179.71,321.2-267.35,482.97-2.75,17.3,9.28,31.06,26.37,32.45,31.42,2.55,68.94-.73,101.12-.66,108.41.23,217,.99,325.51.6,1.75-.3,3-1.66,4.08-2.93,6.16-7.24,11.28-17.17,17.91-25.03,17.09-20.27,39.74-38.47,63.65-50.04l11.78-5.91c.58-3.72-2.71-6.58-3.86-8.82-4-7.79-8.01-15.66-12.21-23.32-59.79-108.95-120.56-216.24-181.12-324.61-12.99-23.25-25.53-50.96-39.93-72.97-1.66-2.54-4.72-6.64-7.05-8.44ZM853.82,657.81c-82.8-50.47-191.69-14.18-228.39,74.02-54.68,131.39,77.9,262.19,208.49,206.5,116.92-49.86,128.56-214.28,19.9-280.51Z"/>
  <path class="cls-1" d="M441.21,320.09c5.84,4.38,9.67,12.94,10.36,20.1,3.28,34.03-2.35,73.22-.1,107.79-1.06,9.54-7.52,19.74-16.68,23.29-7.48,2.89-13.56,2.54-20.89-.5-6.59-2.73-14.42-11.79-15.15-18.82-3.82-36.75,2.4-79.33-.04-116.68,4.33-18.83,26.84-26.95,42.5-15.19Z"/>
  <path class="cls-1" d="M441.19,530.91c11.95,8.82,13.4,27.41,3.83,38.49-14.88,17.22-44.36,8.45-46.71-14.09-2.44-23.43,23.78-38.51,42.88-24.4Z"/>
  <path class="cls-1" d="M853.71,766.29c30.59,4.45,32.73,52.38-6.16,53.57-26.76.82-53.95-1.8-80.78-.59-13.42-2.64-21.24-13.16-22.44-26.52-1.78-19.85-1.78-58.98.11-78.78,2.23-23.33,25.41-35.24,44.56-19.9,10.57,8.47,8.56,28.17,8.7,40.75.12,10.41-.99,21.02-.44,31.47h56.45Z"/>
</svg>