<?xml version="1.0" encoding="UTF-8"?>
<svg id="Layer_1" data-name="Layer 1" xmlns="http://www.w3.org/2000/svg" viewBox="0 0 1080 1080">
  <defs>
    <style>
      .cls-1 {
        fill: #8797c2;
      }
    </style>
  </defs>
  <path class="cls-1" d="M797.61,804.7l118.28,206.65c9.05,13.77,1.99,48.04-15.05,50.11l-727.77-.72c-15.33-9.48-18.07-28.3-14.02-44.97l121.89-211.07h-121.81c-10.15,0-29.45-18.9-32.2-29.32l.54-758.7C130.89,9.96,133.6-.32,142.9.01h787.38c16.51-.86,21.68,20.09,22.69,33.48l.02,727.21c1.62,16.95-19.69,43.99-36.25,43.99h-119.13ZM404.08,75.02h-192.75v641.48h119.13l174.12-299.25c27.89-25.56,54.21-18.82,74.64,10.8,55.84,80.96,109.24,188.94,159.98,275.95,2.27,3.9,4.46,7.89,4.87,12.5h120.47V75.02h-190.07l-1.27,208.58c-34.28,62.62-91.93-2.08-136.42-13.45-34.18,12.58-87.68,65.19-120.73,26.8-3.9-4.53-11.97-20.52-11.97-25.47V75.02ZM588.8,75.02h-96.37v117.6c11.52-1.27,21.48-12.04,32.04-14.78,25.78-6.69,42.65,7.61,64.33,17.45v-120.28ZM800.29,986.45l-259.72-451.71-262.31,451.71h522.03Z"/>
  <path class="cls-1" d="M502.84,839.14c-.46-9.62-6.59-14.57-7.74-25.09-2.93-26.95-3.64-112.9.64-138.34,7.18-42.67,70.27-45.76,84.31-5.27,6.43,18.56,5.53,112.13,3.49,135.7-.89,10.35-2.81,22.09-10.76,29.31,79.87,46.29,30.79,166.57-58.4,138.44-60.98-19.23-69.58-106.55-11.54-134.74ZM537.04,890.82c-14,1.13-14.72,25.87,2.3,25.05,17.38-.84,14.02-26.36-2.3-25.05Z"/>
</svg>