<?xml version="1.0" encoding="UTF-8"?>
<svg id="Layer_1" data-name="Layer 1" xmlns="http://www.w3.org/2000/svg" viewBox="0 0 1080 1080">
  <defs>
    <style>
      .cls-1 {
        fill: #08624c;
      }
    </style>
  </defs>
  <path class="cls-1" d="M389.27,409.04c-20.83,3.08-18.73,28.48-28.99,40.37-5.32,6.16-12.7,9.92-20.26,12.52l-159.97,1.22c-29.87-6.94-29.91-48.07.03-53.98l138.36-2.61c13.24-31.31,40.42-50.72,74.57-53.07h440.21c47.17,3.42,80.88,38.78,80.01,86.43-17.21,114.1-35.63,228-54.08,341.89-9.98,61.63-6.29,137.3-86.54,146.76l-446.44.07c-53.03-6.41-82.39-46.06-76.09-98.88,5.38-45.09,19.1-94.71,22.42-139.06.12-1.66.38-6.76-1.77-6.76h-66.84c-.55,0-8.44-5.01-9.37-5.76-10.66-8.62-12.92-24.12-5.71-35.8,5.13-8.32,15.94-12.05,25.12-12.71,24.28-1.75,66.79-2.07,90.83.07,21.14,1.88,29.92,16.61,26.98,37.03l-28.84,179.22c.96,14.4,11.9,27.43,27.05,27.17h438.95c9.66-.41,17.76-6.16,21.88-14.71,25.12-136.34,43.25-274.44,66.67-411.28,4.34-17.78-4.44-37.11-24.23-38.19l-271.88.6-33.97,138.15c18.75-6.37,36.52-19.53,54.61-26.72,26.21-10.42,34.53,10.81,51.92,24.19,1.71-.99,1.57-2.66,2.11-4.21,9.7-27.47,12.12-62.23,22.45-89.78,11.47-30.6,57.33-21.69,52.68,14.86l-36.62,144.97c-9.39,17.31-28.26,21.86-43.78,9.22-14.9-12.13-26.64-29.78-42.21-41.02l-91.58,45.91c-20.38,8.04-41.58-6.75-38.94-28.86l46.64-187.27h-115.39Z"/>
  <path class="cls-1" d="M590.07,709.47c45.75,2.55,97.16-4.39,142.26-.34,13.46,1.21,24.62,10.8,25.85,24.59,2.54,28.49-2,60.69-.05,89.59-1.81,13.08-12.83,22.21-25.8,23.38-44.52,3.99-94.91-3.12-140.06-.02-12.23-2.59-22.88-10.26-24.56-23.36,2.68-28.55-3.86-64.26.11-91.95,1.65-11.54,11.55-19.2,22.25-21.89Z"/>
  <path class="cls-1" d="M499.61,217.35c-3.02-7.06-10.23-10.26-12.69-18.21-8.12-26.22,20.15-46.85,41.75-31.66,9.35,6.58,52.45,50.21,59.87,59.93,12.39,16.22,4.32,29.84-7.4,42.46-16.64,17.92-36.45,34.09-53.14,52.16-23.37,14.24-50.2-7.08-40.73-33.17,2.69-7.42,9.52-10.49,12.34-17.29h-129.26c-10,0-21.8-16.27-22.13-25.89-.37-10.77,10.5-28.34,22.13-28.34h129.26Z"/>
  <path class="cls-1" d="M827.49,217.35c1.6-1.41-8.61-10.19-9.89-12.18-16.25-25.46,13.51-54.16,38.95-37.68,16.87,20.22,42.55,38.47,58.6,58.68,9.29,11.71,10,26.25-.13,37.73-17.21,19.49-41.05,37.68-58.47,57.55-23.49,15.31-50.31-5.54-41.38-32.55,2.68-8.1,9.39-10.15,12.32-17.32h-129.26c-10.56,0-22.22-16.85-22.17-27.12s11.37-27.11,22.17-27.11h129.26Z"/>
  <path class="cls-1" d="M269.84,517.87c27.59-2.44,71.46-2.21,99.3-.43,14.63.94,28.26,4.33,33.01,19.95,5.05,16.6-5.92,31.36-21.79,35.52l-119.44-.21c-17.05-5.36-26.03-21.66-19.19-38.8,4.79-12,16.5-15,28.11-16.02Z"/>
  <path class="cls-1" d="M183.7,518.19c36.4-.53,36.94,51.56,3.8,54.79-36.84,3.59-40.53-54.25-3.8-54.79Z"/>
</svg>