<?xml version="1.0" encoding="UTF-8"?>
<svg id="Layer_1" data-name="Layer 1" xmlns="http://www.w3.org/2000/svg" viewBox="0 0 1080 1080">
  <defs>
    <style>
      .cls-1 {
        fill: #6f7c97;
      }
    </style>
  </defs>
  <path class="cls-1" d="M270.25,181.83c-22.92-2.97-31.88-32.14-13.53-47.52,8.79-7.37,18.85-5.19,29.56-5.39,75.59-1.38,154.06-1.74,229.75-.84,6.37.08,17.91.12,23.74,1.04,19.98,3.16,26.85,30.67,13.12,44.61-2.56,2.6-12.48,8.1-15.88,8.1h-17.48l.97,67.47c19.08,7.5,37.85,15.99,55.49,26.44,14.56,8.62,27.61,18.78,40.97,28.73,12.42-9.48,21.04-25.75,36.4-30.27,23.25-4.73,40.83,20.68,27.88,40.86-5.06,7.89-19.45,16.84-23.87,24.07-.82,1.33-1.26,2.26-.98,3.89,21.14,23.65,40.05,51.68,53.47,80.59,103.36,222.58-59.86,478.4-303.66,479.6-231.86,1.13-396.61-226.01-321.93-446.81,14.34-42.42,38.73-80.82,67.38-115.23-.15-1.86-22.8-21.71-25.93-26.77-8.3-13.42-2.97-31.44,11.14-38.19,24.45-11.7,37.17,16.04,53.47,28.26,9.34-6.81,18.44-14.21,28.15-20.56,21.25-13.89,43.92-25.15,67.85-34.06l1.46-3.53-.04-64.48c-5.53-.51-12.11.7-17.48,0ZM466.57,181.83h-125.88v51.95c41.69-5.61,84.48-7.54,125.88,1v-52.95ZM598.03,358.12c-148.98-138.14-390.36-80.96-460.9,108.21-82.96,222.44,128.5,442.71,353.58,370.56,198.59-63.66,263.59-314.53,119.13-467.13-3.42-3.62-8.16-8.26-11.81-11.64Z"/>
  <path class="cls-1" d="M955.48,856.83c16.65,13.74,11.29,37.52-8.12,45.07-84.09,1.94-169.02,2.37-253.04-.21-24.26-8.95-23.89-40.66-.22-50.23,84.12-2.04,169.12-2.15,253.21.05,3.94,1.14,5.54,3.16,8.16,5.32Z"/>
  <path class="cls-1" d="M958.55,750.86c15.62,17.19,4.28,40.37-16.98,44.35l-174.7-.02c-30.83-4.54-33.7-45.49-3.02-52.81l179.8-.09c6.21,1.23,10.71,3.96,14.9,8.57Z"/>
  <path class="cls-1" d="M958.51,677.77c-4.07,4.37-8.91,7.46-14.86,8.62l-131.84-.09c-28.68-9.07-26.96-46.04,2-52.83h128.76c20.9,4.63,31.51,27.58,15.95,44.3Z"/>
  <path class="cls-1" d="M527.12,379.04c52.43,34.43,89.04,92.92,97.42,154.84,3.27,24.15,9.43,54.98-23.56,58.6h-196.89c-12.67-.99-22.53-7.45-26-19.96-3.2-66.58-.39-133.7-1.48-200.42,2.24-26.45,16.73-30.54,40.55-29.47,36.84,1.65,79.25,16.23,109.97,36.4ZM431.1,539.5h139.87c.61,0,1.4-1.49,1.46-2.41.12-1.72-3.45-14.94-4.25-17.78-14.72-52.03-56.51-96.91-108.07-114.72-4.34-1.5-27.03-8.31-29.58-6.52l-.98,3.01c-.06,38.6.25,77.18.67,115.77.04,3.56-2.35,21.65.88,22.65Z"/>
</svg>