<?xml version="1.0" encoding="UTF-8"?>
<svg id="Layer_1" data-name="Layer 1" xmlns="http://www.w3.org/2000/svg" viewBox="0 0 1080 1080">
  <defs>
    <style>
      .cls-1 {
        fill: #6f7c97;
      }
    </style>
  </defs>
  <path class="cls-1" d="M102.39,654c-7.64-1.57-17.95-12.41-20.03-19.96-5.2-18.94,8.03-34.58,26.98-36.08,31.13-2.46,65.45,1.89,96.93.05,13.19.95,24.39,10.35,26.39,23.59-7.26,66.49-20.42,132.56-29.94,198.89,1.4,16.38,12.95,27.77,29.56,28.3,1.7.05,3.75-.88,5.95-.85,148.12,2.29,296.5-1.64,444.67.09,9.76-.96,17.7-7.5,21.99-15.99,24.56-141.77,45.19-284.53,68.26-426.68,2.63-21.7-9.2-33.99-30.3-35.41l-273.33.63-36.92,143.4,52.59-25.85c27.08-16.12,39.65,7.82,57.79,22.85.81-.18,4.67-13.8,5.2-15.8,6.85-25.65,11.24-54.62,19.41-79.58,7-21.4,34.39-28.32,48.84-10.12,7.5,9.45,6.59,17.32,4.51,28.51-8.78,47.09-26.02,95.09-35.7,142.26-5.34,13.45-15.52,20.19-30.23,18.71-17.65-1.78-39.79-35.34-54.44-46.5-1.37-1.05-2.59-2.41-4.51-2.41l-94.73,47.11c-21.78,7.74-41.33-7.87-38.64-30.68l46.71-187.28-.76-4.8-108.44-.47c-12.62.95-23.81,5.96-28.66,18.31-1.54,3.93-1.92,9.18-3.58,13.42-4.71,11.99-15.38,20.05-27.64,23.33-49.98.33-99.94.53-149.93.93-3.29.03-6.05,1.24-9.92,1.04-34.72-1.88-37.97-53.89,1.94-57.03,25.68-2.02,57.5-.63,83.94-1.05,17.21-.27,34.55.53,51.8-.08,1.57-.54,5.13-9.84,6.65-12.35,15.86-26.23,40.64-40.68,71.4-42.54l451.62.06c52.33,3.52,87.06,45.36,81.42,97.48-.71,6.53-2.91,13.58-3.85,20.15-19.27,134.89-43.32,269.56-63.35,404.59-8.57,39.58-40.7,66.67-81.16,68.76l-447.62.05c-54.05-1.42-91.12-43.49-85.26-97.42,5.12-47.09,16.7-95.16,22.72-142.26.25-1.98,1.95-11.36-.36-11.36h-67.94Z"/>
  <path class="cls-1" d="M483.96,813.55c-4.58-3.79-8.73-11.04-9.42-17.04-3.28-28.8,2.48-63.59-.03-93.03,2.5-14.05,14.18-23.86,28.51-24.26,36.59-1.04,76.03.48,112.85.84,23.15.23,52.31-5.5,55.48,26.46,2.78,28.08-2.08,60.47.04,89.02-2.56,12-10.82,22.47-23.5,24.48-39.9-.74-79.86,1-119.72.62-13.98-.13-33.43,1.84-44.21-7.08Z"/>
  <path class="cls-1" d="M740.8,174l1.01-2c-34.39-25.65-1.53-72.99,33.52-46.53,16.45,18.74,37.56,35.43,53.86,54.02,10.66,12.16,14.35,24.24,5.02,39.01-20.62,18.12-39.64,43.82-60.25,61.19-25.51,21.49-64.96-12.39-37.31-43.34,1.56-1.75,5.85-3.05,5.64-6.35h-131.38c-1.61,0-8.83-3.22-10.7-4.29-18.09-10.28-17.76-37.86.28-48.15,1.12-.64,7.88-3.56,8.43-3.56h131.88Z"/>
  <path class="cls-1" d="M274.23,230c-31.88-3.98-32.94-52.93.96-56.04l129.42.04c2.05-2.09-7.56-9.56-8.98-11.5-10.34-14.08-4.94-36.96,12.01-42.97,23.85-8.46,37.46,13.83,51.9,28,9.96,9.77,31.46,28.15,38.42,38.54,8.5,12.69,4.74,25.66-4.4,36.46-16.72,19.75-39.7,37.33-56.95,57-26.23,20.47-58.74-9.46-41.39-37.43l10.39-12.09h-131.38Z"/>
  <path class="cls-1" d="M299.28,529.57c-4.26,4.89-10.53,8.75-17.07,9.42-23.44,2.37-50.26.2-73.96-.03-4.31-.04-8.54.05-12.91,0-10.74-.12-33.19,2-41.82-2.14-24.41-11.69-20.33-47.66,6.06-53.58l123.56-.16c20.86,4.4,30.55,29.97,16.15,46.49Z"/>
  <path class="cls-1" d="M101.54,491.34c25.5,27.62-15.05,65.56-40.66,39.2-26.06-26.82,16.05-65.86,40.66-39.2Z"/>
</svg>