<?xml version="1.0" encoding="UTF-8"?>
<svg id="Layer_1" data-name="Layer 1" xmlns="http://www.w3.org/2000/svg" viewBox="0 0 1080 1080">
  <defs>
    <style>
      .cls-1 {
        fill: #8797c2;
      }
    </style>
  </defs>
  <path class="cls-1" d="M192.18,163.51c.33,0,.67,0,1,0,22.94-.53,46.04.11,69,0,.33,0,.67,0,1,0,22.65-.1,45.35.05,68,0,.33,0,.67,0,1,0,22.98-.05,46.02.03,69,0,.33,0,.67,0,1,0,22.65-.03,45.35.02,68,0,.33,0,.67,0,1,0,22.98-.02,46.02,0,69,0h1c22.65,0,45.35-.02,68,0,.33,0,.67,0,1,0,22.98.02,46.02-.03,69,0,.33,0,.67,0,1,0,22.65.03,45.35-.05,68,0,.33,0,.67,0,1,0,22.98.05,46.02-.11,69,0,.33,0,.67,0,1,0,22.62.11,45.39-.54,68,0,.33,0,.67,0,1,0,22.59.58,47.31,1.55,69,8,.31.09.7-.09,1,0,11.62,3.62,30.34,13.53,40,21,.47.36,1.15,1.3,2,2,19.94,16.33,40.57,43.07,48,68,.09.31-.09.69,0,1,6.07,21.34,6.54,45.86,7,68,0,.33,0,.67,0,1-2.06,138.57,2.75,277.46,0,416,0,.33,0,.67,0,1-.46,21.52-1.15,47.3-7,68-.09.31.09.69,0,1-3.29,11.04-14.77,31.8-22,41-.28.35-.7.64-1,1-17.02,20.87-41.03,39.91-67,48-.3.09-.69-.09-1,0-22.04,6.62-46.03,7.43-69,8-.33,0-.67,0-1,0-22.61.51-45.37-.11-68,0-.33,0-.67,0-1,0-22.98.1-46.02-.05-69,0-.33,0-.67,0-1,0-22.65.05-45.35-.03-68,0-.33,0-.67,0-1,0-22.98.03-46.02-.02-69,0-.33,0-.67,0-1,0-22.65.02-45.35,0-68,0h-1c-22.98,0-46.02.02-69,0-.33,0-.67,0-1,0-22.65-.02-45.35.03-68,0-.33,0-.67,0-1,0-22.98-.03-46.02.05-69,0-.33,0-.67,0-1,0-22.65-.05-45.35.1-68,0-.33,0-.67,0-1,0-22.96-.1-46.05.51-69,0-.33,0-.67,0-1,0-22.16-.53-46.6-1.03-68-7-.31-.09-.69.09-1,0-38.96-11.47-79.21-52.3-91-91-.09-.3.09-.69,0-1-6.2-21.26-7.38-45.85-8-68,0-.33,0-.67,0-1-.58-22.93.11-46.05,0-69,0-.33,0-.67,0-1-.11-22.65.05-45.35,0-68,0-.33,0-.67,0-1-.05-22.98,0-46.02,0-69,0-23.32-.05-46.68,0-70,.05-22.65-.1-45.35,0-68,0-.33,0-.67,0-1,.11-22.95-.56-46.06,0-69,0-.33,0-.67,0-1,.55-20.7,1.53-47.17,7-67,.11-.4.74-1.14,1-2,13.51-44.59,54.55-83.08,99.99-93.51,19.05-4.37,40.46-5,60.01-5.49ZM193.18,268.51c-.33.01-.67-.01-1,0-18.05.67-37.49-2.83-51.4,11.1-13.62,13.64-11.24,33.93-11.6,51.9,0,.33,0,.67,0,1-.42,22.96.08,46.03,0,69,0,.33,0,.67,0,1-.08,22.65.04,45.35,0,68,0,.33,0,.67,0,1-.04,22.65,0,45.35,0,68v1c0,22.98-.04,46.02,0,69,0,.33,0,.67,0,1,.04,22.65-.08,45.35,0,68,0,.33,0,.67,0,1,.08,22.97-.44,46.04,0,69,0,.33,0,.67,0,1,.36,17.36-1.74,37.84,11.51,50.99,15.4,15.3,36.55,9,55.95,12.05h690.1c21.15-2.76,41.95,2.87,56.28-16.72,8.29-11.33,7.74-32.34,8.17-46.33.01-.33,0-.67,0-1,4.02-140.27-3.05-281.2.05-421.55-2.39-18.58,1.79-34.64-13.52-48.48-13.96-12.62-32.11-9.31-49.53-9.97-.33-.01-.67.01-1,0-228.69-7.98-461.31,3.96-690.62-1.07-1.21-.61-3.12,1.06-3.38,1.07Z"/>
  <path class="cls-1" d="M609.18,386.51c.28.12.72-.13,1,0,25.12,11.45,52,35.38,68,58,.73,1.03,1.79,1.69,2,2,17.2,25.32,27.88,62.41,28,93,0,.33,0,.67,0,1-.21,22.78-5.73,48.24-15,69-.12.28.13.72,0,1-37.94,82.96-138.43,119.75-222,83-.28-.12-.72.12-1,0-6.96-3.14-18.64-9.71-25-14-.29-.19-.96-1.27-2-2-105.25-74.03-90.77-238.65,27-291,.28-.12.72.12,1,0,43.27-18.79,94.76-19.2,138,0ZM540.18,603.51c.33,0,.67,0,1,0,35.07-.94,61.59-27.98,62-63,0-.33,0-.67,0-1-.4-34.67-27.06-62.26-62-63-.33,0-.67,0-1,0-84.62.52-83.84,127.03,0,127Z"/>
  <path class="cls-1" d="M314.18,470.51c0,.33,0,.67,0,1,.27,22.64-.01,45.36,0,68,0,.33,0,.67,0,1,0,22.98.27,46.03,0,69,0,.33,0,.67,0,1-.27,21.43,2.45,38.33-12.49,56.01-29.43,34.85-86.04,17.27-91.55-27.48,3.58-64.23-4.64-133.43,0-197.08,3-41.24,54.26-61.53,85.51-34.43,21.06,18.27,18.2,37.69,18.53,62.97Z"/>
  <path class="cls-1" d="M845.18,402.51c.34.21.62.74,1,1,25.99,17.52,23.63,39.1,24,67,0,.33,0,.67,0,1,.27,22.64-.01,45.36,0,68,0,.33,0,.67,0,1-.01,22.97.29,46.03,0,69,0,.33,0,.67,0,1-.29,23.49,2.19,42.31-16.48,60.02-31.36,29.76-82.33,10.76-87.56-31.49l.05-199.03c1.36-13.59,11.95-28.87,22.99-36.51.55-.38,2.69-1.83,3-2,15.48-8.57,37.94-8.37,53,1Z"/>
</svg>