<svg width="14" height="14" viewBox="0 0 14 14" fill="none" xmlns="http://www.w3.org/2000/svg">
<path d="M13 13H2.06667C1.6933 13 1.50661 13 1.36401 12.9273C1.23856 12.8634 1.13658 12.7614 1.07266 12.636C1 12.4934 1 12.3067 1 11.9333V1M13 3.66667L9.37712 7.28954C9.24512 7.42155 9.17912 7.48755 9.10301 7.51228C9.03606 7.53403 8.96394 7.53403 8.89699 7.51228C8.82089 7.48755 8.75488 7.42155 8.62288 7.28954L7.37712 6.04379C7.24512 5.91178 7.17912 5.84578 7.10301 5.82105C7.03606 5.7993 6.96394 5.7993 6.89699 5.82105C6.82088 5.84578 6.75488 5.91178 6.62288 6.04379L3.66667 9M13 3.66667H10.3333M13 3.66667V6.33333" stroke="#6F7C97" stroke-width="1.5" stroke-linecap="round" stroke-linejoin="round"/>
</svg>
