<svg width="12" height="12" viewBox="0 0 12 12" fill="none" xmlns="http://www.w3.org/2000/svg">
<path d="M9.38333 4.83333C10.0367 4.83333 10.3634 4.83333 10.613 4.70617C10.8325 4.59432 11.011 4.41585 11.1228 4.19632C11.25 3.94676 11.25 3.62006 11.25 2.96667V2.61667C11.25 1.96327 11.25 1.63658 11.1228 1.38701C11.011 1.16749 10.8325 0.989012 10.613 0.877159C10.3634 0.75 10.0367 0.75 9.38333 0.75L2.61667 0.75C1.96327 0.75 1.63657 0.75 1.38701 0.877159C1.16749 0.989011 0.989011 1.16749 0.877159 1.38701C0.75 1.63657 0.75 1.96327 0.75 2.61667L0.75 2.96667C0.75 3.62006 0.75 3.94676 0.877159 4.19632C0.989011 4.41584 1.16749 4.59432 1.38701 4.70617C1.63657 4.83333 1.96327 4.83333 2.61667 4.83333L9.38333 4.83333Z" stroke="#6F7C97" stroke-linecap="round" stroke-linejoin="round"/>
<path d="M9.38333 11.25C10.0367 11.25 10.3634 11.25 10.613 11.1228C10.8325 11.011 11.011 10.8325 11.1228 10.613C11.25 10.3634 11.25 10.0367 11.25 9.38333V9.03333C11.25 8.37994 11.25 8.05324 11.1228 7.80368C11.011 7.58416 10.8325 7.40568 10.613 7.29383C10.3634 7.16667 10.0367 7.16667 9.38333 7.16667L2.61667 7.16667C1.96327 7.16667 1.63657 7.16667 1.38701 7.29383C1.16749 7.40568 0.989011 7.58415 0.877159 7.80368C0.75 8.05324 0.75 8.37994 0.75 9.03333L0.75 9.38333C0.75 10.0367 0.75 10.3634 0.877159 10.613C0.989011 10.8325 1.16749 11.011 1.38701 11.1228C1.63657 11.25 1.96327 11.25 2.61667 11.25H9.38333Z" stroke="#6F7C97" stroke-linecap="round" stroke-linejoin="round"/>
</svg>
