<?xml version="1.0" encoding="UTF-8"?>
<svg id="Layer_1" data-name="Layer 1" xmlns="http://www.w3.org/2000/svg" viewBox="0 0 1080 1080">
  <defs>
    <style>
      .cls-1 {
        fill: #8797c2;
      }
    </style>
  </defs>
  <path class="cls-1" d="M818.08,144.35c1.05,1.2,2.63,1.4,4,2,11.95,5.25,24.61,12.87,34,22,.64.63,1.38,1.36,2,2,5.09,5.31,15.16,19.62,18,26,.12.28-.12.72,0,1,4.34,10.18,6.5,22.51,8.04,33.46l-.02,327.02c7.05,9.03,16.4,16.65,23.98,25.52.71.83,1.54,1.45,2,2,3.8,4.54,7.75,10.37,11.22,15.28s8.66,15.43,11.78,18.72c.29.3.41.86,1,1,8.09,16.46,16.62,33.38,22,51,2.37,7.78,3.33,16.28,6,24-1.04,31.55-.56,65.35,0,97-1.38.63-.76,2.04-1,3-2.79,11.43-6.04,23.96-10,35-.11.3.11.71,0,1-8.09,22.16-25.87,52.88-41,71-.46.55-1.3,1.19-2,2-8.92,10.33-19.67,21.07-30,30-.82.7-1.44,1.52-2,2-4.8,4.07-14.11,8.88-18,13-.28.29-.89.5-1,1-16.62,9.64-33.89,20.33-52,27-.29.11-.71-.11-1,0-11.83,4.27-23.86,6.89-36,10-.78.2-1.62.04-2,1-31.65-.56-65.45-1.04-97,0-7.4-3.12-16.41-3.72-24-6-15.63-4.69-36.73-13.98-51-22-.12-.07-.38-.65-1-1-16.65-9.57-30.69-20.95-45.52-32.98l-270.48-.02c-.33-.03-.67.04-1,0-12.49-1.65-23.45-13.13-24.89-25.61-.63-5.44,0-11.8-.11-17.39,0-.33,0-.67,0-1-.31-16.97.07-34.03,0-51,0-.33,0-.67,0-1-.07-17.32.03-34.68,0-52,0-.33,0-.67,0-1-.03-17.32,0-34.68,0-52,0-.33,0-.67,0-1,0-17.32.01-34.68,0-52,0-.33,0-.67,0-1-.01-16.98.02-34.02,0-51,0-.33,0-.67,0-1-.02-17.31.16-34.69,0-52,0-.33,0-.67,0-1-.05-4.32.03-8.68,0-13.01-8.99-.01-18.02.03-27.01,0-.33,0-.67,0-1,0-17.32-.05-34.69.15-52,0-.33,0-.67,0-1,0-17.81-.17-42.88,4.71-51.95-14.55.55-111.78-1.34-223.83.95-335.45,2.3-1.72,2.05-4.86,3-7,8.8-19.72,28.32-39.15,48-48,2.18-.98,5.04-1.24,7-3,213.47-1.55,427.39-1.37,641-1ZM309.08,867.35c.14.75.25.86,1,1,4.57.86,13.73-.04,19,0,.33,0,.67,0,1,0,17.32.1,34.68-.03,52,0,.33,0,.67,0,1,0,16.98.03,34.02.02,51,0,.33,0,.67,0,1,0,22.32-.03,44.68.03,67-.01-3.13-6.29-6.84-12.26-9.86-18.63-2.76-5.82-5.91-12.38-8.14-18.36-.11-.29.11-.71,0-1-6.11-16.66-10.59-34.38-13-52-.04-.33.04-.67,0-1-2.19-16.93-2.87-34.9-2-52,.02-.33-.02-.67,0-1,1.01-16.42,5.44-36.18,10-52,.09-.31-.09-.69,0-1,5.1-17.22,13.25-35.33,22-51,.19-.34.79-.63,1-1,9.82-17.2,24.16-36.86,38-51,.43-.44,1.56-1.57,2-2,14.39-14.08,33.52-28,51-38,.37-.21.66-.81,1-1,15.69-8.8,33.76-16.83,51-22,1.08-.32,2.17-.77,3-1,14.68-4.15,34.82-8.06,50-9,.33-.02.67.02,1,0,15.08-.82,36.1-.77,51,1,.24.03,1.08.87,2,1,16.89,2.29,34.96,6.26,51,12,.5.18,1.18.7,2,1,2.98,1.1,7.06,2.75,10,4,1.41.6,10.29,5.81,10.99,5,.06-1.99-.06-4,0-6,2.92-92.45-2.17-185.92-.02-278.48-1.57-14.13-7.52-24.65-19.98-31.52-.69-.38-1.28-.67-2-1-4.57-2.07-11.46-5-16.5-5h-486.5c3.96,10.48,7.04,21.2,8.04,32.46l-.04,637.54ZM172.08,249.35c0,.33,0,.67,0,1-.27,17.3.06,34.69,0,52,0,.33,0,.67,0,1-.06,17.32.03,34.68,0,52,0,.33,0,.67,0,1-.03,17.32-.02,34.68,0,52,0,.33,0,.67,0,1,.02,16.98-.07,34.02,0,51,0,.33,0,.67,0,1,.04,8.77-1.43,25.41,0,33,.12.65.27.99,1,1h77c.73-.01.88-.35,1-1,1.43-7.59-.04-24.23,0-33,0-.33,0-.67,0-1,.07-16.98-.02-34.02,0-51,0-.33,0-.67,0-1,.02-17.32.03-34.68,0-52,0-.33,0-.67,0-1-.03-17.32.07-34.68,0-52,0-.33,0-.67,0-1-.07-17.3.33-34.7,0-52,0-.33,0-.67,0-1-.5-22.47-2.16-41.34-27-49-.3-.09-.68.08-1,0-14.37-3.71-25.72-3.01-37.52,6.98-14.63,12.38-13.17,24.69-13.48,42.02ZM699.08,554.35c-.33.03-.67-.03-1,0-17.67,1.6-31.47,4.8-48,11-.83.31-1.45.78-2,1-.79.31-1.41.76-2,1-.79.32-1.4.74-2,1-21.47,9.16-32.19,16.13-50,31-.36.3-.65.7-1,1-24.49,20.94-38.36,39.93-51,70-.25.6-.68,1.21-1,2-7.44,18.46-11.21,32-13,52-.03.33.03.67,0,1-1.51,19.16-1.15,32.95,2,52,.05.32-.06.68,0,1,7.18,40.94,26.99,75.74,57,104,2.64,2.49,4.58,3.93,7,6,44.35,37.99,98.78,53.12,157,43,.32-.06.68.06,1,0,36.49-6.69,66.87-22.35,94-47,.73-.67,1.32-1.36,2-2,3.23-3.04,5.97-5.75,9-9,.6-.64,1.29-1.21,2-2,12.01-13.3,18.73-23.18,27-39,.35-.67.66-1.33,1-2,8.89-17.64,14.52-32.26,18-52,.06-.32-.05-.68,0-1,3.1-18.46,3.64-33.37,2-52-.03-.33.03-.67,0-1-1.87-19.37-5.86-34.15-13-52-.32-.8-.75-1.41-1-2-8.77-21.01-16.25-32.77-31-50-1.69-1.97-2.79-3.63-5-6-16.29-17.47-29.86-27.84-51-39-.67-.36-1.33-.66-2-1-5.72-2.92-11.01-5.61-17-8-.58-.23-1.19-.69-2-1-11.38-4.34-21.01-6.87-33-9-.32-.06-.68.05-1,0-19.13-3.2-32.73-3.54-52-2Z"/>
  <path class="cls-1" d="M382.08,370.35c.33-.02.67.01,1,0,16.72-.67,34.18.08,51,0,.33,0,.67,0,1,0,17.32-.08,34.68.03,52,0,.33,0,.67,0,1,0,17.32-.03,34.68.02,52,0,.33,0,.67,0,1,0,17.32-.02,34.68-.02,52,0,.33,0,.67,0,1,0,16.98.02,34.02-.03,51,0,.33,0,.67,0,1,0,17.32.03,34.68-.07,52,0,.33,0,.67,0,1,0,17.24.08,34.8-.62,52,0,.33.01.67-.01,1,0,2.45.11,4.93-.22,7.39.11,18.05,2.43,29.4,20.32,24.61,37.89-.09.32.1.71,0,1-3.41,9.8-14.99,18.55-25.46,19.04h-381.08c-10.63.14-23.18-9.12-26.46-19.04-.1-.29.08-.68,0-1-5.92-22.68,9.62-36.94,31-38Z"/>
  <path class="cls-1" d="M539.08,263.35c.41.39,1.81,1.75,2,2,7.65,9.9,7.85,25.59,1,36-.12.19-1.45,1.39-2,2-12.44,13.95-34.91,9.85-52,10-.33,0-.67,0-1,0-17.31.14-34.69.08-52,0-.33,0-.67,0-1,0-16.81-.08-34.29.69-51,0-.33-.01-.67.02-1,0-37.63-1.93-44.05-45.01-10.06-57.56l150.56-.44c4.46.5,13.28,4.98,16.5,8Z"/>
  <path class="cls-1" d="M779.08,302.35c-.22.3-.68.62-1,1-7.08,8.32-15.79,9.5-26,10-.33.02-.67-.01-1,0-17.05.68-34.85-.08-52,0-.33,0-.67,0-1,0-17.31.08-34.69.18-52,0-.33,0-.67,0-1,0-9.18-.1-19.58.74-28.54.04-36.65-2.87-38.31-52.25-2.95-58.02,46.84,3.01,98.78-4.04,145.02-.05,22.93,1.98,33.99,28.7,20.46,47.04Z"/>
  <path class="cls-1" d="M746.08,619.35c1.2,7.77,1.25,4.14,6,6,13.92,5.44,41.5,17.8,47.2,32.3,5.25,13.33.45,28.21-11.5,35.9-22.58,14.52-37.2-9.25-58.66-13.73-9.24-1.93-29.36-1.8-32.58,9.5-2.03,7.14.81,7.67,5.88,10.21,19.31,9.68,42.92,14.97,61.67,24.83.78.41,1.92,1.37,3,2,18.06,10.53,35.87,29.92,40,51,.06.32-.06.68,0,1,2.86,16.77-2.11,36.59-11,51-.45.73-.73,1.61-1,2-8.54,12.63-28.75,25.86-43,31-.29.11-.7-.1-1,0-1.32.46-3.48.13-4.87,1.14.11,5.41-1.45,13.14-4.13,17.86-.07.12-1.44,1.33-2,2-11.39,13.59-33.86,13.84-45,0-.59-.73-1.91-1.86-2-2-3.31-5.47-4.41-13.58-5.13-19.86-14.06-3.57-28.2-11.03-39.78-19.72-3.25-2.44-9.5-7.54-12.08-10.42-.32-.36-.74-.68-1-1-11.99-14.94-9.31-41.01,10-48,.28-.1.68.09,1,0,4.07-1.13,10.34-1.42,14.54-1.04,15.56,1.41,22.21,19.17,37.46,22.04.13.56.6.71,1,1,4.97,3.59,22.32,4.62,28.49,3.99,10.56-1.07,27.8-12.07,19.96-23.94-6.82-10.33-43.49-21.1-56.42-26.58-17.61-7.45-34-13.85-44.03-31.47-.44-.89-1.17-.85-2-1-.32-.06-.67.03-1,0v-1c.85-.57,1.05-1.2.86-2.2-.53-2.93-4.13-8.93-5.15-13.02-2.61-10.52-2.64-25.31.28-35.78.11-.39.72-1.18,1-2,4.8-14.24,16.82-28.96,29.27-37.23,3.57-2.37,15.58-7.08,16.76-8.24,1.74-1.72.6-3.89.97-5.53.07-.32-.07-.68,0-1,8.1-34.87,52.68-34.48,58,0Z"/>
</svg>