<?xml version="1.0" encoding="UTF-8"?>
<svg id="Layer_1" data-name="Layer 1" xmlns="http://www.w3.org/2000/svg" viewBox="0 0 1080 1080">
  <defs>
    <style>
      .cls-1 {
        fill: #3f434e;
      }
    </style>
  </defs>
  <path class="cls-1" d="M566.99,184.95c24.55-2.3,46.2,5.65,64.81,21.26l286.85,286.8c14.3,16.91,21.06,34.17,22.58,56.37-5.31,93.43,6.87,194.32-.09,286.87-3.46,45.97-37.15,78.34-82.9,81.46-40.84,2.79-105.98,2.97-146.68-.09-116.8-8.78-72.63-157.44-81.76-234.07-4.28-11.77-13.42-20.74-26.22-22.12-12.1-1.31-47.75-1.56-59.24.39-12.3,2.09-22.65,14-23.83,26.12-7.55,77.23,34.38,221.77-82.84,229.77-40.89,2.79-104.26,2.8-145.16,0-46.7-3.19-79.79-36.17-82.99-82.99-6.39-93.55,4.97-194.26,0-288.57,1.55-21.08,9.06-37.31,22.58-53.16l285.23-285.2c14.58-12.49,30.16-21.04,49.64-22.87ZM571.81,236.41c-5.3.58-11.74,3.35-15.8,6.84l-291.47,293.47-1.85,7.82,1.34,300.15c3.62,9.85,12.9,18.51,23.68,19.83,47.33,5.78,106.2-4.44,154.77,0,12.25-1.5,23.14-13.16,24.79-25.16,9.44-68.64-31.74-203.39,61.39-227.05,20.75-5.27,84.6-4.76,104.2,3.73,78.23,33.87,43.08,153.55,50.47,221.86,1.43,13.23,11.65,24.44,24.94,26.62,49.06-3.7,104.97,4.78,153.2.04,13.69-1.34,24.01-11.5,26.55-25.02l-1.3-300.11-5.95-10.16-286.03-286.02c-6.28-5.16-14.77-7.73-22.95-6.84Z"/>
</svg>