<?xml version="1.0" encoding="UTF-8"?>
<svg id="Layer_1" data-name="Layer 1" xmlns="http://www.w3.org/2000/svg" viewBox="0 0 1080 1080">
  <defs>
    <style>
      .cls-1 {
        fill: #08624c;
      }
    </style>
  </defs>
  <path class="cls-1" d="M904.41,503.75c-2.19-27.9-14.98-53.34-36.16-71.46l-290.02-226.06c-22.78-16.18-52.86-16.74-75.64-.26-91.32,73.95-188.16,141.75-278.75,216.55-33.33,27.53-46.03,46.09-48.4,91.01-5.56,105.43,4.26,215.73.06,321.67-.32,69.45,37.17,112.23,106.93,115.64,43,2.09,87.72-1.68,130.89-.09,32.51-4.84,41.95-25.34,43.49-55.57l-.11-274.05c.07-5.63,5.89-6.3,10.41-6.71,47-4.28,100.38,3.31,148.05.02,9.53,1.11,8.8,7.64,9.18,15.24,4.53,91.21-3.47,186.07-.01,277.66,2.05,23.15,19.03,40.85,42.19,43.41,62.25-6.68,156.11,18.93,205.61-27.31,22.37-20.89,30.65-47.14,32.27-77.18,6.09-112.18-4.7-229.78,0-342.52ZM848.09,847.44c-.01,27.01-20.02,47.1-47.07,47.1h-120.46v-274.55c0-33.97-31.03-59.45-62.93-61.81-53.28-3.95-113.44,1.65-167.05,1.81-22.89,2.7-50.07,32.3-50.07,55.11v279.44h-120.46c-4.42,0-15.13-2.07-19.62-3.63-23.6-8.21-27.7-31.26-28.75-53.17-5.12-107.4,4.01-218.83.01-326.65.71-10.27,3.61-20.03,9.31-28.59,93.41-77.68,191.86-149.64,286.8-225.62,4.92-2.54,9.53-8.92,15.45-5.91,89.2,69.62,180.8,136.93,268.73,208.26,15.29,12.4,34.9,24.01,36.17,45.76l-.06,342.46Z"/>
</svg>