<?xml version="1.0" encoding="UTF-8"?>
<svg id="Layer_1" data-name="Layer 1" xmlns="http://www.w3.org/2000/svg" viewBox="0 0 1080 1080">
  <defs>
    <style>
      .cls-1 {
        fill: #8797c2;
      }
    </style>
  </defs>
  <path class="cls-1" d="M485.05,409.13l-279.94.1c-151.39-8.78-165.08-127.05-156.43-252.42C54.71,69.34,112.71,12.75,200.16,7.72c222.36-12.79,456.96,9.8,680.58.14,106.23,9.27,147.77,72.67,151.63,173.56,3.98,104.21-8.7,200.1-127.24,224.95-102.71,6.01-206.17,1.23-309.13,2.75v130.48c58.97,2.26,120.12-2.98,178.85-.1,70.46,3.46,127.19,23.1,169.75,81.61,36.98,50.83,39.52,106.87,38.88,167.98,22.64,14.56,47.83,27.29,64.46,49.03,69.81,91.24,19.83,225.22-93.93,244.84-135.07,23.29-229.27-128.47-149.46-240.33,17.52-24.56,42.01-38.13,67.2-53.53.37-21.59,1.12-46.68-2.7-67.91-8.42-46.77-48.86-70.79-94.3-70.79h-178.75v139.1c86.9,38.2,125.05,138.9,75,222.6-59,98.69-206.19,96.73-262.81-3.08-47.51-83.74-8.08-181.5,76.85-219.53v-139.1h-183.68c-45.2,0-81.9,28.03-89.73,72.89-1.81,10.37-5.3,61.28-1.53,67.47,114.71,47.73,131.06,208.18,21.74,272.76-143.97,85.04-298.67-87.45-201.48-220.88,18.48-25.38,40.49-38.25,67.2-53.54-1.15-61.43,1.21-115.18,37.83-166.56,83-116.45,226.67-75.2,349.65-82.93v-130.48ZM195.99,119.27c-25.72,4.23-34.55,20.33-36.49,44.81-1.68,21.18-2.82,80.67,1.17,99.74,3.23,15.48,12.91,26.36,27.87,31.47,234.03,5.08,469.95,5.08,703.95,0,12.23-3.31,23.64-15.82,25.91-28.29,3.21-17.63,3.01-99.02-.02-117.01-3.04-18.03-18.57-27.98-35.8-30.72H195.99ZM123.44,962.22c38.03,38.03,96.16-19.51,60.79-57-39.4-41.76-98.4,19.4-60.79,57ZM533.73,892.23c-50.25,8.03-41.22,82.5,6.38,82.24,57.97-.31,52.34-91.63-6.38-82.24ZM957.56,962.19c38.46-40.43-24.49-97.88-60.8-57.03-35.43,39.86,24.99,94.67,60.8,57.03Z"/>
</svg>