<?xml version="1.0" encoding="UTF-8"?>
<svg id="Layer_1" data-name="Layer 1" xmlns="http://www.w3.org/2000/svg" viewBox="0 0 1080 1080">
  <defs>
    <style>
      .cls-1 {
        fill: #08624c;
      }
    </style>
  </defs>
  <path class="cls-1" d="M852.15,334.18c-7.7,3.4-51.08,3.27-61.04,2.07-13.93-1.69-20.82-10.81-22.06-24.45-1.93-21.34-2.54-76.51.42-96.94,2.35-16.22,12.73-22.39,28.6-20.87,8.37.82,16.81,8.39,18.66,16.57,4.27,18.8-2.21,52.23.23,73.06.17,1.42.65,4.86,2.18,4.86,7.47,0,18.52-1.02,25.37,0,22,3.26,28.19,36.62,7.64,45.69Z"/>
  <path class="cls-1" d="M984.81,304.63c-2.54-81.41-64.01-157.99-143.52-177.82-22.66-5.65-44.9-7.19-66.16-5.2-106.22,9.98-187.56,108.21-170.73,222.36.69,4.72,2.75,9.44,3.47,13.49.25,1.44-.62,2.68-1.55,2.92H191.97c-8.99,0-20.56,12.43-20.52,21.75v534.33c5.27,8.43,7.7,16.46,19.03,17.62l588.55-.73c6.55-1.87,14.19-12.81,14.11-19.72l.13-407.18,2.11-2.11c82.65-1.32,151.92-54.43,178.2-127.9,7.99-22.34,12.02-46.57,11.23-71.79ZM387.17,885.36c0,.15-1.96,2.11-2.11,2.11h-93.72v-93.72c0-.15,1.97-2.11,2.11-2.11h91.61c.15,0,2.11,1.96,2.11,2.11v91.61ZM507.67,647.88h93.72v95.84h-94.43v-92.31c0-.23-2.42-3.52.7-3.52ZM530.93,599.96h-95.84v-93.72c0-.15,1.97-2.11,2.11-2.11h91.61c.15,0,2.11,1.96,2.11,2.11v93.72ZM456.93,647.88c.15,0,2.11,1.96,2.11,2.11v93.72h-95.84v-93.72c0-.15,1.97-2.11,2.11-2.11h91.61ZM530.93,885.36c0,.15-1.96,2.11-2.11,2.11h-93.72v-93.72c0-.15,1.97-2.11,2.11-2.11h91.61c.15,0,2.11,1.96,2.11,2.11v91.61ZM673.27,887.47h-93.72c-1.54,0-2.02-3.44-2.18-4.86-3.09-26.34,2.82-59.05,0-86.11-.31-1.45,1.02-4.86,2.18-4.86h93.72v95.84ZM745.15,887.47h-21.85c-1.54,0-2.02-3.44-2.18-4.86-4.37-37.28,3.48-83.01,0-121.21-.62-6.02-12.21-17.69-17.55-17.69h-54.26l-.09-126.05c-.7-6.09-11.95-17.7-17.53-17.7h-54.26l.07-124.8c-2.66-10.15-10.06-17.17-20.46-18.98l-149.49-.03c-2.75.37-10.5,3.92-12.67,5.65-1.18.96-7.71,9.95-7.71,10.61v127.55h-54.26c-.62,0-9.54,5.24-10.64,6.27-1.32,1.25-6.98,10.56-6.98,11.35v126.14h-54.26c-5.34,0-16.91,11.67-17.53,17.69-3.5,38.19,4.37,83.93-.01,121.21-.16,1.42-.63,4.86-2.18,4.86h-21.85v-477.07c0-.15,1.97-2.11,2.11-2.11h406.6c23.44,43.2,65.08,72.78,111.07,88.4,1.89.65,3.95.48,5.91.4v390.39ZM866.81,436.22c-78.06,46.35-179.91,8.7-209.07-76.53-17.28-50.5-6-97.88,20.77-132.85,44.7-58.46,132.68-82.25,202.82-28.02,71.5,55.29,72.1,162.58,8.36,220.5-6.88,6.24-14.52,11.92-22.89,16.9Z"/>
</svg>