<?xml version="1.0" encoding="UTF-8"?>
<svg id="Layer_1" data-name="Layer 1" xmlns="http://www.w3.org/2000/svg" viewBox="0 0 24 24">
  <defs>
    <style>
      .cls-1 {
        fill: #6f7c97;
      }
    </style>
  </defs>
  <path class="cls-1" d="M12.85,19.79c.1,1.03.91,1.74,1.84,2.09,1.1.41,2.36-.41,3.24-1.02,6.22-4.32,5.74-13.81-.85-17.5C11.84.43,5.12,2.57,2.61,8.01c-1.88,4.08-.91,8.98,2.4,12.01.6.55,1.22.85,1.82,1.31.85.65.16,1.87-.77,1.48-.21-.09-.57-.35-.77-.48C-1.4,17.82-1.82,8.08,4.48,3.02S19.82.38,23.01,7.59c2.6,5.87-.11,13.02-5.93,15.68-2.67,1.22-5.84-.79-5.91-3.71v-9.55s-.14.04-.14.04l-3.03,3.02c-.85.5-1.76-.45-1.07-1.23l4.55-4.55c.3-.25.76-.25,1.06,0l4.55,4.55c.17.18.21.67.15.89-.02.06-.39.42-.46.44-.21.06-.62.03-.81-.1l-2.98-2.98-.14-.04v9.75Z"/>
</svg>