<?xml version="1.0" encoding="UTF-8"?>
<svg id="Layer_1" data-name="Layer 1" xmlns="http://www.w3.org/2000/svg" viewBox="0 0 1080 1080">
  <defs>
    <style>
      .cls-1 {
        fill: #8797c2;
      }
    </style>
  </defs>
  <path class="cls-1" d="M964.87,692.59c-23.57,25.14-62.38,56.18-92.22,73.61-78.49,45.86-166.54,62.47-256.65,54.66-22.34,133.73-142.81,239.56-278.04,249.26-75.61,5.42-212.98,6.95-287.43,0-30.05-2.81-46.3-19.44-42.85-50.47,2.86-25.71,44.89-49.7,59.39-71.22-134.6-184.86-32.73-441.72,189.07-488.97C226.39,167.49,498.04-60.89,782.57,22.65c287.5,84.42,387.74,450.88,182.3,669.94ZM619.36,187.48v-74.47c-24.56,18.78-39.15,47.41-52.21,74.47h52.21ZM757.34,187.48c-7.84-26.91-26.95-56.03-48.48-74.47v68.89c0,1.13-4.72,2.86-3.73,5.59h52.21ZM488.82,146.53c-3.73-3.86-49.33,33.03-52.19,40.9l36.68-.59,15.51-40.31ZM891.59,187.44c-6.66-9.87-18.58-18.69-28.11-25.88-3.72-2.81-21.35-17.88-24.08-15.02l14.75,39.23,37.44,1.68ZM343.4,369.93h96.96l7.47-96.83c-30.36,6.87-65.54-14.47-81.59,17.24-12.16,24.01-15.66,53.87-22.84,79.59ZM619.36,273.12c-14.64,3.63-75.14-5.28-81.41,4.38l-11.82,92.43h93.23v-96.81ZM802.09,369.93l-12.83-93.31c-5.89-8.68-66.03.57-80.4-3.5v96.81h93.23ZM984.82,369.93c-9.04-31.47-12.83-65.41-31.39-93.39-5.11-3.66-54.89-4.46-63.89-3.6-4.37.42-10.92.24-11.88,5.59l10.2,91.4h96.96ZM440.36,459.3h-96.96c9.22,31.13,11.76,66.21,31.7,93.09h72.72l-7.46-93.09ZM619.36,459.3h-93.23l11.19,93.09h82.04v-93.09ZM802.09,459.3h-93.23v93.09h76.45c14.81-27.71,10.65-62.38,16.78-93.09ZM981.09,459.3h-93.23l-11.19,93.09h76.45c9.91-10.15,33.53-87.52,27.97-93.09ZM156.94,984.34h177.14c74.29,0,161.59-73.72,186.38-141.58,4.15-11.36,14.84-37.15,3.45-44.27-115.47-42.52-210.29-135.92-247.69-253.57-151.4,31.82-231.61,194.49-151.05,331.5,21.57,36.69,69.6,62.48,31.77,107.92ZM473.31,642.39l-36.66,1.22,52.15,39.12-15.49-40.33ZM619.36,641.76h-52.21c13.93,26.83,29.38,54.1,52.21,74.47v-74.47ZM757.34,641.76h-52.21c-.99,2.73,3.73,4.45,3.73,5.59v65.16c12.69-2.4,53.15-66.56,48.48-70.75ZM887.86,641.8l-33.63,1.75-14.81,39.17c2,2.49,46.91-32.82,48.44-40.92Z"/>
</svg>