<?xml version="1.0" encoding="UTF-8"?>
<svg id="Layer_1" data-name="Layer 1" xmlns="http://www.w3.org/2000/svg" viewBox="0 0 1080 1080">
  <defs>
    <style>
      .cls-1 {
        stroke-width: 17px;
      }

      .cls-1, .cls-2 {
        fill: #3f434e;
        stroke: #898e9a;
        stroke-miterlimit: 10;
      }

      .cls-2 {
        stroke-width: 22px;
      }
    </style>
  </defs>
  <path class="cls-1" d="M834.92,684.73c.37,0,5.41-1.8,6.35-2.22,8.34-3.69,11.91-11.65,12.67-20.37,1.35-15.6,2.09-59.98-.33-74.43-.95-5.71-4.93-11.65-9.86-14.63-.98-.6-7.19-3.41-7.61-3.41h-25.09v-36.73h25.09c.42,0,6.62-2.82,7.61-3.41,4.93-2.98,8.91-8.94,9.86-14.62,2.42-14.45,1.68-58.84.33-74.43-.76-8.72-4.32-16.69-12.67-20.38-.94-.42-5.99-2.23-6.35-2.23h-23.87v-36.72h26.33c6.1,0,14.3-10.38,15.69-16.15,2.64-11.04,2.22-65.82.7-78.59-.35-2.96-1.4-6.72-2.97-9.27-1.35-2.2-10.11-9.84-12.19-9.84h-27.55v-50.8c0-1.44-2.6-9.32-3.44-11.24-4.94-11.52-14.55-17.28-25.94-21.19h-463.95c-11.23,3.9-20.28,9.21-25.55,20.35-.77,1.64-3.82,9.84-3.82,10.87v71.6h-22.65c-.64,0-4.2,4.03-4.35,5.57-.21,2.13,3.26,6.68,4.35,6.68h22.65v73.44h-20.2c-7.62,0-8.35,12.24-2.45,12.24h22.65v74.67h-22.65c-5.64,0-4.26,11.03-1.23,11.03h23.88v74.68h-22.65c-.64,0-4.2,4.02-4.35,5.57-.21,2.14,3.26,6.67,4.35,6.67h22.65v74.67h-23.88c-3.02,0-4.4,11.02,1.23,11.02h22.65v74.69h-22.65c-5.91,0-5.17,12.24,2.45,12.24h20.2v73.44h-22.65c-.64,0-4.2,4.04-4.35,5.57-.21,2.14,3.26,6.67,4.35,6.67h22.65v71.61c0,13.42,18.73,31.19,32.44,31.2l455.42.08c15.62.7,34.84-17.05,34.84-32.5v-50.8h27.55c1.91,0,10.32-7.13,11.64-9.17,1.47-2.25,3.2-7.25,3.56-9.9,1.55-12.01,1.78-68.18-.74-78.63-1.39-5.76-9.58-16.14-15.69-16.14h-26.33v-36.74h23.87ZM811.05,278.37h22.65c5.15,0,7.62,5.9,8.01,10.35,2.08,23.31-1.6,49.77-.13,73.42.72,3.03-6.11,8.04-7.88,8.04h-22.65v-91.82ZM797.97,888.94c-2.9,8.99-10.51,17.17-20.54,17.42h-455.47c-7.6,1.3-21.38-11.07-21.38-17.81v-72.84h25.09c6.35,0,6.35-12.24,0-12.24h-25.09v-73.44h23.86c8.29,0,6.5-12.24,2.46-12.24h-26.32v-74.69h26.32c3.82,0,4.73-11.02,1.22-11.02h-27.54v-74.67h25.09c6.35,0,6.35-12.24,0-12.24h-25.09v-74.68h27.54c3.51,0,2.59-11.03-1.22-11.03h-26.32v-74.67h26.32c4.05,0,5.84-12.24-2.46-12.24h-23.86v-73.44h25.09c6.61,0,5.56-12.25,1.22-12.25h-26.32v-72.84c.98-5.94,9.25-14.94,15.01-16.82l461.83-.97c10.03.23,17.64,8.41,20.54,17.41v675.27ZM809.69,430.17h23.87c4.04,0,6.47,6.85,6.79,10.35,2.08,22.98-1.72,49.01,0,72.34.99,1.97-5.06,7.89-5.57,7.89h-25.09v-90.58ZM832.34,732.53c1.77,0,8.6,5.01,7.88,8.03-1.47,23.65,2.21,50.12.13,73.42-.4,4.46-2.86,10.35-8.01,10.35h-22.65v-91.81h22.65ZM809.69,672.55v-90.59h25.09c.51,0,6.56,5.93,5.57,7.9-1.72,23.32,2.08,49.35,0,72.34-.32,3.5-2.75,10.35-6.79,10.35h-23.87Z"/>
  <g>
    <path class="cls-2" d="M681.44,519.66l-252.59-1.14c-5.16-2.25-4.55-8.61.38-10.98l255.93-.3c10.56,2.53,6.5,13.29-3.71,12.42Z"/>
    <path class="cls-2" d="M682.62,521.37c-.41,0-.83-.02-1.25-.05l-252.87-1.14-.31-.14c-2.82-1.23-4.54-3.67-4.6-6.52-.06-3.08,1.87-6.01,4.92-7.48l.34-.16h.38l256.12-.3.19.05c6.23,1.49,7.87,5.53,7.39,8.54-.59,3.63-4.36,7.2-10.3,7.2ZM429.22,516.87l252.29,1.14h.07c4.53.39,7.67-1.91,8.07-4.36.34-2.11-1.46-3.91-4.7-4.74l-255.32.3c-1.7.94-2.76,2.58-2.73,4.27.03,1.47.85,2.66,2.32,3.4Z"/>
  </g>
  <g>
    <path class="cls-2" d="M427.75,467.9c-3.22-1.06-3.29-8.58.62-10.47l256.78-.66c9.08,1.25,5.72,11.14,3.62,11.14h-261.02Z"/>
    <path class="cls-2" d="M688.77,469.56h-261.28l-.25-.08c-1.96-.65-3.3-2.79-3.48-5.59-.19-2.93.94-6.52,3.9-7.95l.34-.16h.38s256.89-.66,256.89-.66l.11.02c5.84.8,7.66,4.87,7.42,8.41-.2,2.9-1.79,6.02-4.02,6.02ZM428.1,466.25h260.38c.48-.53,1.36-2.59.87-4.58-.44-1.79-1.9-2.88-4.32-3.24l-256.23.66c-1.29.85-1.86,2.89-1.75,4.59.08,1.21.5,2.24,1.04,2.57Z"/>
  </g>
  <path class="cls-2" d="M691.91,292.4l-3.75-8.56-258.94-.38c-3.14.94-4.84,5.9-4.61,8.94,2.39,35.91-2.97,75.45.01,110.92.28,3.35.57,7.88,4.02,9.52h259.24c3.44-1.65,3.73-6.18,4.01-9.52,2.98-35.47-2.38-75.02.01-110.92ZM679.55,401.42h-242.56v-105.88h242.56v105.88Z"/>
</svg>