<?xml version="1.0" encoding="UTF-8"?>
<svg id="Layer_1" data-name="Layer 1" xmlns="http://www.w3.org/2000/svg" viewBox="0 0 1080 1080">
  <defs>
    <style>
      .cls-1 {
        fill: #8e8e8e;
      }
    </style>
  </defs>
  <path class="cls-1" d="M881.84,727.83l.04,143.41c-5.13,60.28-51.28,103.14-111.39,106.41-60.42,3.29-124.21-2.91-184.83,0-11.37.58-22.87-.68-34.19-.67-105.46.09-211,.95-316.59.67-29.38-.08-61.82,1.58-90.92,0-60.15-3.27-106.2-46.04-111.4-106.4V232.75c4.75-56.77,50.92-103.01,108.45-104.8,209.4,3.81,419.1-3.72,628.47.49,61.01,1.23,106.05,43.65,112.34,104.36l.02,120.38c6.26-5.39,12.57-10.76,20.1-14.36,25.69-12.31,54.14-8.48,75.82,9.85,15.81,13.37,65.54,61.89,75.09,77.77,2.39,3.98,6.32,11.68,6.83,16.15,2.36,20.82,2.05,47.97-13.02,63.91l-220.77,221.32h55.95ZM813.91,309.22v-72.43c0-18.73-21.56-40.26-40.42-40.51l-634.45.05c-17.31,1.25-38.47,22.08-38.47,39.45v71.93l713.34,1.5ZM202.47,377.16h-101.91v101.91h100.41l1.5-1.5v-100.41ZM813.91,377.16H270.41v101.91h452.58v31.97l3-1.49,87.91-87.93v-44.46ZM949.13,416.77c-4.38-4.34-9.89-12.31-14.81-15.7-.88-.61-1.35-1.43-2.52-.5-13.63,13.37-26.91,27.09-40.44,40.55-89.94,89.45-179.16,179.54-269.82,268.68-1.98,2.24-2.24,5.27-2.97,8.02-6.22,23.62-9.65,48.21-15.47,71.94l80.45-15.95,308.7-308.72,2.02-4.04c-14.6-15.22-30.19-29.49-45.15-44.29ZM202.47,547h-101.91v322.2c0,10.15,10.16,24.9,18.07,30.88,21.19,16.04,55.4,7.18,80.39,9.63l3.45-1.55v-361.17ZM688.02,547h-417.61v361.17c0,1.45,9.32,1.5,11.44,1.55,14.93.38,30.13-.03,44.96,0,146.79.34,293.72-.5,440.63-.06,20.18,1.21,46.47-19.9,46.47-40.45v-128.38l-3,1.49c-29.18,25.52-55.49,60.42-84.9,84.94-7.22,6.02-15.22,10.1-24.23,12.74-23.7,6.95-61.7,13.86-86.5,17.41-46.64,6.66-85.88-28.51-80.1-76.1,2.87-23.58,12.14-62.97,18.64-86.26,3.13-11.2,7.74-19.87,15.28-28.68l118.92-119.36Z"/>
  <path class="cls-1" d="M364.32,582.97v19.48c11.48,3.93,21.13,8.4,29,17.96,3.47,4.22,10.97,18,10.97,23v20.48h-36.97v-15.49c0-5.89-7.84-12.6-13.57-13.4-28.93-4-26.06,28.53-12.91,44.88,14.6,18.15,35.29,25.23,48.49,45.42,21.92,33.52,19.94,88.18-26,98.44v21.48l-1.5,1.5h-26.48v-21.48c-10.04-4.83-19.73-7.6-27.49-16.47-4.28-4.9-12.48-20.28-12.48-26.49v-26.98l1.5-1.5h33.47v23.48c0,7.34,8.49,13.77,15.48,14.49,25.6,2.63,25.49-25.45,16.03-41.99-10.26-17.92-31.33-24.68-44.47-39.46-22.91-25.77-33.47-79.04.65-100.2,5.57-3.45,11.73-4.54,17.31-7.67v-19.48h28.97Z"/>
</svg>