<?xml version="1.0" encoding="UTF-8"?>
<svg id="Layer_1" data-name="Layer 1" xmlns="http://www.w3.org/2000/svg" viewBox="0 0 1080 1080">
  <defs>
    <style>
      .cls-1 {
        fill: #08624c;
      }
    </style>
  </defs>
  <path class="cls-1" d="M830.97,554.4l133.01,66.06c24.7,18.51,21.72,50.83-2.84,67.73l-397.65,198.35-31.35,4.65c-142.49-65.49-283.1-137.8-422.08-210.3-16.43-18.63-14.64-43.63,4.59-59.34l134.2-68.24-136.28-70.73c-16.17-15.73-18.65-37.98-4.71-56.17,132.66-73.04,271.31-136.84,406.25-206.32,16.68-8.31,34.87-7.94,51.63,0,121.22,63.3,246,120.11,367.29,183.22,22.1,11.5,48.93,19.8,48.21,49.81-.26,10.83-5.89,20.49-12.71,28.44l-137.55,72.84ZM851.43,449.72l-312.28-154.34-265.38,132.58-45.39,25.12,312.3,155.47,307.82-153.77,2.93-5.07ZM851.43,654.57l-110.28-56.72-168.59,83.75c-28.63,11.84-36.53,12.16-65.34.05l-166.84-83.54-111.97,56.46,312.65,154.72,310.37-154.72Z"/>
</svg>