<?xml version="1.0" encoding="UTF-8"?>
<svg id="Layer_1" data-name="Layer 1" xmlns="http://www.w3.org/2000/svg" viewBox="0 0 1080 1080">
  <defs>
    <style>
      .cls-1 {
        fill: #8797c2;
      }
    </style>
  </defs>
  <path class="cls-1" d="M944.54,703.67c43.66-6.95,75.99,40.94,54.84,79.89l-236.45,237.48c-21.23,10.79-39.37,10.49-59.24-3.1-37.06-25.35-76.39-83.49-112.86-113.12-20.94-45.87,13.16-89.14,63.25-78.83,22.01,4.53,73.1,72.75,81.95,71.18l180.96-180.18c7.24-5.8,18.45-11.87,27.53-13.32Z"/>
  <path class="cls-1" d="M313.21,245.8l404.15-.48c64.68,12.14,64.6,97.14,0,109.22h-398.35c-61.67-10.92-65.6-92.1-5.8-108.74Z"/>
  <path class="cls-1" d="M286.85,453.14c4.75-4.52,12.96-7.51,18.59-11.25l320.9-2.19c58.83,16.89,55.57,93.15-3.22,106.16h-307.26c-42.84-7.35-60.78-62.52-29.02-92.71Z"/>
  <path class="cls-1" d="M283.71,647.58c6.74-7.29,22.2-15.13,32.16-16.5,22.11-3.03,96.77-3.14,118.32.48,53.84,9.03,58.75,95.44-.63,107.63-19.34,3.97-97.3,3.97-117.22.64-42.89-7.17-62.43-60.02-32.63-92.25Z"/>
  <path class="cls-1" d="M517.65,1068.41h-256.72c-97.93,0-177.61-79.67-177.61-177.61V187.64c0-97.71,79.49-177.21,177.21-177.21h525.74c97.6,0,177.01,79.41,177.01,177.01v379.94c0,31.2-25.3,56.5-56.5,56.5s-56.5-25.3-56.5-56.5V187.45c0-35.3-28.71-64.01-64.01-64.01H260.53c-35.4,0-64.21,28.8-64.21,64.21v703.16c0,35.62,28.98,64.61,64.61,64.61h256.72c31.2,0,56.5,25.3,56.5,56.5s-25.3,56.5-56.5,56.5Z"/>
</svg>