<?xml version="1.0" encoding="UTF-8"?>
<svg id="Layer_1" xmlns="http://www.w3.org/2000/svg" version="1.1" viewBox="0 0 1080 1080">
  <!-- Generator: Adobe Illustrator 29.7.1, SVG Export Plug-In . SVG Version: 2.1.1 Build 8)  -->
  <defs>
    <style>
      .st0 {
        fill: #6f7c97;
      }
    </style>
  </defs>
  <path class="st0" d="M820.85,229.35c12.28,12.14,32.8,30.85,42.82,43.64,6.01,7.67,7.63,14.65,4.94,23.96-2.31,7.99-7.88,15.74-11.34,22.86-1.57,3.22-10.77,21.95-10.6,23.33l19.23,35.62c9.25,22.48,18.5,45.09,23.44,69.03,12.67,4.55,26.16,7.99,38.72,12.76,10.79,4.1,19.77,7.69,22.77,20.21.26,32.53,3.7,69.45,1.29,101.79-.89,11.91-4.69,20.91-15.79,26.19-14.15,6.73-32.3,9.45-46.68,16.28-8.78,36.8-24.01,71.57-42.82,104.21l.11,2.48,19.1,36.93c6.45,14.61,4.84,22.5-5.34,34.44-22.92,19.74-43.18,46.59-65.91,65.99-6.22,5.31-11.44,9.04-20.04,9.04-12.24,0-35.46-15.75-47.78-21.26-1.67-.75-3.35-1.52-5.19-1.72-13.7,6.01-26.77,14.84-40.76,21.08-20.51,9.16-42.34,15.77-63.96,21.73-5.41,11.4-7.98,24.12-12.36,35.87-4.9,13.14-8.21,23.19-23.85,26.13-33.1-2.1-70.24,3.09-102.86.13-8.29-.75-17.16-5.45-21-12.99s-14.59-46.85-17.85-49.13c-21.21-5.89-42.38-12.48-62.51-21.44-14.03-6.24-27.14-14.34-40.75-21.31l-3.24.25c-22.82,8.2-45.51,34.44-68.94,15.09-23.87-19.72-45.2-48.46-68.95-68.99-4.16-4.67-7.76-10.51-8.04-17.01-.64-14.9,17.17-37.3,22.28-51.77.52-1.46,1-2.5.77-4.16-.3-2.15-11.43-19.72-13.4-23.67-12.76-25.52-22.58-52.55-29.47-80.28l-49.76-17.42c-6.2-4.3-10.59-10.32-12.19-17.8,2.26-33.63-3.31-71.88-.14-104.97,1.03-10.71,7.95-17.63,17.34-21.64,13.95-5.96,30.68-9.02,44.74-15.22,6.78-27.8,16.97-54.69,29.69-80.29,2.82-5.67,11.69-18.36,12.98-23.06.32-1.18.45-2.29-.03-3.45l-18.93-37.11c-5.65-10.98-5.06-21.86,2.79-31.56,13.09-16.17,35.5-34.84,50.88-50.08,7.57-7.5,19.02-22.78,28.72-26.25,2.63-.94,5.47-1.28,8.2-1.78,19.19,3.35,35.62,17,53.96,23.58,33.01-19.17,67.73-33.8,104.74-43.5l16.82-48.41c3.5-5.94,10.18-11.92,17.3-12.68,34.47,2.33,72.95-3.08,106.94-.04,24.19,2.17,26.32,40.4,34.36,58.6.5,1.14.85,2.31,2.07,2.93,27.57,6.78,53.93,17.01,79.27,29.65,4.2,2.1,20.76,12.39,23.18,12.82,2,.36,3.49.11,5.39-.53,12.52-4.24,28.25-17.02,40.99-20.96,5.33-1.65,10.71-1.58,16.02,0,8.5,2.53,30.89,26.25,38.6,33.87ZM560.3,163.14l-63.86.3c-5.87,13.29-8.33,30.51-14.74,43.24-1.17,2.33-4.04,6.75-5.92,8.34-7.3,6.19-31.47,9.52-42,12.69-28.89,8.7-54.36,22.61-80.4,37.31-2.5,1.41-3.91,3.61-8.19,5.02-7.13,2.34-10.81,2.34-17.96-.11l-39.3-19.77-2.77.77-42.28,42.79c-.57,2.09,6.37,16.3,7.93,19.49,3.5,7.18,10.32,15.81,12.22,23.97,3.81,16.36-5.23,22.18-12.13,34.49-13.37,23.85-25.14,49.96-32.66,76.31-5,17.5-3.02,35.29-22.59,43.39l-39.17,12.79-1.67,2.32.5,60.53c1.44,2.86,40.99,12.87,48.46,18.52,10.04,7.59,12.31,31.67,15.98,43.98,7.33,24.62,18.66,48.5,31.18,70.79,6.76,12.04,15.8,18.79,12.11,34.51l-19.89,41.18.52,3.54,43.52,43.29,39.5-20.3c19.29-6.63,36.29,11.42,52.88,20.02,15.09,7.81,35.36,16.32,51.56,21.39,14.72,4.6,42.79,6.29,50.27,20.68,3.18,6.12,13.43,44.86,15.76,45.43l62.3-.53c7.91-13,10.05-43.24,21.71-52.54,7.67-6.11,33.69-9.61,44.65-13.04,17.21-5.39,36.57-13.99,52.53-22.42,7.92-4.18,28.46-18.66,34.87-20.09,4.15-.93,9.72-.71,13.87.26l43.16,20.86,43.84-44.25c.24-.98-6.89-16.29-7.97-18.5-3.84-7.81-11.47-17.91-13.42-26.78-2.88-13.11,6.58-21.48,12.33-31.69,12.64-22.44,23.97-45.76,31.43-70.54,4.45-14.8,5.38-38.59,19.01-46.97l45.69-16.48-.15-63.24c-16.3-5.52-33.7-9.43-48.81-17.64-1.29-2.04-4.47-4.7-5.49-6.5-4.66-8.21-7.62-29.7-10.82-40.17-9.88-32.33-23.85-52.44-38.84-81.12-5.11-9.78-6.49-13.04-2.59-23.93,4.52-12.63,14.23-25.99,19.3-38.73l.21-2.8-43.43-43.23c-3.2-1.05-3.15,1.51-4.07,1.92-10.53,4.65-38.13,20.72-47.53,20.03-10.87-.79-30.01-15.68-40.71-21.33-16.68-8.81-37.78-17.73-55.83-23.12-15.49-4.63-38.64-4.88-47.17-19.79l-14.93-44.56Z"/>
  <path class="st0" d="M683.65,312.66c164.25,115.22,154.21,359.61-19,460.15-160.73,93.28-367.32-1.08-403.66-181.58-48.46-240.7,221.04-420,422.66-278.57ZM681.98,374.35c-113.88-107.24-300.95-67.84-359.79,76.69-69.05,169.58,83.12,345.92,260.44,301.68,169.04-42.18,226.85-258.29,99.35-378.36Z"/>
  <path class="st0" d="M619.88,462c25.41,2.72,49.44,21.44,59.3,44.64,8.67,20.39,7.72,74.43,6.18,97.9-2.66,40.45-31.3,69.12-71.43,72.5l-203.77-.13c-13.31-2.83-21.02-10.9-22.44-24.54-4.83-46.49,3.39-100.62-.16-147.91,1.41-14.52,8.03-23.78,22.77-26.21,11.85-1.96,16.79-.43,27.55-8.43,23.52-17.49,11.93-43.21,20.89-66.09,18.86-48.16,86.09-55.4,115.48-13.06,15.11,21.77,11.89,46.03,12.16,71.33,10.7.83,22.97-1.12,33.47,0ZM437.55,525.5v101.5h179.33c.62,0,10.01-5.26,10.91-6.08,3.38-3.11,6.91-9.94,7.46-14.53-1.3-23.23,2.11-49.01.15-71.92-3.04-35.49-54.36-20.4-78.38-23.55-10.59-1.39-19.44-11.92-20.57-22.41-2.08-19.21,2.82-44.51-.06-62.94-.97-6.23-8.19-12.94-14.41-13.59-8.68-.91-17.52,5.92-18.5,14.53-.68,5.96.51,12.88-.02,18.98-2.36,27.51-20.75,55.76-44.27,69.68-6.89,4.08-14.69,6.4-21.65,10.33Z"/>
</svg>