<?xml version="1.0" encoding="UTF-8"?>
<svg id="Layer_1" data-name="Layer 1" xmlns="http://www.w3.org/2000/svg" viewBox="0 0 1080 1080">
  <defs>
    <style>
      .cls-1 {
        fill: #6f7c97;
      }
    </style>
  </defs>
  <path class="cls-1" d="M254.76,410.12c2.03-9.96,14.59-19.33,24.45-20.51l324.78-.02c12.77,2.21,19.8,7.11,23.7,19.26.39,1.23,1.72,2.13,1.72,2.27v246.27h139.37c7.61,0,20.82,14.3,20.49,22.47-1.65,87.81,2.1,175.91.62,263.59-.39,23-4.25,37-30.05,38.68H123.34c-18.55-1.3-28.1-10.99-29.47-29.48,3.34-87.66-4.15-176.31.02-263.86.31-6.59.78-12.91,4.18-18.76,2.3-3.97,12.12-12.65,16.33-12.65h140.37v-247.27ZM361.67,443.59h-52.95v213.8h266.75v-213.8h-52.95v85.42c0,.45-3.2,7.08-3.81,8.18-4.21,7.58-10.42,11.27-18.75,13.22-36.65-1.99-76.59,2.94-112.85.13-7.81-.61-15.7-4.27-20.26-10.71-1.1-1.56-5.18-9.54-5.18-10.81v-85.42ZM468.57,443.59h-52.95v52.95h52.95v-52.95ZM148.86,710.34v217.8h265.75v-217.8h-51.94c-.45,1.83-.92,3.51-1.05,5.44-1.67,24.99,3.12,55.76-.04,79.89-1.91,14.61-14.84,21.63-28.35,22.6-28.91,2.08-72.9,1.77-101.99,0-12.28-.74-26.25-6.45-28.98-19.97-1.28-6.34-1.17-21.3-1.24-28.53-.14-14.22.45-28.73.18-43.13-.07-4,2.12-11.49-.33-14.93l-52-1.39ZM307.72,710.34l-52.95,1v51.45c.88,1.43,1.99,1.38,3.45,1.55,6.39.75,13.96-.74,20.2-.67,9.7.1,19.56,1.22,29.3.62v-53.95ZM522.52,797.76v-85.92l-52.5-1.24-1.31,1.39,1.35,216.16h265.25v-217.8l-52.48.94-.53,85.42c-4.54,14.31-13.48,20.46-28.38,21.58-33.82-2-70.44,2.55-103.93-.05-11.28-.88-25.45-8.19-27.49-20.47ZM628.42,711.34h-52.95v51.45c0,.56,1.71,1.58,2.54,1.54l50.41-.04v-52.95Z"/>
  <path class="cls-1" d="M804.26,496.54l-254.47-254.66-2.84.83-87.46,87.4c-11.44,8.22-21.82,9.25-33.82,1.01L209.16,115.54c-22.74-26.25,9.13-61.37,37.09-39.59l195.04,194.69,2.84-.83,88.88-88.97c10.37-6.61,21.58-6.94,31.78.17,78.12,78.21,156.8,155.95,235.11,233.95,12.16,12.11,27.22,31.09,40.31,41.12,1.01.77,1.26,1.93,3,1.49v-48.46c0-1.98,6.77-10.7,8.64-12.3,16.8-14.47,42.47-4.64,44.35,17.26,3.07,35.73-2.4,75.77,0,111.97-.84,12.93-11.06,22.45-23.51,24.45l-115.62-.28c-23.08-6.31-29.28-35.57-8.68-49.09,1.01-.66,7.92-4.58,8.4-4.58h47.46Z"/>
</svg>