<?xml version="1.0" encoding="UTF-8"?>
<svg id="Layer_1" data-name="Layer 1" xmlns="http://www.w3.org/2000/svg" viewBox="0 0 1080 1080">
  <defs>
    <style>
      .cls-1 {
        fill: #08624c;
      }
    </style>
  </defs>
  <path class="cls-1" d="M820.43,660.75c-.83-5.89-12.5-16.93-17.81-16.93h-129.98v-228.68c0-8.42-13.78-21.2-22.95-20.14l-300.33-.07c-18.38.33-24.52,13.44-25.7,29.89l.06,219h-128.59c-8.44,0-20.57,14.04-20.17,22.94l-.04,254.45c.92,11.45,7.81,21.46,19.45,23.63l604.14.7c12.69-.33,22.13-10.57,22.94-22.94-.75-87.25,1.24-174.77-1.01-261.85ZM672.64,693.87v48.66l-46.71,1.32c-1.17.35-3.34-1.43-3.34-2.02v-47.96h50.05ZM473.85,445.03h50.05v48.66h-50.05v-48.66ZM373.76,445.03h50.05v79.93c0,1.08,3.39,6.67,4.39,8.12,5.24,7.63,10.75,9.91,19.88,10.7,33.22,2.84,70.52-2.13,104.19-.18,6.17.92,20.28-12.71,20.28-17.25v-81.32h50.05v198.79h-248.84v-198.79ZM373.76,693.87v47.96c0,4.52-25.16,1.03-28.5.97-3.41-.07-19.45,2.5-21.35-.49l-.19-48.45h50.05ZM473.85,895.44h-248.84v-201.57h50.05v79.93c0,.53,3.61,8.41,4.35,9.55,3.86,5.96,11.63,8.69,18.52,9.27,33.67,2.88,71.5-2.17,105.6-.18,6.98.71,20.28-13.04,20.28-18.64v-79.93h50.05v201.57ZM772.73,895.44h-248.84v-201.57h48.66v77.15c0,1.07,3,8.51,3.86,10.02,3.98,6.98,11.19,10.83,18.99,11.59,33.59,3.34,72.82-2.53,107-.19,8.87-.12,20.28-13.19,20.28-21.42v-77.15h50.05v201.57Z"/>
  <path class="cls-1" d="M835.28,493.69l-237.02-237.69-77.81,77.86c-11.14,9.8-21.82,16.09-35.95,6.69l-203.85-203.46c-17.75-23.28,7.66-52.45,33.68-36.77,48.8,48.47,97.91,97.37,146.39,145.86,12.51,12.51,23.84,26.24,37.63,37.51,29.59-26.46,56.58-56.38,85.4-83.91,8.67-5.87,21-4.86,29.56.83l227.69,228.27,30.41,28.67v-42.4c0-.62,3.6-8.29,4.39-9.51,11.32-17.46,39.74-12.94,44.7,7.68-1.04,33.51,4.66,74.59.96,107.48-1.57,13.93-10.74,21.82-24.28,22.98-25.74,2.21-75.93,2.32-101.59,0-19.56-1.76-30.55-23.77-18.72-39.69,1.54-2.08,13.44-10.41,14.61-10.41h43.79Z"/>
</svg>