<svg width="17" height="16" viewBox="0 0 17 16" fill="none" xmlns="http://www.w3.org/2000/svg">
<g clip-path="url(#clip0_61851_38882)">
<path d="M8.66699 0C5.8238 0 3.51074 2.32709 3.51074 5.1875C3.51074 6.78525 4.24124 8.21553 5.38574 9.16206V15.5312C5.38574 15.7208 5.49996 15.8918 5.67512 15.9643C5.85024 16.0369 6.05193 15.9968 6.18596 15.8627L8.66699 13.3817L11.1481 15.8627C11.2821 15.9968 11.4837 16.0369 11.6589 15.9643C11.8341 15.8918 11.9483 15.7208 11.9483 15.5312V9.16206C13.0928 8.21553 13.8233 6.78525 13.8233 5.1875C13.8232 2.32709 11.5102 0 8.66699 0ZM7.26074 13.4621L6.32324 14.3996V9.77962C6.6203 9.93184 6.93396 10.0561 7.26074 10.1488V13.4621ZM9.13574 12.5246L8.99843 12.3873C8.8154 12.2042 8.51859 12.2042 8.33552 12.3873L8.19824 12.5246V10.3222C8.35268 10.3362 8.50896 10.3438 8.66699 10.3438C8.82502 10.3438 8.9813 10.3362 9.13574 10.3222V12.5246ZM11.0107 14.3996L10.0732 13.4621V10.1488C10.4 10.0561 10.7137 9.93184 11.0107 9.77962V14.3996ZM8.66699 9.40625C6.34077 9.40625 4.44824 7.51372 4.44824 5.1875C4.44824 2.84403 6.34077 0.9375 8.66699 0.9375C10.9932 0.9375 12.8857 2.84403 12.8857 5.1875C12.8857 7.51372 10.9932 9.40625 8.66699 9.40625Z" fill="#6F7C97"/>
<path d="M11.6775 4.25966C11.6223 4.09 11.4756 3.96638 11.299 3.94081L9.79925 3.72363L9.12619 2.33466C9.04785 2.17297 8.884 2.07031 8.70435 2.07031C8.70429 2.07031 8.70419 2.07031 8.70413 2.07031C8.52438 2.07041 8.36053 2.17325 8.28232 2.33506L7.6106 3.72469L6.1111 3.94331C5.93457 3.96906 5.78791 4.09278 5.73285 4.26253C5.67779 4.43225 5.72388 4.6185 5.85172 4.743L6.939 5.80178L6.68313 7.29775C6.65303 7.47363 6.72544 7.65131 6.86985 7.75612C7.0141 7.86084 7.2055 7.87472 7.3635 7.79156L8.70653 7.08469L10.0502 7.79028C10.2083 7.87325 10.3996 7.85928 10.5438 7.75437C10.6882 7.64944 10.7604 7.47166 10.7301 7.29581L10.4729 5.80009L11.5592 4.74022C11.6869 4.61562 11.7328 4.42931 11.6775 4.25966ZM9.64175 5.30119C9.53135 5.40894 9.48097 5.56413 9.50713 5.71616L9.64519 6.51869L8.92422 6.14009C8.78757 6.06834 8.62444 6.06844 8.48797 6.14031L7.76735 6.51959L7.90463 5.71694C7.93063 5.56488 7.88016 5.40972 7.76963 5.30209L7.18622 4.73397L7.992 4.61647C8.14594 4.59403 8.27872 4.49669 8.34641 4.35663L8.70488 3.61509L9.064 4.35628C9.13185 4.49628 9.26472 4.5935 9.41866 4.61578L10.2246 4.7325L9.64175 5.30119Z" fill="#6F7C97"/>
</g>
<defs>
<clipPath id="clip0_61851_38882">
<rect width="16" height="16" fill="white" transform="translate(0.666992)"/>
</clipPath>
</defs>
</svg>
