<?xml version="1.0" encoding="UTF-8"?>
<svg id="Layer_1" xmlns="http://www.w3.org/2000/svg" version="1.1" viewBox="0 0 1080 1080">
  <!-- Generator: Adobe Illustrator 29.7.1, SVG Export Plug-In . SVG Version: 2.1.1 Build 8)  -->
  <defs>
    <style>
      .st0 {
        fill: #6f7c97;
      }
    </style>
  </defs>
  <path class="st0" d="M696.89,995.11c-4.86,43.95-43.87,80.95-87.63,84.89H87.65c-47.09-5.29-83.26-41.75-87.68-88.92V88.98C3.48,43.22,38.77,4.8,84.86,0l531.04.23c31,4.73,60.87,27.06,73.09,55.96,1.76,4.16,7.91,24.18,7.91,27.41v170.48h294.1c43.15,0,86.9,43.19,89.03,86.21v398.14c.3,38.31-45.63,86.19-83.6,86.19h-299.53v170.48ZM63.87,89.04c-2,10.27,1.48,26.39,0,37.36h569.18v-37.36c0-3.6-8.18-15.71-11.51-18.37-4.71-3.77-11.56-6.57-17.65-6.81H94.37c-13.62-.62-28.02,12.4-30.51,25.18ZM633.05,190.24H63.87v699.59h569.18V190.24ZM989.64,317.93h-292.74v62.49h319.23v-36c0-4.29-2.91-6.55-3.95-8.54-.92-1.76-.66-3.56-2.3-5.65-3.3-4.22-15.31-11.35-20.24-12.3ZM1016.12,445.63h-319.23v62.49h319.23v-62.49ZM1016.12,571.96h-319.23v188.82h294.1c7.74,0,25.13-16.83,25.13-25.13v-163.69ZM633.05,953.68H63.87v36c0,3.39,7.59,15.01,10.83,17.7,5.77,4.77,12.3,7.57,19.72,8.8l505.4.05c7.92-.22,15.55-3.43,21.65-8.23,3.6-2.84,11.58-14.46,11.58-18.31v-36Z"/>
  <path class="st0" d="M394.81,391.83c9.71,5.18,33.57,21.34,38.33,31.6,11.81,25.41-8.9,50.87-35.7,46.56-10.36-1.66-21.97-16.81-33.04-21.3-13.67-5.53-29.68-4.58-39.69,7.15-13.81,16.19-8.03,39.8,11.01,48.7,13.5,6.31,30.15,2.59,46.73,8.96,79.64,30.6,80.9,143.16,4.3,176.93-2.11.93-4.08,1.11-6.33,1.13-2.05,20.76,6.82,48.49-12.38,63.02s-48.73,3.08-51.53-21.64c-.77-6.79,1.41-37.41-.59-40.16-12.99-5.02-25.68-11.88-36.57-20.54-6.78-5.39-22.43-20.94-25.58-28.7-10.89-26.87,13.87-52.01,41.27-42.63,9.49,3.25,14.04,12.51,21.2,18.53,16.5,13.85,40.07,23.23,55.94,3.44,8.02-10.01,9.87-21.35,4.63-33.1-10.13-22.73-32.76-16.05-52.2-21.16-46.76-12.28-77.29-57.61-70.4-105.81,4.87-34.06,28.28-65.06,62.14-75.74,2.06-22.46-7.6-53.69,17.77-65.78,10.06-4.8,18.57-4.8,28.63,0,24.85,11.85,15.93,41.52,17.79,63.72,1,2.85,11.35,5.29,14.25,6.84Z"/>
  <path class="st0" d="M945.07,643.01c17.77,19.13,7.38,49.8-18.01,55.2h-141.11c-34.23-8.48-36.16-54.03-1.35-63.68l142.58-.12c3.52.43,15.6,6.13,17.89,8.59Z"/>
</svg>