<svg width="16" height="16" viewBox="0 0 16 16" fill="none" xmlns="http://www.w3.org/2000/svg">
<g clip-path="url(#clip0_61851_38904)">
<path d="M12.75 0.46875H3.25V6.71875H12.75V0.46875Z" stroke="#6F7C97" stroke-width="0.9375" stroke-miterlimit="10" stroke-linecap="round" stroke-linejoin="round"/>
<path d="M8 4.84375C8.69036 4.84375 9.25 4.28411 9.25 3.59375C9.25 2.90339 8.69036 2.34375 8 2.34375C7.30964 2.34375 6.75 2.90339 6.75 3.59375C6.75 4.28411 7.30964 4.84375 8 4.84375Z" stroke="#6F7C97" stroke-width="0.9375" stroke-miterlimit="10" stroke-linecap="round" stroke-linejoin="round"/>
<path d="M10.75 0.46875C10.75 1.57344 11.6453 2.46875 12.75 2.46875" stroke="#6F7C97" stroke-width="0.9375" stroke-miterlimit="10" stroke-linecap="round" stroke-linejoin="round"/>
<path d="M3.25 2.46875C4.35469 2.46875 5.25 1.57344 5.25 0.46875" stroke="#6F7C97" stroke-width="0.9375" stroke-miterlimit="10" stroke-linecap="round" stroke-linejoin="round"/>
<path d="M10.75 6.71875C10.75 5.61406 11.6453 4.71875 12.75 4.71875" stroke="#6F7C97" stroke-width="0.9375" stroke-miterlimit="10" stroke-linecap="round" stroke-linejoin="round"/>
<path d="M3.25 4.71875C4.35469 4.71875 5.25 5.61406 5.25 6.71875" stroke="#6F7C97" stroke-width="0.9375" stroke-miterlimit="10" stroke-linecap="round" stroke-linejoin="round"/>
<path d="M10.2705 10.9703L12.2507 9.41274C12.6798 9.09477 13.2848 9.18499 13.6028 9.61408C13.731 9.78708 13.7925 9.98842 13.7925 10.1885C13.7925 10.4436 13.692 10.6958 13.5 10.882" stroke="#6F7C97" stroke-width="0.9375" stroke-miterlimit="10" stroke-linecap="round" stroke-linejoin="round"/>
<path d="M7.97759 10.8219H9.75131C10.278 10.8219 10.7229 11.2349 10.7374 11.7613C10.7525 12.3073 10.3141 12.7548 9.77128 12.7548L10.2033 12.7484C10.7393 12.7458 11.2615 12.5766 11.6977 12.2651L13.9904 10.5377C14.4195 10.2198 15.0245 10.31 15.3421 10.7391C15.6601 11.1679 15.5699 11.7732 15.1408 12.0908L11.7077 14.7312C11.0106 15.2463 10.1675 15.5259 9.30066 15.5295H7.39444C6.50459 15.5295 5.62472 15.3423 4.81188 14.9802L3.04688 14.1938V10.822" stroke="#6F7C97" stroke-width="0.9375" stroke-miterlimit="10" stroke-linecap="round" stroke-linejoin="round"/>
<path d="M3.04688 10.8242L3.15575 10.7377C4.65678 9.54429 6.48962 9.61473 7.97772 10.8242" stroke="#6F7C97" stroke-width="0.9375" stroke-miterlimit="10" stroke-linecap="round" stroke-linejoin="round"/>
<path d="M9.77058 12.7578H7.85352" stroke="#6F7C97" stroke-width="0.9375" stroke-miterlimit="10" stroke-linecap="round" stroke-linejoin="round"/>
<path d="M3.04591 9.71484H0.46875V15.2869H3.04591V9.71484Z" stroke="#6F7C97" stroke-width="0.9375" stroke-miterlimit="10" stroke-linecap="round" stroke-linejoin="round"/>
</g>
<defs>
<clipPath id="clip0_61851_38904">
<rect width="16" height="16" fill="white"/>
</clipPath>
</defs>
</svg>
