<?xml version="1.0" encoding="UTF-8"?>
<svg id="Layer_1" xmlns="http://www.w3.org/2000/svg" version="1.1" viewBox="0 0 1080 1080">
  <!-- Generator: Adobe Illustrator 29.7.1, SVG Export Plug-In . SVG Version: 2.1.1 Build 8)  -->
  <defs>
    <style>
      .st0 {
        fill: #6f7c97;
      }
    </style>
  </defs>
  <path class="st0" d="M442.64,935.52H35.18c-.83,0-9.02-2.06-10.5-2.58-12.96-4.57-20.51-18.11-20.8-31.5V32.67C5.09,17.4,11.79,7.15,25.85.87l715.34-.87c11.68,2.27,20.41,11.11,24.7,21.78l.96,296.82c.68,2.24,2.07,2.52,3.71,3.55,1.78,1.12,26.54,10.1,28.79,10.44,22.74,3.45,61.5-8.7,76.77,11.84,20.38,27.42-10.74,50.71-25.9,71.18-21.06,28.43-40.52,58.05-61.81,86.32.12,1.62,25.8,10.23,29.98,12.08,153.49,68.03,213.26,288.43,209.72,442.64-1.58,68.78-32.65,119.39-106.84,121.86-131.54,4.38-264.7-3-396.2-2.46-26.01-6.22-49.73-22.08-64.47-44.48-19.6-29.79-17.69-61.63-17.97-96.06ZM701.93,62.5H67.87v809.11h376.95c4.81-5.98,2.72-15.34,3.8-22.34,21.49-139.42,88.69-302.25,235.15-346.64l-94.51-128.45c-4.21-12.07.79-28.19,11-35.66,16.1-11.78,51.2-2.88,71.07-5.92,2.82-.43,26.49-9,28.78-10.44,1.64-1.03,3.04-1.31,3.71-3.55l-1.9-256.11ZM683.78,395.16l51.58,69.71,50.07-68.92c-.62-2.65-43.87-16.82-50.09-18.38l-51.56,17.6ZM847.32,609.32c-99.83-93.83-206.56-44.61-270.79,58.45-50.86,81.61-77.2,209.31-70.03,304.85,1.65,21.98,13.04,38.18,35.59,41.4l392.72-1.05c20.16-7.02,27.79-21.37,29.3-41.87,8.49-114.64-30.76-280.92-116.79-361.78Z"/>
  <path class="st0" d="M249.05,524.76c30.15-6.11,45.59,24.41,68.17,37.21,23.06,13.07,68.2,14.73,68.82,48.97.3,16.65-8.37,37.98-8.23,53.93.15,16.88,8.23,38.75,8.23,56.45,0,33.46-44.19,35.42-66.7,48.04-17.04,9.55-41,39.23-60.43,39.92-19.98.71-43.44-30.05-60.97-39.42-17.03-9.1-55.16-15.73-63.84-33.49-8.88-18.17,3.9-48.62,4.12-68.85.23-21.31-13.72-53.64-3.58-72.69,8.76-16.45,44.15-22.09,60.6-30.91,14.29-7.67,41.24-36.62,53.8-39.16ZM198.85,701.42c22.83,7.71,40.86,17.79,58.92,33.46,9.87-3.72,18.28-14.22,27.52-19.9,10.4-6.39,22.67-8.61,33.18-14.7,1.28-2.22-5.24-29.7-5.24-35.67,0-5.38,6.11-31.34,5.26-32.77-10.86-6.61-24.45-9.05-35.2-15.61-6.88-4.19-17.32-15.97-23.76-18.47-1.56-.61-2.68-1.2-4.24-.04-16.29,17.49-35.7,25.69-57.46,34.11-.95,1.65,5.17,30.03,5.23,35.65.07,6.89-6.67,30.02-4.21,33.93Z"/>
  <path class="st0" d="M154.65,126.76l460.13-.35c38.82,9.02,31.77,62.2-7.29,63.89H163.03c-38.76-3.82-44.55-51.66-8.38-63.54Z"/>
  <path class="st0" d="M160.48,251.71l364.24-.39c39.02,4.15,42.71,56.36,4.36,63.94l-370.41-.03c-37.64-6.06-37.35-58.24,1.81-63.52Z"/>
  <path class="st0" d="M153.17,379.5l204.4-.24c32.84,10.19,31.46,53.67-1.45,62.28h-200.28c-31.47-9.24-33.57-50.39-2.66-62.04Z"/>
  <path class="st0" d="M766.81,647.66c12.9,2.85,21.88.06,31.51,11.36,11.21,13.16,10.03,34.36-3.45,45.5-15.74,13.01-43.01,5.23-62.43,7.29-17.23,1.83-24.84,21.84-10.8,32.6,16.3,12.49,46.49,20.05,64.3,33.03,44.1,32.14,44.44,99.85.89,132.56-3.39,2.54-18.71,9.58-19.54,10.97-1.43,2.4-.42,7.88-1.41,11.67-8.8,33.88-59.44,27.97-63.12-6.65-30.76,3.42-51.25-31.66-29.15-54.7,14.95-15.59,46.49-7.97,66.17-9.78,17.44-1.61,22.31-22.68,6.96-33.24s-39.97-18.15-57.02-28.68c-58.33-36.01-48.26-121.43,14.17-146.1-2.6-42.16,57.96-47.3,62.93-5.82Z"/>
</svg>