<?xml version="1.0" encoding="UTF-8"?>
<svg id="Layer_1" xmlns="http://www.w3.org/2000/svg" version="1.1" viewBox="0 0 1080 1080">
  <!-- Generator: Adobe Illustrator 29.7.1, SVG Export Plug-In . SVG Version: 2.1.1 Build 8)  -->
  <defs>
    <style>
      .st0 {
        fill: #6f7c97;
      }
    </style>
  </defs>
  <path class="st0" d="M607.74,194.51c11.62,1.94,21.79,15.47,23.28,26.72l.03,187.9c-6.76,32.06-34.76,24.4-59.72,26.7v59.79h457.09c.91,0,9.87,3.18,11.3,3.91,9.05,4.6,14.47,15.01,15.38,24.84v485.99c-1.36,14.98-14.09,26.36-28.81,27.72l-854.19-.31c-13.21-2.92-22.11-12.06-24.63-25.38l-.04-211.93-1.69-3.75H51.18c-9.33,0-24.5-15.56-24.46-25.54l-.05-369.65c.71-7.54,6.85-17.42,13.23-21.55,1.2-.78,10.67-5.02,11.29-5.02h35.33v-119.03l-1.63-1.63h-33.7c-9.01,0-26.21-17.27-24.5-27.68l.04-191.36c1.26-11.1,13.29-24.29,24.46-25.55,14.94-1.68,32.77.15,47.78.06,147.81-.91,295.63.85,443.32-.69,9.73.44,20.61,7.45,24.88,16.2.75,1.53,4.15,11.21,4.15,12.15v155.44l1.63,1.63c10.53,1.24,24.77-1.67,34.78,0ZM510.45,69.5H89.23c-.36,0-1.65,1.44-2.72,1.09v122.29l1.63,1.63h422.31v-125.01ZM571.32,374.96v-119.03l-1.63-1.63H147.92v120.66h423.4ZM510.45,434.74l-423.94,1.09v119.57h60.88c.5-19.78-5.66-47.85,17.4-57.06,1.51-.6,8.22-2.73,9.23-2.73h336.43v-60.87ZM265.32,555.4h-56.53l-1.63,1.63v57.61c6.11,3.61,20.29-1.52,26.83-4.69,19.2-9.31,34.02-31.02,32.78-52.75l-1.46-1.8ZM329.46,978.26h260.89c.16,0,2.85-1.31,2.71-1.63-5.02-2.09-9.24-3.35-13.09-7.56-2.09-2.29-7.83-11.64-8.4-14.43-1.66-8.17,1.73-39.02-1.22-43.12-33.34-10.38-58.69-45.61-59.89-80.56-1.39-40.49,52.9-47.02,60.37-7.11.83,4.42.18,8.02,1.52,12.61,3.38,11.53,16.74,21.48,28.85,21.23,7.65-.16,14.51-4.44,20.9-8.01,5.93-9.66,10.86-15.98,8.74-28.23-5.11-29.57-35.38-22.39-56.24-28.55-32.45-9.58-57.46-38.67-62.77-72.02-7.09-44.47,18.53-83.49,58.97-100.23,2.97-22.08-7.44-49.85,17.47-61.88,2.07-1,5.39-.5,5.87-2.27l-9.18-1.15-256.11.53c-1.9,7.81-1.83,16.63-3.49,24.77-8.01,39.44-39.19,74.92-76.93,88.3-13.34,4.73-27.1,7.16-41.28,7.74l.17,179.13,2.56,1.79c54.94-.19,104.58,42.13,115.5,95.39,1.47,7.18,1.24,15.63,2.45,22.55.21,1.23.56,2.03,1.63,2.72ZM611,978.26h261.97c2.97-2.73,1.25-7.59,1.64-11.4,6.06-59.27,51.17-101.66,109.25-109.24,2.97-.39,10.23,1.31,11.25-1.8l-.3-178.7c-1.5-2-7.2-.72-9.87-1.06-61.94-7.85-101.96-48.8-110.33-110.34-.4-2.95,1.29-9.11-1.83-10.16l-260.65-.11-2.76,2.12c28.74,7.79,20.11,40.49,22.27,63.08,16.93,8.49,32.25,18,43.4,33.78,10.56,14.95,20.51,43.5,14.71,61.26-6.89,21.11-33.11,28.17-49.28,12.44-15.01-14.6-3.67-34.49-22.73-46.84-32.37-20.98-63.08,23.97-37.33,47.65,9.46,8.7,18.47,6.67,29.36,8.14,93.26,12.57,111.72,133.03,28.27,172.57-2.18,1.03-4.51.94-6.46,2.24-2.63,20.63,6.55,50.15-15.99,62.27-.67.36-10.12,2.75-4.59,4.1ZM995.26,614.65v-57.61c-1.86-1.9-6.31-1.56-9.17-1.66-13.42-.48-35.15-1.47-47.92-.05-1.18.13-2.55.02-3.3,1.1-1.99,2.85,2.22,17.7,3.68,21.46,5.75,14.9,19.5,28.43,34.39,34.09,3.58,1.36,21.02,6.89,22.33,2.67ZM86.51,736.94h59.24l1.54-1.8c.21-8.7-1.26-17.42.14-25.88-2.56-28.12,3.23-61.79,0-89.23-.19-1.58-.13-2.8-1.69-3.75h-57.61l-1.63,1.63v119.03ZM207.17,919.01v57.61l1.63,1.63h56.53c3.34-4.09,1.34-12.34-.03-17.36-4.35-15.97-16.99-30.75-32.08-37.49-3.98-1.78-24.49-9.39-26.05-4.39ZM936.02,978.26h57.61l1.63-1.63v-56.53c0-.4-1.11-1.76-1.27-2.54-24.7-.52-48.41,17.47-56.38,40.54-1.18,3.42-5.47,18.94-1.59,20.15Z"/>
</svg>