<?xml version="1.0" encoding="UTF-8"?>
<svg id="Layer_1" data-name="Layer 1" xmlns="http://www.w3.org/2000/svg" viewBox="0 0 1080 1080">
  <defs>
    <style>
      .cls-1 {
        fill: #6f7c97;
      }
    </style>
  </defs>
  <path class="cls-1" d="M623.42,744.31l1.46,5.03,97.22,168.53c6.1,14.12-2.46,28.72-16.7,32.8l-527.11.48c-15.78-1.68-26.35-17.69-20.65-32.72l96.29-166.47,2.83-7.66h-106.4c-8.95,0-20.84-15.29-19.52-24.44V159.32c1.16-14.84,8.8-23.01,23.47-25.48h570.55c15.38,1.15,24.55,12.37,24.48,27.47v558.57c-.39,8.48-4.95,17.25-12.5,21.48-.92.52-6.65,2.96-7.03,2.96h-106.4ZM700.35,181.83h-163.35l-1.5,1.5v161.85c0,3.69-6.02,11.56-9.06,13.92-15.38,11.88-35.39-2.47-49.9-9.9-6.26-3.2-32.66-19.18-37.37-18.52l-58.66,31.35c-11.24,4.66-25.42.15-31.02-10.68-.46-.89-2.82-6.79-2.82-7.17v-160.85l-1.5-1.5h-164.85l-1.5,1.5v511.53l1.5,1.5h104.9l134.55-232.11c10-14.55,29.57-14.51,40.22-.61l134.94,232.72h105.4V181.83ZM487.55,181.83h-91.42l-1.5,1.5v115.39c18.49-4.46,34.21-25.27,54.66-18.19l38.25,19.19v-117.89ZM223.29,903.16h434.1l-218.26-376.69-215.84,376.69Z"/>
  <path class="cls-1" d="M423.95,775.94c-5.81-5.32-7.74-13.6-8.32-21.15-1.88-24.49-1.11-59.08-.06-83.96.48-11.2.8-21.95,11.29-28.67,16.58-10.62,36.18,1.12,37.59,19.85-1.99,30.6,3.14,65.58,0,95.67-2.12,20.29-24.99,32.46-40.5,18.26Z"/>
  <path class="cls-1" d="M456.24,812.59c24.08,22.31-10.08,56.35-32.27,35.27-23.85-22.65,9.97-55.94,32.27-35.27Z"/>
</svg>