<?xml version="1.0" encoding="UTF-8"?>
<svg id="Layer_1" data-name="Layer 1" xmlns="http://www.w3.org/2000/svg" viewBox="0 0 1080 1080">
  <defs>
    <style>
      .cls-1 {
        fill: #8797c2;
      }
    </style>
  </defs>
  <path class="cls-1" d="M495.8,1.68c199.14-18.54,376.97,118.58,390.45,321.19,7.61,114.28,5.39,193.43,62.61,298.15,20.85,38.15,76.59,104.62,71.45,147.59-5.14,42.99-40.53,65.13-80.88,68.14-68.2,5.08-138.37-5.87-206.4,2.91-191.57-10.83-398.15,13.87-587.97-.05-46.55-3.41-86.45-27.71-85.7-78.83.61-41.16,63.23-119.64,83.03-161.63,47.04-99.79,42.73-179.26,49.97-285.01C202.96,159.12,340.43,16.14,495.8,1.68ZM883.42,727.87c-55.61-83.47-90.13-176.78-102.85-276.59-12.79-100.4,8.66-177.62-64.84-261.58-132.53-151.38-392.88-70.53-411.07,127.78-9.82,107.05-4.82,215.1-54.34,314.99l-52.1,95.39h685.21Z"/>
  <path class="cls-1" d="M398.11,923.16c35.37-7.26,41.52,10.04,65.81,24.6,42.77,25.65,88.93,30.1,134.79,9.65,17.71-7.89,37.38-29.74,52.41-33.55,62.21-15.78,100.63,52.44,50.33,98.91-83.26,76.92-256.5,78.58-332.47-8.83-26.2-30.14-9.69-82.8,29.14-90.78Z"/>
</svg>