<?xml version="1.0" encoding="UTF-8"?>
<svg id="Layer_1" data-name="Layer 1" xmlns="http://www.w3.org/2000/svg" viewBox="0 0 1080 1080">
  <defs>
    <style>
      .cls-1 {
        fill: #8997c4;
      }

      .cls-2 {
        fill: #8797c2;
      }
    </style>
  </defs>
  <path class="cls-2" d="M584.15,196.5c-.11.5-.74,2.21-1,3-5.84,17.59-16.35,18.02-28.47,28.03-2.4,1.98-10.65,9.91-11.77,12.23-2.32,4.8.31,3.19,2.57,4.87,2.46,1.83,5.43,3.9,7.67,5.87.55.48,1.35,1.37,2,2,23.06,22.5,29.99,56.96,15.86,86.36-1.25,2.6-7.87,12.12-7.87,13.16,0,2.5,3.14,3.31,4.01,4.49.31.41.78.69,1,1,13.07,17.98,27.69,34.69,42,52,.73.88,1.55,1.46,2,2,9.85,11.94,18.94,24.7,29.03,36.47,1.17,1.36,2.36,2.68,3.97,3.53-.2,1,.76,1.51,1,2,1.45,2.89,4.98,6.2,7,9,.72,1,1.67,1.55,2,2,11.92,16.33,24.86,33.41,36,50,.2.3.04,2.2.92,3.53,1.79,2.72,4.57,8.21,7.08,9.47,3.65,1.84,5.78.57,9.49,1.01,12.9,1.5,29.08,3.61,41.51,6.99.39.11,1.12.75,2,1,21.47,6.17,46.74,18.15,65,31,1.04.73,2.29,1.48,3,2,12.21,9,27.31,22.23,37,33,.32.35.69.65,1,1,3.96,4.46,9.47,12,13,17,.33.47.83.75,1,1,17.44,25.29,29.3,54.05,36,84,.29,1.28.88,2.42,1,3,1.12,5.4,2.4,11.57,3,17,.04.33-.03.67,0,1,.29,2.83,1,9.29,1,11.5v25c0,3.82-1.46,11.14-2,15.5-.04.33.04.67,0,1-.61,4.58-1.05,9.5-2,14-.02.11-.7.65-1,2-2.63,11.73-5.82,24.77-10,36-.11.29.11.71,0,1-5.51,14.49-19.6,38.08-29,51-.55.76-.75,1.66-1,2-13.87,18.52-35.16,36.16-53.99,49.55l-1.01,2.45v1c-7.34.57-9.8,4.34-15.98,7.52-98.82,50.96-216.89,28.27-285.02-60.52-.25-.32-.42-1.24-1-2-1.74-2.31-5.08-10.02-7.69-10.81-4.26-.24-8.63-.39-12.9-.23-1.32.05-2.28,1.04-2.41,1.05-.33.01-.67,0-1,0-34.33.8-69.91.95-104-3-.33-.04-.67.04-1,0-16.24-1.93-36.1-5.95-52-10-.31-.08-.69.08-1,0-17.44-4.54-35.72-11.31-52-19-.27-.13-.73.13-1,0-15.55-7.48-39.45-23.52-52-35-.34-.31-.65-.68-1-1-20.15-18.91-39.19-52.57-47-79-1.77-5.98-3.84-15.76-5-22-1.76-9.45-3.44-20.7-4-30-.02-.33.02-.67,0-1-.92-17.11.26-37.28,4-54,.02-.11.69-.68,1-2,3.8-16.02,9.31-32.96,16-48,.28-.64.68-1.3,1-2,7.48-16.41,19.22-36.73,29-52,.15-.24.68-.51,1-1,11.07-17.14,23.79-34.94,36-51,.21-.27.66-.56,1-1,13.19-17.27,27.24-34.18,41-51,.44-.53,1.27-1.11,2-2,7.99-9.77,22.4-24.12,28.45-34.05,1.23-2.02,1.31-2.68,1.55-4.95h1c5.85-1.42,8.29-9.21,11-13,.22-.31.7-.58,1-1,1.04-1.49,4.39-1.82,3.87-5.27-.23-1.52-7.26-11.96-8.73-15.37-12.29-28.48-5.3-61.81,16.86-83.36.65-.63,1.46-1.53,2-2,1.71-1.5,11.97-7.77,11.98-8.5-3.98-4.64-7.84-9.49-12.51-13.47-12.52-10.68-23.18-10.7-29.47-29.03-.1-.29.09-.69,0-1-.36-1.22-2-6.16-2-6.5v-18c0-1.85,3.9-13.35,5-15.5.93-1.8,7.6-11.43,9-13,8.1-9.09,23.43-15.91,35.52-16.98l163.73.24c32.51,4.55,54.1,35.48,46.76,67.74ZM396.15,198.5c.65.67,1.44,1.38,2,2,8.61,9.5,14.98,20.97,21.66,31.84l67.9.22c1.25.09,2.03-.22,2.96-1.04s5.81-11.02,7.47-13.53c3.39-5.15,9.13-13.19,13.02-17.48.53-.58,1.33-1.3,2-2,3.67-3.85,8.88-8.05,13.1-11.4,1.79-1.42,8.59-5.19,8.89-5.62.45-.66-.18-1.99-.98-2.5-1.94-1.24-40-.47-46.01-.49-.33,0-.67,0-1,0-17.32-.05-34.68-.04-52,0-.33,0-.67,0-1,0-7.57.02-56.54-1.12-59.03.47-1.09.7-1.26,1.38-.49,2.56.68,1.03,10.68,7.07,13,9.01,2.51,2.1,6.27,5.62,8.53,7.97ZM383.15,297.5c-.06.14-1.35.46-1.74,1.72-1.99,6.38-1.42,9.28.74,15.28,3.36,9.32,10.38,15.67,20.61,16.89,31.77,3.8,70.38-2.6,102.88.1,12.38-1.11,23.92-12.68,23.48-25.38-.03-.77-.95-1.38-.97-1.61-.04-.33.05-.68,0-1-2.89-17.1-13.33-21.08-29.46-22.04-25.3-1.51-59.69-1.31-85.08,0-3.93.2-10.15.61-13.87,1.13-6.29.88-11.93,5.6-15.26,10.77-1.18,1.83-.85,3.03-1.33,4.14ZM383.15,386.5c-.43.53-1.28,1.14-2,2-5.5,6.54-10.73,13.66-16,20-.45.54-1.27,1.13-2,2-11.06,13.3-22.23,26.73-33,40-3.47,4.27-7.44,8.57-11,13-26.82,33.38-52.24,65.3-73,103-.37.67-.65,1.35-1,2-9.83,18.2-16.16,30.7-22,51-.13.45-.76,1.12-1,2-7.26,26.92-6.9,55.93,0,83,.23.9.89,1.58,1,2,9.14,33.57,20.3,50.56,47,72,1.86,1.49,3.49,3.6,7,6,17.48,11.95,31.82,17.84,52,24,.3.09.69-.09,1,0,18.54,5.53,32.6,8.55,52,11,.33.04.67-.04,1,0,17.03,2.06,33.64,3.31,51,4,.33.01.67-.01,1,0,3.39.13,6.52.99,9.46,1.04,11.6.19,22.98-.65,34.54-1.05-3.64-14.57-8.13-29.02-10-43.99-.04-.33.04-.67,0-1-1.1-9.27-1.09-18.7-2.01-28-18.98,9.04-40.64-3.2-37.99-25.01-1.2-.22-3,.3-4.01,0-.42-.12-1.12-.74-2-1-14.11-4.21-38.02-12.53-40-29.5-.39-3.33.28-7.11,0-10.5,1.94-2.67,3.9-8.74,6-11,6.51-7.02,19.32-8.75,27.98-5.48,15.78,5.96,21.57,13.1,41.43,10.4,11.43-1.55,22.37-15.91,17.35-27.17-6.04-13.55-48.23-24.92-63.09-35.91-33.04-24.43-33.02-71.45-1.68-97.34,3.37-2.78,16.99-9.6,17.53-10.47,2.02-3.32-.83-11.39,5.49-19.01.3-.37,1.59-1.63,2-2,14.55-12.88,37.48-6.45,41.76,12.73.46,2.07-.21,6.2.37,7.13.26.42,6.39,1.98,7.85,2.65,12.46,5.76,27.76,14.4,28.09,29.97.31,14.73-11.6,25.77-26.07,25.51-.33,0-.67.03-1,0-9.14-.87-12.85-7.43-20.45-10.05-10.85-3.73-28.24-2.52-29.26,11.76-.05.76.7,1.17.71,1.29.03.33-.06.7,0,1,1.27,6.1,2.24,6.03,7.33,9.17,20.98,12.96,51.08,16.13,66.18,38.84l11.98-14.02c11.42-11.42,23.47-23.42,36.51-32.99.72-.53,1.96-1.27,3-2,8.48-5.97,20.71-13.59,30-18,.27-.13.73.13,1,0,6.23-2.9,13-5.72,19.48-8.02,8.73-3.1,19.09-4.81,27.12-7.89,1.04-.4,1.73.53,1.42-1.6-15.64-24.09-34.02-46.19-52.02-68.5-.73-.91-1.58-1.48-2-2-13.85-17.13-27.95-34.04-42-51-1.97-2.37-4.07-4.67-6-7-3.34-4.03-17.1-23.48-20.56-24.02-2.58-.41-5.23,1-7.9,1.06-35.99.79-76.31,1.57-112.09,0-2.92-.13-9.46-2.1-10.85-1.83-2.32.45-4.41,6.34-5.6,7.78ZM646.15,583.5c-.31.08-.69-.08-1,0-20.93,5.6-33.41,12.35-51,24-.45.3-1.23.47-2,1-6.89,4.73-9.15,6.86-15,12-.36.32-.66.69-1,1-16.6,14.85-23.58,22.47-35,42-2.39,4.09-3.81,6.53-6,11-8.91,18.16-13.12,30.75-16,51-.05.33.04.67,0,1-4.98,37.74.14,71.29,18,105,1.33,2.51,2.96,4.22,4,6,12.06,20.58,21.34,31.88,40,47,4.45,3.61,8,6.71,13,10,16.57,10.9,31.78,17.91,51,23,.31.08.69-.08,1,0,18.48,4.71,32.63,6.81,52,6,.33-.01.67.02,1,0,38.97-2.02,75.99-17.25,105-43,.81-.72,1.36-1.41,2-2,15.72-14.53,25.92-27.03,36-46,.18-.35.81-.63,1-1,6.88-13.36,11.36-26.56,15-41,1.03-4.09,2.31-7.73,3-12,.47-2.88,2-9.26,2-11.5v-33c0-1.32-1.79-5.97-2-7.5-.88-6.27-1.5-9.9-3-16-3.35-13.62-6.98-23.42-13-36-.33-.69-.66-1.33-1-2-10.21-20.43-21.29-34.48-38-50-.64-.6-1.18-1.28-2-2-43.57-38.61-101.58-51.58-158-37Z"/>
  <path class="cls-1" d="M751.15,674.5c.63.2,1.37.68,2,1,7.97,4.01,14.26,13.4,14.08,22.49-.23,11.21-8.05,18.09-15.08,25.51-.94.99-2.02,1.98-3,3-16.27,16.86-33.34,33.49-50,50-1.01,1-2,2.01-3,3-12.75,12.65-29.65,31.91-42.98,42.52-1.17.93-5.95,4.09-7.02,4.48-.28.1-.68-.09-1,0-20.29,5.84-37.65-11.68-31.3-31.8,1.88-5.97,6.13-9.76,10.3-14.2.62-.66,1.34-1.32,2-2,6.14-6.4,12.74-12.66,19-19,.66-.67,1.33-1.33,2-2,9.9-10.02,20-20.07,30-30,.67-.67,1.33-1.34,2-2,6.35-6.3,12.64-12.74,19-19,.67-.66,1.33-1.34,2-2,13.82-13.57,29.69-36.56,51-30Z"/>
  <path class="cls-1" d="M645.15,673.5c.3.11.73-.12,1,0,18.97,8.43,18.98,37.7,0,46-.64.28-1.74.92-2,1-11.51,3.32-25.4-1.84-30.5-13-9.61-21.04,9.91-41.98,31.5-34Z"/>
  <path class="cls-1" d="M751.15,778.5c13.68,5.73,18.6,24.07,10.84,36.34-2.77,4.38-6.84,5.87-9.84,8.66-.31.29-.86.41-1,1-14.02,4.64-29.22-1.08-33.72-15.78-6.19-20.21,14.29-38.36,33.72-30.22Z"/>
</svg>