<?xml version="1.0" encoding="UTF-8"?>
<svg id="Layer_1" data-name="Layer 1" xmlns="http://www.w3.org/2000/svg" viewBox="0 0 1080 1080">
  <defs>
    <style>
      .cls-1 {
        fill: #8797c2;
      }
    </style>
  </defs>
  <path class="cls-1" d="M401.46,96.27h276.58v-47.16c0-4.43,6.04-18.94,8.78-23.45,21.02-34.57,76.29-33.69,95.42,2.26,1.46,2.75,6.43,14.66,6.43,16.59v51.76c57.21,1.08,106.21,2.94,155.13,34.96,78.67,51.48,85.29,121.41,86.75,207.65,2.72,160.1,2.05,323.26,0,483.34-.37,29.29,1.89,59.66-2.76,89.04-14.87,93.89-90.69,158.78-184.88,165.15-169.55,11.47-348.77-9.2-518.74,1.65-41.76-3.64-84.27,1.41-125.67-7.37-71.85-15.25-129.94-78.89-144.91-149.83-7.76-222.1-8.24-446.65.35-668.76,14.28-61.52,58.57-117,118.13-139.75,37.54-14.34,79.24-14.23,118.73-16.07v-47.16c0-.79,2.04-14.05,2.4-15.6.24-1.02,10.9-15.51,12.26-16.92,19.41-20.13,51.66-21.93,74.07-5.43,8.03,5.91,21.9,23.38,21.9,33.36v51.76ZM290.83,209c0-3.95-63.66,2.05-69.29,3.31-29.69,6.63-53.35,36.85-58.75,65.59-4.07,21.64-6,78.67-3.45,100.32.39,3.35.29,5.92,3.57,7.93h757.14v-90.87c0-29.37-18.53-61.04-43.93-75.78-14.75-8.56-52.29-12.67-70.16-12.99-6.18-.11-11.34,2.05-17.29,2.5v40.26c0,48.34-52.4,71.83-90.68,42.21-8.35-6.46-19.95-25.09-19.95-35.31v-46.01h-276.58v52.91c0,6.21-13.77,24.42-19.6,28.75-23.66,17.61-53.41,17.6-74.99-3.36-6.24-6.06-16.05-23.99-16.05-32.29v-47.16ZM920.05,498.88H162.91l-3.58,7.94c2.19,104.95-2.35,210.38,0,315.41.97,43.46-3.72,94.82,33.54,125.26,29.02,23.71,89.84,19.06,126.76,19.42,168.91,1.65,338.13-3.13,507.04-1.03,47.59-3.05,76.3-19.07,90.53-66.08l2.84-17.87v-383.05Z"/>
  <path class="cls-1" d="M434.44,863.97c-1.92-2.37-5.41-10.06-6.42-13.17-14.14-43.52,12.38-76.27,56.28-78.26-2.35-23.54,3.6-54.36.13-76.96-.33-2.17-.92-4.73-3.37-5.16-47.12,9.36-82.41-33.91-64.61-78.78,3.56-8.97,11.28-14.65,18.48-20.67,15.29-12.79,54.68-40.68,71.71-50.34,37.27-21.14,79.83-4.13,88.15,37.89l.5,190.36c1.75,5.86,21.15,6.19,27.97,8.98,20.54,8.38,36.61,35.69,33.48,57.5-3.49,24.32-24,47.05-48.95,50.09-28.22,3.44-102.39,2.76-131.15-.35-13.83-1.49-33.41-10.29-42.21-21.12Z"/>
</svg>