<svg width="16" height="16" viewBox="0 0 16 16" fill="none" xmlns="http://www.w3.org/2000/svg">
<g clip-path="url(#clip0_61851_38693)">
<mask id="mask0_61851_38693" style="mask-type:luminance" maskUnits="userSpaceOnUse" x="0" y="0" width="16" height="16">
<path d="M0 9.53674e-07H16V16H0V9.53674e-07Z" fill="white"/>
</mask>
<g mask="url(#mask0_61851_38693)">
<path d="M8.9375 5.15625C8.9375 5.674 9.35725 6.09375 9.875 6.09375C10.3928 6.09375 10.8125 5.674 10.8125 5.15625C10.8125 4.63847 10.3928 4.21875 9.875 4.21875C9.35725 4.21875 8.9375 3.799 8.9375 3.28125C8.9375 2.76347 9.35725 2.34375 9.875 2.34375C10.3928 2.34375 10.8125 2.76347 10.8125 3.28125" stroke="#6F7C97" stroke-width="0.9375" stroke-miterlimit="10" stroke-linecap="round" stroke-linejoin="round"/>
<path d="M9.875 1.40625V2.34375" stroke="#6F7C97" stroke-width="0.9375" stroke-miterlimit="10" stroke-linecap="round" stroke-linejoin="round"/>
<path d="M9.875 6.09375V7.0625" stroke="#6F7C97" stroke-width="0.9375" stroke-miterlimit="10" stroke-linecap="round" stroke-linejoin="round"/>
<path d="M3.3125 14.5938H0.46875V8.03125H2.375C2.89275 8.03125 3.3125 8.45097 3.3125 8.96875V14.5938Z" stroke="#6F7C97" stroke-width="0.9375" stroke-miterlimit="10" stroke-linecap="round" stroke-linejoin="round"/>
<path d="M3.3125 9.37053L5.05334 8.87316C5.50441 8.74428 5.98741 8.78916 6.40697 8.99894L10.2943 10.9426C10.7576 11.1743 10.9452 11.7373 10.7136 12.2006C10.5493 12.5292 10.2183 12.7188 9.87409 12.7188C9.73356 12.7188 9.59028 12.6872 9.45569 12.6199L7.13647 11.4603C6.73975 11.2619 6.25834 11.3687 5.98269 11.7162" stroke="#6F7C97" stroke-width="0.9375" stroke-miterlimit="10" stroke-linecap="round" stroke-linejoin="round"/>
<path d="M10.5648 12.4166L14.2967 11.183C14.6044 11.0804 14.9255 11.1451 15.1634 11.3272C15.2888 11.4185 15.3899 11.5448 15.4551 11.6975C15.6592 12.1736 15.4386 12.7247 14.963 12.9284L9.56812 15.2268C9.09434 15.4301 8.59172 15.5312 8.09003 15.5312C7.51553 15.5312 6.94194 15.3985 6.41416 15.1348L3.3125 13.584" stroke="#6F7C97" stroke-width="0.9375" stroke-miterlimit="10" stroke-linecap="round" stroke-linejoin="round"/>
<path d="M13.625 4.21875C13.625 6.28981 11.9461 8 9.875 8C7.80394 8 6.125 6.28981 6.125 4.21875C6.125 2.14769 7.80394 0.46875 9.875 0.46875C11.9461 0.46875 13.625 2.14769 13.625 4.21875Z" stroke="#6F7C97" stroke-width="0.9375" stroke-miterlimit="10" stroke-linecap="round" stroke-linejoin="round"/>
</g>
</g>
<defs>
<clipPath id="clip0_61851_38693">
<rect width="16" height="16" fill="white"/>
</clipPath>
</defs>
</svg>
