<?xml version="1.0" encoding="UTF-8"?>
<svg id="Layer_1" data-name="Layer 1" xmlns="http://www.w3.org/2000/svg" viewBox="0 0 24 24">
  <defs>
    <style>
      .cls-1 {
        fill: #898e9a;
      }
    </style>
  </defs>
  <path class="cls-1" d="M10.04,22.09h12.18c.19,0,.51.22.63.37.47.61.07,1.47-.68,1.55H1.73c-.91-.09-1.65-.82-1.73-1.73v-5.78c.07-.86.8-1.36,1.35-1.91C6.01,9.86,10.75,5.19,15.44.48c.66-.56,1.58-.64,2.31-.18,1.97,1.79,3.79,3.76,5.7,5.62.71.77.75,1.86.06,2.66l-13.44,13.43-.04.08ZM13.19,5.51L2.35,16.29v.04s1.94,1.98,1.94,1.98L15.13,7.51l-1.94-2ZM18.33,10.69c-.58-.61-1.18-1.19-1.77-1.79l-.05-.02-10.82,10.82v.04s2,1.94,2,1.94l10.79-10.79v-.05s-.12-.1-.16-.14ZM5.31,22.09l-3.39-3.41v3.41h3.39Z"/>
</svg>