<?xml version="1.0" encoding="UTF-8"?>
<svg id="Layer_1" data-name="Layer 1" xmlns="http://www.w3.org/2000/svg" viewBox="0 0 1080 1080">
  <defs>
    <style>
      .cls-1 {
        fill: #8797c2;
      }
    </style>
  </defs>
  <path class="cls-1" d="M1022.88,175.67c64.96,68.36,73.66,178.96,28.98,259.81-74.61,135-270.61,152.07-366.04,29.03-18.88-24.34-27.31-54.92-46.76-75.98l-586.23-.77c-73.95-12.88-68.03-115.28,5.17-122.25l585.88-1.12c13.05-18.63,18.48-40.08,31.07-59.85,75.22-118.1,253.12-128.64,347.94-28.86ZM841.24,229.75c-88.02,13.92-110.15,139.1-30.37,182.59,52.81,28.78,110.52,7.45,138.13-43.21,37.28-68.4-30.91-151.54-107.77-139.38Z"/>
  <path class="cls-1" d="M381.25,598.23c25.78,26.06,40.55,60.68,54.42,94.11h595.3c67.46,17.26,64.94,109.3-5.39,121.23l-585.96-1.49c-28.17,50.83-52.98,101.45-107.33,131.63C190.65,1022.37,9.64,930.46.4,767.21c-11.81-208.68,237.65-313.75,380.85-168.99ZM290.21,822.17c105.47-105.17-83.62-245.12-153.99-119.66-55.97,99.77,73.42,200,153.99,119.66Z"/>
</svg>