<?xml version="1.0" encoding="UTF-8"?>
<svg id="Layer_1" data-name="Layer 1" xmlns="http://www.w3.org/2000/svg" viewBox="0 0 1080 1080">
  <defs>
    <style>
      .cls-1 {
        fill: #8797c2;
      }
    </style>
  </defs>
  <path class="cls-1" d="M930.08,902.31c-291.62,309.31-814.13,169.65-911.2-241.8C-73.46,269.1,279.91-80.35,671.12,16.25c395.57,97.68,539.15,588.89,258.96,886.07ZM872.66,804.43c30.39-42.17,57.88-87.29,74.01-137.12,69.35-214.24-43.15-449.56-252.61-529.56C381.93,18.55,62.73,285.92,121.03,612.71c12.66,70.96,44.78,134.18,87.12,191.74,9.02-2.9,12.3-11.89,17.95-17.02,41.17-37.44,98.94-63.13,154.83-66.58,105.37-6.51,217.38,5.17,323.46.02,59.67,5.61,111.42,30.81,154.83,71.09,3.05,2.83,10.03,14.86,13.45,12.47ZM390.8,830.03c-30.66,1.78-62.48,13.64-85.52,34.18-3.41,3.04-14.84,12.42-12.55,16.94,2.6,5.13,41.73,27.94,49.49,31.98,120.37,62.76,269.06,63.99,390.39,3.07,8.17-4.1,55.33-30.82,56.28-36.48-26.46-37.03-70.39-48.62-113.86-50.52-93.47-4.08-190.52,2.77-284.23.83Z"/>
  <path class="cls-1" d="M727.08,577.86c-103.95,119.77-298.45,110.77-388.78-19.56-123.82-178.64,21.57-416.11,236.77-387.51,193.39,25.7,279.75,259.89,152.01,407.08ZM517.25,279.3c-62.3,8.44-113.2,69.34-114.84,131.29-3.46,130.74,161.49,192.55,244.17,92.56,81.7-98.81-2.37-241.05-129.33-223.86Z"/>
</svg>