<?xml version="1.0" encoding="UTF-8"?>
<svg id="Layer_1" data-name="Layer 1" xmlns="http://www.w3.org/2000/svg" viewBox="0 0 1080 1080">
  <defs>
    <style>
      .cls-1 {
        fill: #6f7c97;
      }
    </style>
  </defs>
  <path class="cls-1" d="M309.71,549.69c8.16,8.32,13.77,18.79,17.81,29.59,26.57-10.76,52.54-23.58,79.48-33.41,41.19-15.03,72.08-21.42,116.09-13.24,27.45,5.1,69.33,14.65,95.47,23.42,30.17,10.12,49.78,33.18,58.7,63.19.91,3.06-.08,6.75,2.96,9.01,28.49-19.44,53.31-46.59,89.88-48.98,79.14-5.17,128.22,85.26,75.98,146.92-24.17,28.53-58.29,53.22-83.42,81.43-23.59,20.65-51.2,34.1-81.75,41.13-33.85,7.8-73.62,15.77-107.9,20.98-67.86,10.31-112.49-17.2-175.68-26.5-21.19-3.12-44.29-.07-65.79-1.17-3.72.71-3.24,8.49-4.14,11.84-8.37,30.89-34.05,50.17-65.74,52.15-20.88,1.3-51.14,1.3-72.02,0-38.12-2.38-66.2-28.98-68.44-67.43-4.66-79.64,3.62-163.76,0-243.86,7.52-71,73.78-68.84,129.47-66.45,23.12.99,42.27,4.28,59.05,21.38ZM255.11,604.29h-58.95v225.29l1.5,1.5h55.95l1.5-1.5v-225.29ZM330.04,659.74v106.4c26.92,2.87,54.38-1.3,81.27,3.16,34.32,5.69,69.49,18.35,103.74,25.14,48.88,9.7,103.8-14.24,152.69-19.8,49.99-12.54,81.83-65.3,120.2-96.55,12.6-13.19-3.99-29.23-18.7-21.75-47.23,28.49-88.68,80.58-146.93,83.86-24.52,1.38-61.77,1.88-86,0-28.34-2.21-45.72-30.24-31.95-56,16.29-30.48,60.18-16.6,87.96-19.94,15.8-1.9,17.14-29.69,4.02-36.04-30.21-6.12-62.02-17.89-92.24-22.66-27.1-4.27-47.19,2.13-72.12,11.27-34.22,12.54-67.98,29.46-101.95,42.91Z"/>
  <path class="cls-1" d="M746.23,230.06c123.28,104.34,20.46,308.13-139.08,268.46-27.76-6.9-50.8-21.28-71.86-40.15-90.96,37.21-195.01-21.15-210.94-117.65-20.14-122.05,101.53-217.48,215.45-168.5,17.8,7.65,32.39,19.56,47.44,31.4,54.35-20.55,114.67-11.06,158.98,26.44ZM523.67,248.79c-1.73-2.96-25.95-12.02-30.56-12.88-63-11.85-113.49,49.32-89.91,108.89,14.23,35.96,55.01,56.72,92.64,47.65-12.68-48.13-4.54-101.14,27.49-139.85.56-1.11.98-2.71.34-3.8ZM644.57,267.83c-62.4.51-99.73,69.44-67.17,122.57,30.92,50.46,105.44,49.93,136.09-.61,32.4-53.4-6.51-122.47-68.92-121.96Z"/>
</svg>