<?xml version="1.0" encoding="UTF-8"?>
<svg id="Layer_1" data-name="Layer 1" xmlns="http://www.w3.org/2000/svg" viewBox="0 0 1080 1080">
  <defs>
    <style>
      .cls-1 {
        fill: #8797c2;
      }
    </style>
  </defs>
  <path class="cls-1" d="M107.32,48.8c19.4-4.02,34.52,2.12,49.59,13.74l863.66,862.3c39.15,49.24-18.83,115.46-72.77,79.13l-180.74-178.7-589.29-.53c-35.26-4.08-60.63-2.13-84.21-32.41-44.16-56.72,21.43-122,48.75-171.51,34.38-62.31,55.66-131.19,63.1-202.32,4.96-47.38-.55-95.64,9.77-142.28-44.11-54.67-103.83-98.5-146.6-154.61-10.98-29.74,7.38-66.31,38.74-72.8ZM655.91,714.6l-338.63-336.54c-4.47,119.72-37.07,237.86-105.36,336.54h443.99Z"/>
  <path class="cls-1" d="M535.32.48c109.67-3.91,215.29,43.9,282.49,130.21,95.28,122.39,60.23,227.93,85.34,367.78,7.19,40.06,40.04,106.53-11.01,130.03-66.6,30.66-82.33-41.78-92.13-88.53-15.26-72.78-12.98-133.38-17.74-205.54-10.76-162.83-168.85-271.56-323.99-207.06-20.51,8.53-42.73,28.99-63.27,30.72-52.84,4.46-81.74-56.67-42.19-93.95C392.88,26.4,481.15,2.42,535.32.48Z"/>
  <path class="cls-1" d="M412.01,906.28c37.33-6.04,54.1,23.8,85.17,36.36,39.99,16.17,79.39,14.36,117.66-5.35,13.2-6.8,26.01-21.69,37.8-26.97,56.96-25.51,111.51,47.35,50.19,98.65-64.13,53.64-163.9,66.39-241.3,37.21-22.03-8.3-73.49-37.33-85.01-57.49-18.06-31.61-1.22-76.46,35.48-82.4Z"/>
</svg>