<?xml version="1.0" encoding="UTF-8"?>
<svg id="Layer_1" data-name="Layer 1" xmlns="http://www.w3.org/2000/svg" viewBox="0 0 1080 1080">
  <defs>
    <style>
      .cls-1 {
        fill: #6f7c97;
      }
    </style>
  </defs>
  <path class="cls-1" d="M755.22,651.92c54.44-4.53,114.7,27.69,143.36,73.8,3.92,6.31,16.25,37.21,19.61,38.37,38.43,4.62,87.92-5.49,124.97,1.51,45.44,8.59,49.78,72.19,5.88,87.88l-132.63,1.76c-38.14,124.48-204.4,154.2-280.29,45.99l-24.29-46.86-576.81-.27c-52.37-13.82-43.67-86.3,10.64-89.63l566.16-.38c8.8-13.12,12.87-28.28,21.68-41.56,27.08-40.84,73.07-66.56,121.73-70.61Z"/>
  <path class="cls-1" d="M555.87,223.9l485.58.59c50.41,10.99,52.28,79.21.3,89.42l-484.62-.23c-37.47,121.86-196.37,154.81-276.76,52.65-13.13-16.69-17.88-35.22-29.63-52.06l-215.48-.59c-46.92-14.38-46.61-75.37.46-88.79l219.1-.95c43.92-149.49,256.2-148.41,301.06-.04Z"/>
</svg>