<?xml version="1.0" encoding="UTF-8"?>
<svg id="Layer_1" data-name="Layer 1" xmlns="http://www.w3.org/2000/svg" viewBox="0 0 1080 1080">
  <defs>
    <style>
      .cls-1 {
        fill: #6f7c97;
      }
    </style>
  </defs>
  <path class="cls-1" d="M1048.96,201.25l-812.15-.64-4.68-4.88c-10.9-51.28-14.73-109.82-28.1-159.96-5.2-19.49-12-32.59-33.68-35.5-.28-.04-.56-.08-.84-.11-.47-.06-.94-.11-1.43-.16H39.89c-11.01,0-20.99,4.46-28.21,11.68C4.46,18.9,0,28.88,0,39.89c0,22.03,17.86,39.89,39.89,39.89h87.61l130.48,705.27,24.21,52.47c-48.71,54.91-58.44,133.15-10.79,192.29,73.86,91.67,223.25,55.25,246.26-59.81,6.63-33.17.42-58.23-8.76-90.04h223.12c-44.28,108.63,40.44,222.08,158.91,198.75,151.14-29.76,143.93-263.29-20.31-278.38l-506.07-.72c-38.83-8.59-31.75-86.86-43.71-117.27h588.08c47.35,0,94.1-44.27,106.87-87.56,31.25-105.89,35.29-233.34,63.25-341.52,4.04-24.17-4.46-46.72-30.08-52.01ZM885.78,887.16c36.97,16.67,46.23,68.64,17.21,96.84-23.72,23.05-61.45,22.91-85.04-.32-45.05-44.37,4.12-125.26,67.83-96.52ZM421.74,897.01c56.29,52.6-25.05,144.06-83.34,88.11-56.35-54.09,26.04-141.67,83.34-88.11Z"/>
</svg>