<?xml version="1.0" encoding="UTF-8"?>
<svg id="Layer_1" data-name="Layer 1" xmlns="http://www.w3.org/2000/svg" viewBox="0 0 1080 1080">
  <defs>
    <style>
      .cls-1 {
        fill: #6f7c97;
      }
    </style>
  </defs>
  <path class="cls-1" d="M529.05-.69c98.31-10.36,137.08,110.69,212.67,118.04,59.25,5.77,130.98-7.07,178.48,38.06,51.16,48.61,35.35,126.11,42.59,189.19,7.32,63.74,117.21,104.1,117.21,195.17,0,91.65-109.9,131.64-117.21,195.17-7.72,67.1,9.84,153.61-53.9,199.23-50.63,36.23-111.05,22.36-167.16,28.03-70.35,7.1-110.05,116.44-198.18,119.07-93.78,2.8-130.31-111.42-207.5-119.08-58.45-5.8-120.73,8.99-170.83-33.5-57.22-48.54-39.27-121.84-47.24-187.59-9.92-81.72-143.43-120-113.65-229.63,19.45-71.61,104.12-105.81,113.66-173.02,8.64-60.9-9.03-125.77,36.57-176.91,47.06-52.79,121.95-38.06,184.55-44.19C406.64,110.74,447.13,7.94,529.05-.69ZM370.41,270.66c-164.95,22.36-104.92,283.05,57.69,222.37,125.34-46.77,76.92-240.62-57.69-222.37ZM760.48,319.7c-10.23-10.24-28.13-13.08-41.83-8.82l-399.33,396.64c-25.22,34.37,2.59,72.02,42.85,61.14l399.33-396.64c12.66-15.01,13.06-38.24-1.02-52.32ZM690.84,578.61c-142.31,3.18-148.21,217.74-10.12,231.03,163.92,15.78,171.26-234.64,10.12-231.03Z"/>
  <path class="cls-1" d="M681.33,657.84c58.45-13.37,68.8,63.47,22.46,74.27-52.86,12.32-64.45-64.67-22.46-74.27Z"/>
  <path class="cls-1" d="M359.91,415.28c-35.72-29.89,7.84-92.5,49.35-60,43.31,33.91-10.34,92.64-49.35,60Z"/>
</svg>