<?xml version="1.0" encoding="UTF-8"?>
<svg id="Layer_1" data-name="Layer 1" xmlns="http://www.w3.org/2000/svg" viewBox="0 0 1080 1080">
  <defs>
    <style>
      .cls-1 {
        fill: #08624c;
      }

      .cls-2 {
        fill: #cee0db;
      }
    </style>
  </defs>
  <path class="cls-1" d="M812.95,224.43c163,145.95,186.63,396.13,53.84,570.65-166.97,219.44-498.02,222.52-667.93,4.84-7.91-10.13-33.62-44.87-35.12-55.59-3.77-26.99,10.82-32.27,30.11-44.11,90.2-55.37,183.86-105.58,274.79-159.78,4.57-2.72,29.72-17.15,30.46-19.63l.2-374.8c4.42-32.18,31.9-30.32,57.65-29.11,93.1,4.41,187.21,45.95,255.98,107.53ZM563,183.98v364.18c0,5.44-10.39,18.3-15.81,20.75l-306.43,178.29c53.34,76.71,138.97,129.62,231.28,145.08,197.07,33,382.84-101.64,412.94-298.31,31.23-204.07-114.81-390.9-318.93-411.75l-3.05,1.77Z"/>
  <path class="cls-1" d="M423.07,145.5c5.05,4.64,9.73,13.41,10.02,20.45v299.3c-1.69,18.93-15.45,24.26-29.43,32.84-79.29,48.64-162.46,91.36-241.82,139.95-32.54,9.67-43.67-9.12-48.1-37.66-28.91-186.02,73.12-370.14,242.58-447.48,19.8-9.03,47.77-24.87,66.77-7.4ZM369.4,219.47c-13.59,4.5-27.8,13.77-39.69,21.91-70.16,48.02-122.17,121.38-144.04,203.88-7.76,29.28-15.7,78.43-11.18,107.91.28,1.81-.89,2.4,1.97,2.02l192.94-113.02v-222.7Z"/>
  <path class="cls-2" d="M369.4,221.21v222.7l-192.94,113.02c-2.86.38-1.7-.22-1.97-2.02-4.52-29.48,3.42-78.63,11.18-107.91,21.88-82.51,73.88-155.87,144.04-203.88,11.89-8.14,26.1-17.41,39.69-21.91Z"/>
</svg>