<svg width="22" height="22" viewBox="0 0 22 22" fill="none" xmlns="http://www.w3.org/2000/svg">
<path d="M16.6457 15C17.4366 13.8661 17.9004 12.4872 17.9004 11C17.9004 10.4851 17.8448 9.9832 17.7393 9.49996M5.15508 15C4.36421 13.8662 3.90039 12.4872 3.90039 11C3.90039 7.13401 7.0344 4 10.9004 4C11.3225 4 11.7359 4.03737 12.1375 4.10897M15.4003 6.5L10.9003 11M20.9004 11C20.9004 16.5228 16.4232 21 10.9004 21C5.37754 21 0.900391 16.5228 0.900391 11C0.900391 5.47715 5.37754 1 10.9004 1C16.4232 1 20.9004 5.47715 20.9004 11ZM11.9004 11C11.9004 11.5523 11.4527 12 10.9004 12C10.3481 12 9.90039 11.5523 9.90039 11C9.90039 10.4477 10.3481 10 10.9004 10C11.4527 10 11.9004 10.4477 11.9004 11Z" stroke="#3F434E" stroke-width="1.5" stroke-linecap="round" stroke-linejoin="round"/>
</svg>
