<?xml version="1.0" encoding="UTF-8"?>
<svg id="Layer_1" data-name="Layer 1" xmlns="http://www.w3.org/2000/svg" viewBox="0 0 1080 1080">
  <defs>
    <style>
      .cls-1, .cls-2 {
        fill: #898e9a;
        stroke: #898e9a;
        stroke-miterlimit: 10;
      }

      .cls-2 {
        stroke-width: 15px;
      }
    </style>
  </defs>
  <path class="cls-2" d="M384.96,831.98h23.27v-91.26c0-.74,3.78-4.78,5.44-4.01,18.98,1.34,40.25-1.73,58.95-.02,2.8.26,6.87,2.32,6.87,5.49v89.8h21.09v-132.7c0-1,5.22-4.59,6.91-4,18.26,1.27,38.77-1.69,56.75-.04,2,.18,6.87,1.8,6.87,4.04v132.7h21.81v-172.7c0-2.4,4.06-3.85,6.15-4.03,18.72-1.69,39.96,1.35,58.95.02,1.79-.43,5.44,2.64,5.44,4.02v172.7h21.09v-219.96c0-3.09,4.4-6.66,7.6-6.22,18,1.55,39.14-1.96,56.75.04,2.24.25,6.91,2.28,6.91,4.73v221.42h21.45c5.37,0,8.09,10.1,2.36,12.54l-403.42.22-3.27-3.27-.34-335.63c1-8.62,12.38-5.45,12.38-1.44v327.58ZM742.71,618.92h-45.08v213.05h45.08v-213.05ZM650.37,668.37h-45.08v163.61h45.08v-163.61ZM558.75,708.36h-45.08v123.61h45.08v-123.61ZM466.4,749.81h-45.08v82.17h45.08v-82.17Z"/>
  <path class="cls-2" d="M734.92,567.82c-1.09-1.1-1.92-4.29-1.61-5.88,1.83-9.77,5.19-19.62,7.14-29.28.19-.95-.06-1.41-1-.99-1.16.52-7.01,6.56-8.75,7.97-71.54,57.97-162.39,91.55-253.13,105.35-16.83,2.56-36.77,5.43-53.67,5.95-6.29.2-16.79,1.69-15.65-7.6.88-7.11,11.52-5.1,16.34-5.53,109.53-9.66,221.65-42.46,305.77-115.25-10.73-.07-21.38,3.9-32.18,4.61-6.57-2.61-7.28-10.46.03-12.76,15.89-5.01,36.59-4.94,52.96-9.59,3.74-.08,7.63,3.33,7.23,7.23l-12.72,53.46c-1.39,4.26-7.81,5.23-10.75,2.3Z"/>
  <path class="cls-1" d="M355.54,190.85l301.7.25,6.57,3.96,165.57,164.76,2.92,8.93-.08,484.36c-3.79,29.02-26.72,50.69-55.87,53.36h-417.28c-29.49-2.62-53.04-25.04-55.93-54.62l.06-608.05c3.66-27.68,24.62-48.86,52.34-52.94ZM641.41,215.48h-284.92c-.73,0-9.62,3.85-11.1,4.69-10.04,5.72-16.49,15.96-17.24,27.51v601.52c1.07,17.44,15.08,30.52,32.23,32.25h414.66c12.67.5,32.19-15.86,32.19-28.35v-473.12h-116.47c-18.04,0-49.35-29.83-49.35-48.04v-116.47ZM788.81,354.98l-122.39-121.08v95.41c0,2.94,7.26,14.03,9.81,16.51,2.74,2.66,13.96,9.16,17.16,9.16h95.41Z"/>
</svg>