<?xml version="1.0" encoding="UTF-8"?>
<svg id="Layer_1" data-name="Layer 1" xmlns="http://www.w3.org/2000/svg" viewBox="0 0 24 24">
  <path d="M4.96.06c.69-.03,1.63-.07,2.3-.01.88.08,1.3,1.21.64,1.8-.08.07-.42.27-.52.29-.6.12-1.75-.02-2.43,0-.72.03-1.29.11-1.86.58-1.39,1.13-.73,2.93-.9,4.46-.02.2-.17.56-.32.71-.63.62-1.74.17-1.82-.71-.12-1.29-.02-3.5.58-4.65C1.53.78,3.07.14,4.96.06Z"/>
  <path d="M.85,15.83c.74-.12,1.27.29,1.34,1.04.12,1.32-.35,2.99.58,4.09,1.11,1.32,3.06.73,4.54.9,1.21.14,1.22,1.96-.04,2.1-.58.07-1.72.04-2.31,0-.91-.06-1.85-.23-2.64-.7-1.15-.69-2.07-2.08-2.18-3.43-.04-.52-.06-1.07-.09-1.58-.02-.34-.05-1.31.03-1.6s.46-.76.77-.81Z"/>
  <path d="M16.66.06c.6-.09,1.96-.04,2.6,0,2.7.15,4.54,1.87,4.69,4.6.04.69.08,2,0,2.66-.02.18-.2.52-.34.64-.31.27-.96.27-1.28.04-.22-.16-.45-.53-.48-.81-.15-1.57.49-3.39-.96-4.52-1.13-.88-2.9-.31-4.19-.53-.3-.05-.79-.44-.84-.74-.02-.13-.02-.53.02-.66.06-.25.53-.63.78-.67Z"/>
  <path d="M22.66,15.83c.62-.1,1.23.21,1.3.87.07.72.05,2.01,0,2.74-.14,2.32-1.83,4.24-4.18,4.43-.86.07-2.16.18-3,.08-.27-.03-.59-.23-.75-.45-.46-.61-.04-1.57.71-1.65,1.2-.13,3.14.28,4.14-.53.62-.51.94-1.12.99-1.93.05-.76-.13-2.06.02-2.73.07-.3.47-.79.78-.84Z"/>
  <path d="M17.17,10.98c.52-.12.91.07,1.21.48s.12,1-.23,1.31c-.86.77-2.15-.27-1.59-1.29.11-.19.4-.45.61-.5Z"/>
  <path d="M.81,10.98c.26-.07.65-.03.87.14.4.31.54.59.47,1.11-.03.23-.36.62-.57.71-.93.42-1.9-.61-1.34-1.51.1-.16.4-.4.58-.45Z"/>
  <path d="M22.61,10.98c.49-.13.93.08,1.21.48.43.62-.1,1.52-.83,1.57-.86.05-1.41-.86-.95-1.6.1-.16.4-.4.58-.45Z"/>
  <path d="M11.73,10.98c.3-.07.64-.03.89.16.86.65.35,2.03-.76,1.87s-1.17-1.8-.13-2.03Z"/>
  <path d="M6.29,10.98c.44-.09.83.02,1.11.37.68.88-.38,2.11-1.37,1.54-.78-.45-.6-1.74.26-1.91Z"/>
</svg>