<?xml version="1.0" encoding="UTF-8"?>
<svg id="Layer_1" data-name="Layer 1" xmlns="http://www.w3.org/2000/svg" viewBox="0 0 1080 1080">
  <defs>
    <style>
      .cls-1 {
        fill: #8797c2;
      }
    </style>
  </defs>
  <path class="cls-1" d="M323.86,1.86c102.98-5.02,208.3,2.08,311.54-.94,34.33,2.94,42.74,20.7,64.28,41.66,69.9,67.99,140.9,136.47,209.21,205.89,13.38,13.59,60.08,58.49,67.13,70.28,4.04,6.76,6.78,18.84,7.5,26.84-6.2,169.2,7.81,343.71.01,512.28-5.98,129.2-67.06,210.97-202,218.81-166.56,9.68-345.34-4.94-512.62-3.31-82.62-11.29-151.54-76.33-164.68-158.81-4.43-27.78-5.33-65.21-6.24-93.89-5.97-187.49-5.38-396.63,3.1-583.53,2.86-63.01-.99-101.82,38.81-155.77C187.21,17.22,248.11,5.55,323.86,1.86ZM582.3,112.57h-293.66c-45.43,0-80.4,49.96-78.9,92.85,2.92,233.07-5.36,467.21,4.24,699.66,9.85,30.45,34.57,54.35,66.79,59.18,160.62-.52,325.73,12.88,486.44,3.7,36.15-2.06,72.63-8.39,92.54-42.05,15.98-27.02,9.22-55.8,14.9-85.24l-.12-439.2h-244.96c-7.19,0-26.19-11.36-31.61-17.07-5.4-5.68-15.66-26.06-15.66-32.99V112.57ZM794.31,292.78l-100.27-100.12v100.12h100.27Z"/>
  <path class="cls-1" d="M736,611.3c37.57,37.52,33.86,124.27,29.62,174.87-5.85,69.75-54.74,95.19-118.73,98.85-62.81,3.59-149.47,3.64-212.25,0-45.13-2.62-83.07-12.74-104.93-55.42-17.49-34.13-16.27-121.3-10.96-160.64,5.69-42.12,39.82-79.69,82.94-84.52-2.41-45.2,2.26-85.5,31.7-121.39,58.67-71.51,173.33-66.35,224.07,10.71,23.51,35.7,22.81,66.56,23.57,108.05,19.13,7.72,40.07,14.61,54.98,29.49ZM570.84,581.69c14.88-75.99-69.43-82.28-59.71-4.74l3.84,4.74h55.87ZM656.79,773.34c-2.96-23.4,2.86-50.02.15-73.09-.49-4.16-.36-7.36-4.44-9.87h-224.9v82.95h229.2Z"/>
</svg>