<?xml version="1.0" encoding="UTF-8"?>
<svg id="Layer_1" data-name="Layer 1" xmlns="http://www.w3.org/2000/svg" viewBox="0 0 1080 1080">
  <defs>
    <style>
      .cls-1 {
        fill: #4db85a;
      }
    </style>
  </defs>
  <path class="cls-1" d="M804.4,881.3c20.55-18.67,23.67-36.91,25.02-63.98,2.66-53.11-3.51-109.57-.1-162.34,4.66-72.14,99.37-71.1,104.23-1.21,3.53,50.79,1.17,117.05-1.21,168.4-5.1,109.8-76.35,180.84-187.06,182.22l-501.29-.06c-57.65-2.52-103.55-17.17-142.31-61.1-35.91-40.7-41.13-78.31-43.51-130.84-7.22-159.69,2.83-322.92-1.31-483.09,1.82-53.98,8.74-98.34,45.44-139.81,40.32-45.56,88.32-58.36,147.67-60.58,57.17-2.14,115.84.43,172.84,1.63,55.02,16.17,47.55,96.8-10.5,101.39-60.91,4.82-130.91-6.9-191.01,2.71-54.13,8.66-59.94,53.75-61.53,99.5-5.33,153.89,4.14,310.83,0,465.03,1.65,47.47,7.01,88.58,61.36,99.67,179.14,5.05,359.18,2.73,538.47,1.22,19.63-2.21,30.22-5.5,44.8-18.75Z"/>
  <path class="cls-1" d="M829.37,305.72l-300.91,300.23c-48.95,38.93-111.81-22.32-73.18-71.97l301.44-302.12h-139.84c-7.46,0-24.3-9.66-29.71-15.09-30.66-30.77-10.92-84.22,32.09-87.87h266.45c27.57,2.45,47.04,25.51,47.83,52.66-4.36,83.12,5.63,171.9,0,254.36-2.6,38.02-34.97,64.46-72.31,49.21-16.89-6.9-31.87-26.92-31.87-45.62v-133.79Z"/>
</svg>