<?xml version="1.0" encoding="UTF-8"?>
<svg id="Layer_1" data-name="Layer 1" xmlns="http://www.w3.org/2000/svg" viewBox="0 0 1080 1080">
  <defs>
    <style>
      .cls-1 {
        fill: #6f7c97;
      }
    </style>
  </defs>
  <path class="cls-1" d="M760.28,101v845H184.31c-1.15,0-12.14-3.09-14.25-3.74-30.44-9.43-50.18-35.94-52.24-67.71l.06-705.03c2.7-27.34,20.24-52.77,45.97-62.99,2.92-1.16,17.25-5.53,19.45-5.53h576.97ZM190.31,150c-10.75.79-23.48,12.59-23.48,23.5v626c0,.44,1.58,1.67,2.41,1.46,14.87-4.12,30.86-5.03,46.09-3.21l1.46-1.26V151.5l-1.5-1.5h-24.98ZM711.32,797V151.5l-1.5-1.5h-443.09l.09,646.91,444.49.09ZM711.32,847H187.31c-.35,0-5.48,2.14-6.4,2.59-18.44,9.1-18,35.54.56,44.25.98.46,5.29,2.16,5.84,2.16h524.01v-49Z"/>
  <path class="cls-1" d="M513.51,327c-1.46-17.65-16.95-29.07-34.17-22.7-19.38,7.17-19.84,37.64-.66,45.07,10.75,4.16,23.05,2.27,35.35,6.62,56.08,19.81,66.27,95.45,18.38,130.43-6.25,4.57-12.02,6.8-18.9,10.09v52l-1.5,1.5h-46.96l-1.5-1.5v-52c-18.15-8.03-34.84-21.48-42.82-40.14-3.99-9.34-6.46-20.18-6.14-30.36h48.46c3.25,8.82,5.88,18.55,15.49,22.49,23.35,9.57,44.2-16.02,29.78-36.81-8.34-12.03-18.15-8.91-30.17-10.8-57.12-8.99-83.89-76.04-46.55-121.35,8.41-10.21,19.27-18.35,31.94-22.53v-52.5l1.5-1.5h46.96l1.5,1.5v51c3.65,3.63,9.08,4.77,13.5,7.49,16.49,10.15,29.8,27.79,34.17,46.8.69,3.02,2.57,12.28,2.32,14.72-.09.89-.9,2.49-1.53,2.49h-48.46Z"/>
  <polygon class="cls-1" points="661.37 600 661.37 647.5 315.69 647.5 315.69 600.5 661.37 600"/>
  <polygon class="cls-1" points="315.69 699.5 661.37 699.5 661.37 746.5 659.87 748 317.19 748 315.69 746.5 315.69 699.5"/>
</svg>