<?xml version="1.0" encoding="UTF-8"?>
<svg id="Layer_1" data-name="Layer 1" xmlns="http://www.w3.org/2000/svg" viewBox="0 0 1080 1080">
  <defs>
    <style>
      .cls-1 {
        fill: none;
      }

      .cls-1, .cls-2 {
        stroke-width: 30px;
      }

      .cls-1, .cls-2, .cls-3 {
        stroke: #3f434e;
        stroke-miterlimit: 10;
      }

      .cls-2, .cls-3, .cls-4 {
        fill: #3f434e;
      }

      .cls-3 {
        stroke-width: 16px;
      }
    </style>
  </defs>
  <path class="cls-1" d="M768.6,237.7v51.26c0,9.94-8.06,18.01-18.01,18.01h-199.23c-9.95,0-18.01-8.07-18.01-18.01v-51.26c0-9.94,8.06-18.01,18.01-18.01h57.13c.91-19.82,19.27-34.89,41.41-34.89s42.89,16.63,42.89,33.85l57.8,1.04c9.95,0,18.01,8.07,18.01,18.01Z"/>
  <path class="cls-4" d="M459.35,714.59h94.39c3.68,0,7.13,10.22,7.46,13.88,5.47,59.34-4.28,127.02-.04,187.25l-6.63,11.43-383.37.95c-5.36.68-8.29-3.06-11.35-6.7l-.89-194.52c-1.14-3.04,5.88-12.27,7.42-12.27h97.67v-160.05c0-1.98,7.1-10.32,10.59-9.11,55.32,4.18,118.13-5.27,172.54-.02,5.63.54,12.21,4.82,12.21,10.77v158.41ZM324.74,570.14h-36.11v144.45h144.45v-144.45h-34.47v45.14c0,3.32-6.7,8.6-10.59,9.11-8.33,1.1-46.63,1.33-54.22-.12-2.38-.45-9.06-6.42-9.06-7.35v-46.78ZM372.35,570.14h-22.98v29.55h22.98v-29.55ZM226.25,739.21h-42.68v161.69l2.46,2.46h161.69v-164.15h-42.68v53.35c0,.93-6.68,6.9-9.06,7.35-9.12,1.74-47.17,1.16-57.52.14-3.25-.32-12.21-4.18-12.21-7.49v-53.35ZM280.42,739.21h-29.55v36.11h29.55v-36.11ZM415.03,739.21h-42.68v164.15h161.69l2.46-2.46v-161.69h-42.68v53.35c0,.46-5.75,6.15-6.6,6.54-3.34,1.52-56.86,1.74-63.07.75-3.24-.52-9.13-4.07-9.13-7.28v-53.35ZM469.2,739.21h-29.55v36.11h29.55v-36.11Z"/>
  <path class="cls-4" d="M537.88,528.63l3.85-1.51,46.35-45.99c12.85-6.75,23.45,8.27,14.43,19.04l-59.46,59.06c-4.82,3.32-11.48,1.08-15.28-2.78-2.67-2.71-18.79-31.54-19.13-34.87-.82-8.06,6.35-14.3,14.25-12.67,6.94,1.43,12.86,13.42,15,19.74Z"/>
  <path class="cls-4" d="M537.89,405.49c2.24.61,2.56-.61,3.85-1.49,14.24-9.77,29.52-34.26,43.9-43.82,13.01-8.66,25.43,2.39,17.56,16.02-11.74,8.45-53.66,59.35-63.39,61.37-5,1.04-8.66-.73-12.03-4.28-2.37-2.5-16.64-26.32-17.96-29.74-2.3-5.96-1.59-12.93,4.36-16.32,12.74-7.27,19.73,8.94,23.71,18.28Z"/>
  <path class="cls-4" d="M537.88,651.76l3.85-1.51,46.95-46.93c11.03-4.73,21.42,6.6,15.45,16.98l-62.73,61.94c-4.28.9-9.14.77-12.68-2.08-1.93-1.56-16.98-27.35-18.39-30.85-3.79-9.42.84-18.69,11.41-17.68,7.54.72,14.3,13.29,16.16,20.14Z"/>
  <rect class="cls-4" x="644.58" y="384.88" width="157.3" height="23.09" rx="11.54" ry="11.54"/>
  <rect class="cls-4" x="644.58" y="507.63" width="157.3" height="23.09" rx="11.54" ry="11.54"/>
  <rect class="cls-4" x="644.58" y="630.38" width="157.3" height="23.09" rx="11.54" ry="11.54"/>
  <g>
    <path class="cls-2" d="M461.47,265.55h70.29v.99h-69.29c-35.54,0-64.36,28.46-64.36,63.55v204.57h-1v-205.55c0-35.1,28.82-63.55,64.36-63.55Z"/>
    <path class="cls-2" d="M927.21,329.11v519.29c0,35.1-28.81,63.55-64.36,63.55h-303.39v-.99h302.39c35.55,0,64.36-28.45,64.36-63.55V330.09c0-35.1-28.81-63.55-64.36-63.55h-60.96v-.99h61.96c35.55,0,64.36,28.46,64.36,63.55Z"/>
    <path class="cls-2" d="M800.89,266.54h60.96c35.55,0,64.36,28.45,64.36,63.55v517.31c0,35.1-28.81,63.55-64.36,63.55h-303.39v.99h298.39c35.55,0,70.36-28.45,70.36-63.55V329.11c0-35.1-28.81-63.55-64.36-63.55h-61.96"/>
    <path class="cls-2" d="M531.76,266.54h-69.29c-35.54,0-64.36,28.45-64.36,63.55v204.57h-1v-205.55c0-35.1,28.82-63.55,64.36-63.55h70.29"/>
  </g>
  <line class="cls-3" x1="769.63" y1="266.05" x2="818.15" y2="266.05"/>
</svg>