<?xml version="1.0" encoding="UTF-8"?>
<svg id="Layer_1" data-name="Layer 1" xmlns="http://www.w3.org/2000/svg" viewBox="0 0 1080 1080">
  <defs>
    <style>
      .cls-1 {
        fill: #6f7c97;
      }
    </style>
  </defs>
  <path class="cls-1" d="M966.55,177.39c4.59,4.91,6.46,10.26,7.61,16.88v746.42c-2.18,14.27-11.19,23.41-25.48,25.48H91.37c-12.55-1.16-20.68-8.65-24.96-20.01l-.51-753.87c1.96-14.06,13.59-23.28,27.48-24.47l322.68-.02c61.29-46.69,146.42-46.22,207.92,0l322.68.02c8.11.86,14.39,3.69,19.89,9.58ZM408.62,274.75h222.79c-.7-1.55-1.38-3.05-1.76-4.75-3.09-13.65-11.88-30.08-21.27-41.42-48.95-59.08-141.54-54.31-184.01,9.47-7.24,10.87-12.77,23.99-15.75,36.7ZM370.66,221.79H119.89v158.85h800.26v-158.85h-250.77c.42,2.75,1.97,6.65,3.12,9.16.41.9,1.46.92,2.01,2.23,5.62,13.25,9.31,27.34,11.95,41.46,13.75.94,28.15-3.32,38.76,7.7,15.09,15.68,5.6,43.93-16.32,46.4l-380.46-.29c-19.96-5.64-28.93-27.88-15.16-44.69,10.66-13.01,24.77-7.75,39.46-9.47,3.54-13.22,6.39-26.58,11.73-39.22.85-2.02,7.27-12.25,6.2-13.29ZM920.15,434.6H119.89v477.56h800.26v-477.56Z"/>
  <path class="cls-1" d="M546.49,540.5c16.55.93,41-5.08,50.13,13.31,4.58,9.23,4.68,17.94-.33,27-14.86,26.85-65.61,5.02-89.02,16.88-4.54,2.3-7.99,6.21-10.3,10.68-5.53,10.74-4.23,21.88,4.66,30.43,10.73,10.32,24.62,6.63,38.11,9.85,22.98,5.49,45.31,25.04,54.07,46.83,17.42,43.36-3.8,90.47-46.86,106.74-1.04,12.05,1.54,23.64-8.51,32.43-22.36,19.53-50.2-1.42-45.9-28.4-12.03-1.03-25.68,3.17-36.01-4.45-17.45-12.88-14.05-40.03,6.53-47.5,14.31-5.2,42.44-.66,58.99-1.96,25.2-1.97,33.07-35.2,11.16-48.2-9.02-5.35-22.92-3.53-33.71-6.25-48.6-12.25-73.31-66.78-52.12-112.13,8.48-18.15,25.8-34.79,45.1-40.32.43-4.7-.38-9.78.06-14.43,2.27-23.54,27.44-35.04,45.9-18.92,2.8,2.44,8.04,10.6,8.04,13.91v14.49Z"/>
</svg>