<?xml version="1.0" encoding="UTF-8"?>
<svg id="Layer_1" data-name="Layer 1" xmlns="http://www.w3.org/2000/svg" viewBox="0 0 1080 1080">
  <defs>
    <style>
      .cls-1 {
        fill: #3f434e;
        stroke: #000;
        stroke-miterlimit: 10;
      }
    </style>
  </defs>
  <path class="cls-1" d="M52.35,781.65c-5.21-5.21-8.75-13.75-9.39-21.11v-430.07c.88-11.22,6.43-19.15,15.34-25.66L492.97,107.47c13.06-4.03,25.04,3.35,36.71,8.36,136.85,58.69,270.22,126.05,407,185,10.72,4.37,19.26,12.52,22.02,23.98,3.05,143.67.38,287.88,1.35,431.75-.43,11.1-4.73,21.53-13.72,28.28-37.61,23.9-82.49,41.5-119.66,65.34-7.77,4.99-12.84,12.6-23.91,13.09-93.04,47.82-183.49,104.26-276.74,151.26-14.64,7.38-22.56,12.34-39.38,5.33-133.03-74.19-268.34-144.42-401.32-218.68-8.63-4.82-26.73-13.29-32.98-19.52ZM846,332.01l-345.42-156-341.6,155.51-1.98,1.98,344.51,156.09,336.17-152.41,8.32-5.16ZM468,547L109,385v354l359,195v-387ZM894,385l-360,163.5v385.5l99.81-54.69.16-216.84c1.92-27.57,33.75-41.08,55.05-22.97,4.54,3.86,10.99,14.14,10.99,20.01v183.5c2.67.22,4.79-1.38,7.02-2.48,15.19-7.54,31.83-16.92,46.66-25.34,2.99-1.7,12.34-6.19,13.12-8.88,1.47-65.54-1.33-131.26-.23-196.79.27-16.25-.05-30.57,15.75-39.69,17.76-10.26,40.07-3.73,47.87,15.52.69,1.7,2.83,7.89,2.83,9.17v176.5l61-33.5v-352.5Z"/>
</svg>