<?xml version="1.0" encoding="UTF-8"?>
<svg id="Layer_1" data-name="Layer 1" xmlns="http://www.w3.org/2000/svg" viewBox="0 0 1080 1080">
  <defs>
    <style>
      .cls-1 {
        fill: #8797c2;
      }
    </style>
  </defs>
  <path class="cls-1" d="M517.85,23.79C936.68-.08,1218.89,449.43,1008.86,814.99c-199.28,346.86-700.01,354.88-910.29,14.34C-111.32,489.44,120.41,46.44,517.85,23.79ZM510.96,131.78C210.22,155.25,35.34,489.78,178.86,753.76c148.95,273.97,537.56,295.58,716.42,39.73,206.56-295.47-26.62-689.62-384.32-661.71Z"/>
  <path class="cls-1" d="M533.97,260.44c162.65-11.32,277.84,184.06,160.42,309.5-25.91,27.68-103.21,78.76-140.38,82.68-62.62,6.6-86.42-72.94-32.63-101.49,16.62-8.82,36.5-14.43,53.72-24.48,19.65-11.47,54.76-37.79,58.08-61.48,11.9-84.96-99.84-132.73-156.33-64.18-17.8,21.6-16.73,49.79-48.69,59.36-41.92,12.55-78.36-21.53-69.42-64.71,15.42-74.54,102.86-130.17,175.23-135.2Z"/>
  <path class="cls-1" d="M543.08,735.93c78.01-9.47,81.52,113.62,1.73,107.35-63.66-5-66.19-99.53-1.73-107.35Z"/>
</svg>