<?xml version="1.0" encoding="UTF-8"?>
<svg id="Layer_1" data-name="Layer 1" xmlns="http://www.w3.org/2000/svg" viewBox="0 0 1080 1080">
  <defs>
    <style>
      .cls-1 {
        fill: #8797c2;
      }
    </style>
  </defs>
  <path class="cls-1" d="M791.08,945.82h129.52c11.46,0,31.11,19.16,35.43,29.95,16.71,41.75-12.38,74.99-54.42,76.29-85.13-5.2-177.74,6.58-261.96,0-35.69-2.79-57.54-18.87-61.23-55.92-8.35-83.73,7.18-181.52-.13-266.63,2.41-38.28,23.67-63.67,64.26-58.64,17.55,2.17,42.19,24.18,42.19,42.24v183.71c13.46-11.22,28.02-22.09,40.94-33.98,54.75-50.43,113.45-105.68,144.09-174.61,88.09-198.18-8.91-417.97-210.19-491.62-29.74-10.88-65.61-9.7-77.05-45.54-9.25-28.97,6.22-59.53,36.23-67.28,29.38-7.59,96.81,20.54,125.09,34.16,253.19,121.91,340.45,438.7,187.44,675.22-38.35,59.29-90.99,103.06-140.2,152.64Z"/>
  <path class="cls-1" d="M395.71,181.02c-1.89-2.17-11.79,6.46-14.19,8.32-45.98,35.61-123.85,113.96-153.29,163.36-109.35,183.44-33.89,429.83,162.12,515.46,28.06,12.26,84.85,20.82,100.82,43.62,21.52,30.72,2.04,76.66-34.78,82.41-34.21,5.34-124.62-36.67-155.9-55.39C45.95,786.53-2.73,444.54,194,223.28c28.82-32.41,63.82-58.88,92.64-91.25h-113.16c-8.62,0-26.81-6.62-34.16-12.18-34.36-25.97-23.68-82.44,19-92.76l296.01-1.21c24.74,3.06,43.59,22.53,45.09,47.53l-1.32,295.56c-13.2,41.34-68.96,52.55-93.79,14.38-1.55-2.39-8.62-17.41-8.62-18.62v-183.71Z"/>
</svg>