<?xml version="1.0" encoding="UTF-8"?>
<svg id="Layer_1" data-name="Layer 1" xmlns="http://www.w3.org/2000/svg" viewBox="0 0 1080 1080">
  <defs>
    <style>
      .cls-1 {
        fill: #6f7c97;
      }
    </style>
  </defs>
  <path class="cls-1" d="M730.74,143.45c12.41,13.94,17.45,28.2,18.55,46.89l.44,279.3c45.9,5.96,89.87,24.64,124.47,55.37,147.02,130.57,64.89,371.41-127.41,390.14-173.76,2.37-347.71.31-521.54,1.06-42.14-2.75-70.69-31.46-73.43-73.43V293.19c.7-6.5,2.44-12.31,6.62-17.36l150.75-150.97,12.25-6.74,357.42-.22c21.82,2.44,37.38,9.24,51.89,25.54ZM373.65,164.85v107.4c0,30.89-35.26,67.44-66.44,67.44h-106.9l-1.5,1.5v507.53c0,7.37,14.38,20.8,22.48,20.48l365.18.55.85-3.43c-61.2-46.5-92.38-125.85-82.66-202.31,12.91-101.53,95.04-182.86,197.02-193.62l1.53-1.47.17-277.64c-1.04-13.65-10.5-25.2-24.47-26.48l-305.26.04ZM327.7,270.25v-94.91l-2-1.01-116.95,116.86.64,2.56,89.87.02c13.05.19,26.67-10.47,28.43-23.52ZM846.56,563.13c-118.54-110.05-307.5-17.95-297.06,142.71,7.85,120.91,138.39,198.41,249.12,148.23,115.28-52.24,141.18-204.38,47.95-290.94Z"/>
  <path class="cls-1" d="M284.08,424.95c3-2.87,9.87-5.97,14.09-6.39l255.84.03c29.1,6.25,25.67,45.37-4.04,46.97h-247.74c-21.21.95-33.31-26.07-18.16-40.6Z"/>
  <path class="cls-1" d="M468.22,726.67c14.16,15.31,1.27,39.93-19.15,39.6-46.9-3.41-100.6,4.65-146.67-.07-30.94-3.17-34.07-37.52-6.08-46.78l157.79-.11c3.87.47,11.51,4.55,14.11,7.36Z"/>
  <path class="cls-1" d="M301.52,518.81c47.33,1.71,97.62-3.28,144.62-.34,13.42.84,25.98,5.32,27.3,20.66,1.33,15.45-7.69,24.28-22.46,26.24h-151.64c-30.03-4.43-28.31-44.95,2.18-46.56Z"/>
  <path class="cls-1" d="M466.22,660.04c-3.16,2.8-8.84,5.12-13.1,5.38l-156.81-.13c-25.79-6.44-24.69-42.43,1.92-45.86l157.74.09c18.09,3.79,23.96,28.36,10.25,40.51Z"/>
  <path class="cls-1" d="M749.31,668.38c1.83.46,3.52.9,5.45,1.05,15.18,1.19,38.92-2.68,52.57.38,22.87,5.12,22.52,41.68-1.66,45.44-25.97-2.18-57.57,3.21-82.86.11-10.3-1.26-18.58-10.25-19.5-20.47-2.98-33.39,2.35-71.13,0-104.99,1.17-18.01,22.24-26.88,36.5-16.44,3.25,2.38,9.5,10.55,9.5,14.48v80.43Z"/>
</svg>