<?xml version="1.0" encoding="UTF-8"?>
<svg id="Layer_1" data-name="Layer 1" xmlns="http://www.w3.org/2000/svg" viewBox="0 0 1080 1080">
  <defs>
    <style>
      .cls-1 {
        fill: #6f7c97;
      }
    </style>
  </defs>
  <path class="cls-1" d="M483.58,863.8c-2.81,10.55-6.28,22.4-10.75,32.32-70.52,156.58-292.8,151.14-358.5-7.18-2.75-6.63-7.17-26.72-10.21-30.33-3.41-4.06-25.27-11.73-31.76-15.54-34.68-20.32-65.32-66.58-68.77-106.92l.08-464.61c4.65-76.98,60.02-130.45,135.9-137.77h412.34c59.52,6.89,111.61,45.4,126.63,104.8,3.49,13.82,3.56,27.57,5.8,41.5,4.63,3.23,82.7-1.02,97.1.88,10.09,1.33,31.43,11.48,39.73,17.71l233.28,232.97c10.97,13.34,18.85,31.65,20.29,48.97,5.35,64.38-4.17,136,0,201.15-4.7,29.88-22.6,58.31-49.54,72.09-5.83,2.98-16.97,4.42-21.54,8.87-5.68,5.52-5.48,18.4-7.9,25.89-25.92,80.25-89.89,126.16-175.39,122.07-76.88-3.68-147.23-69.65-156.08-146.31l-180.7-.56ZM588.15,769.03v-497.5c0-25.94-28.17-42.54-51.45-43.15l-388.62.06c-39.1,6.78-48.11,26.36-49.91,63.28-6.87,141.62,5.37,288.73,0,430.93-.57,5.61,7.43,28.62,15.07,24.21,1.34-.77,10.9-23.6,13.43-27.95,51.44-88.54,167.16-122.45,258.19-75.18,47.84,24.84,86.11,72.64,98.54,125.3h104.74ZM980.07,747.07v-154.57c-73.17-72.06-144.3-146.54-218.77-217.08h-75.17v373.34c7.69-.66,9.7-10.05,13.51-14.36,71.42-80.75,186.79-86.44,261.02-5.93,2.51,2.72,15.02,23.13,19.41,18.6ZM270.09,720.41c-32.2,6.72-69.12,47.58-73.46,80.27-15.46,116.46,145.3,160.39,189.65,54.51,21.26-50.75-4.96-113.59-57.12-132.09-10.7-3.79-47.93-5.01-59.07-2.69ZM815.77,767.74c-41.62,7.03-67.14,56.49-54.43,95.86,17.83,55.21,97.03,70.88,130.61,24.25,41.15-57.12-4.75-132.17-76.19-120.11Z"/>
</svg>