<?xml version="1.0" encoding="UTF-8"?>
<svg id="Layer_1" data-name="Layer 1" xmlns="http://www.w3.org/2000/svg" viewBox="0 0 24 24">
  <defs>
    <style>
      .cls-1 {
        fill: #717171;
      }
    </style>
  </defs>
  <path class="cls-1" d="M1.15,14.34c.58-.03,1.17.44,1.26,1.01.34,2.15-1.02,5.89,2.34,6.15h14.41c3.27-.21,2.18-3.85,2.38-6.06.13-1.44,2.22-1.44,2.41-.05.11.8.05,2.43,0,3.28-.15,3.19-1.68,5.07-4.96,5.23-4.85.24-9.93-.14-14.79-.06-2-.19-3.69-1.76-4.06-3.72-.28-1.54-.07-3.23-.13-4.79.11-.53.58-.98,1.13-1.01Z"/>
  <path class="cls-1" d="M10.75,4.14l-4.03,4c-1.15.85-2.53-.61-1.66-1.72L11.13.33c.42-.34.86-.44,1.37-.22,2.2,1.95,4.19,4.14,6.3,6.19,1.04,1.15-.38,2.74-1.64,1.8l-3.89-3.89-.11.06v11.61c0,.14-.39.59-.53.68-.57.36-1.47.15-1.74-.48-.03-.07-.14-.42-.14-.47V4.14Z"/>
</svg>