<?xml version="1.0" encoding="UTF-8"?>
<svg id="Layer_1" data-name="Layer 1" xmlns="http://www.w3.org/2000/svg" viewBox="0 0 1080 1080">
  <defs>
    <style>
      .cls-1 {
        fill: #6f7c97;
      }
    </style>
  </defs>
  <path class="cls-1" d="M650.4,139.87h178.33c.46,0,7.51,2.94,8.45,3.54,5.93,3.83,11.42,12.88,12.09,19.88v745.41c-.03,14.89-10.3,26.98-25.49,27.47l-601.8-.73c-10.82-3.48-18.16-12.33-19.21-23.75V163.31c-.3-9.74,12.13-23.44,21.52-23.44h177.34v-30.47c0-.46,2.87-7.46,3.44-8.55,3.06-5.89,10.34-11.21,17.04-11.94l205.85-.04c7.73-.21,15.85,6.07,19.28,12.69.46.88,3.16,7.41,3.16,7.83v30.47ZM600.44,188.83v-49.45l-1.5-1.5h-145.86l-1.5,1.5v48.95l148.86.5ZM401.63,189.82h-148.86v696.36h546.49V191.32l-1.5-1.5h-147.36v27.47c0,8.84-12.86,22.11-22.44,21.52l-204.85-.04c-8.54.08-21.48-12.43-21.48-20.48v-28.47Z"/>
  <path class="cls-1" d="M396.05,498.12c10,12.24,3.84,28.4,5.74,43.21,15.15,6.11,30.19,16.52,38.62,30.81,14.31,24.26-10.69,49.38-34.12,35.13-8.65-5.26-9.93-15.05-20.94-19.03-32.17-11.63-46.34,38.41-15.93,46.9,19.57,5.47,29.93,1.14,49.5,14.44,50.47,34.28,39.41,110.72-16.82,131.67-2.26,18.02,5.64,40.77-15.24,49.7-13.62,5.83-28.8-.96-33.49-14.93-3.74-11.14,1.24-23.43-1.62-35.09-11.94-4.83-23.15-11.76-31.57-21.64-8.43-9.89-14.14-20.01-9.18-33.18,4.42-11.73,16.31-16.12,28.09-14.71,14.86,1.78,17.28,21.98,34.05,23.9,32.98,3.78,39.28-42.83,7.87-48.83-4.88-.93-10.78-.6-15.59-1.4-64.38-10.64-85.49-93.02-33.67-133.04,6.19-4.78,13.98-7.2,20.42-11.55,2.77-17.64-6.25-39.64,13.58-49.36,11.6-5.68,22.49-2.56,30.29,6.98Z"/>
  <path class="cls-1" d="M323.48,289.02l404.35-.29c29.39,5.04,28.9,46.9-2.01,49.95l-400.63.02c-29.23-3.8-30.74-44.42-1.71-49.68Z"/>
  <path class="cls-1" d="M742.96,430.25c-3.98,4.18-10.3,6.86-16.09,7.39l-402.66-.05c-28.31-2.84-31.5-47.27,4.94-49.98,24.8-1.84,52.95.73,77.86.94l171.9-.95c35.02-.27,70.08.42,105.12.68,12.99.1,42-3.53,52.64,2.52,13.89,7.9,17.47,27.72,6.29,39.46Z"/>
  <path class="cls-1" d="M507.11,527.93c-13.24-14.55-3.8-37.18,14.9-40.38l205.8.02c30.26,5.56,28.58,47.09-3,49.92-64.45-2.63-131.74,3.56-195.87.01-10.15-.56-14.95-2.01-21.83-9.57Z"/>
  <path class="cls-1" d="M741.96,629.06c-5.19,5.27-12.92,6.87-20.09,7.39-63.29,4.54-131.98-3.47-195.84-.05-32.13-2.93-34.9-47.02,2.99-49.93,62.1-4.76,130.08,3.53,192.8,0,22.73-.46,37.14,25.31,20.14,42.59Z"/>
</svg>