<?xml version="1.0" encoding="UTF-8"?>
<svg id="Layer_1" data-name="Layer 1" xmlns="http://www.w3.org/2000/svg" viewBox="0 0 1080 1080">
  <defs>
    <style>
      .cls-1 {
        fill: #8797c2;
      }
    </style>
  </defs>
  <path class="cls-1" d="M522.81.73l30.04-.73c410.13,9.38,661.33,460.44,450.37,813.8-204.28,342.16-700.95,351.95-916.64,15.94C-140.16,476.51,107.01,12.65,522.81.73ZM499.71,111.03C201.04,134.33,22.74,463.42,155.54,730.11c151.17,303.6,587.53,317.68,756.14,23.06,174.34-304.64-64.71-669.24-411.97-642.15Z"/>
  <path class="cls-1" d="M542.99,686.44c-29.52,28.87-61.25,70.78-106.33,42.56-43.68-51.18-118.53-103.35-156.92-156.23-40.32-55.54,25.76-119.2,81.79-73.97,36.83,29.72,69.92,75.23,106.58,106.42l256.9-256.42c51.88-35.38,113.23,24.62,76.89,76.77-88.12,85.01-171.42,175.33-258.91,260.87Z"/>
</svg>