<?xml version="1.0" encoding="UTF-8"?>
<svg id="Layer_1" data-name="Layer 1" xmlns="http://www.w3.org/2000/svg" viewBox="0 0 1080 1080">
  <defs>
    <style>
      .cls-1 {
        fill: #8797c2;
      }
    </style>
  </defs>
  <path class="cls-1" d="M1077.3,478.62c-26.94,21.41-64.16.14-92.63,21.19s-25.18,67.76,6.22,84.37c26.8,14.17,67.15-7.3,89.1,21.16l-.97,204.36c-12.11,23.71-35.87,45.1-61.51,53.01-20.44,6.31-50.34,4.81-72.54,5.17-288.04,4.59-576.62-5.04-864.77-1.07-33.93-5.11-63.57-27.03-79.69-56.77l-.09-204.63c23.43-30.13,64-4.44,92.78-24.57,33.76-23.61,26.33-75.31-11.84-88.34-27.4-9.35-64.26,7.39-81.39-19.2l.45-202.77c13.67-27.94,39.28-47.07,68.85-55.63,304.11-8.14,609.53-1.05,914.12-3.59,42.99,2.79,75.11,21.75,96.23,59.06l-2.36,208.25ZM1001.3,402.79c-2.85-26.83,3.86-61.32-.15-87.17-1.58-10.15-8.52-14.14-18.04-15.47l-893.48,2.01c-8.08,2.96-11.64,10.18-12.79,18.32-1.18,8.37-1.52,76.83.82,80.08,166.88,23.08,167.42,257.98-1.01,277.33,3.23,24.89-4.92,62.93,1.11,86.15,2.37,9.11,9.4,15.18,19.12,14.4l894.98-1.17c5.72-2.05,8.36-6.38,9.29-12.25,4.06-25.64-2.6-60.38.03-87.05-165.65-19.53-165.73-257.47.13-275.18Z"/>
  <path class="cls-1" d="M655.68,338.76c44.17-8.16,71.8,40.45,43.36,74.38l-253.54,316.13c-39.58,37.49-97.27-12.22-69.07-57.01l251.22-313.66c7.43-8.01,16.76-17.75,28.03-19.83Z"/>
  <path class="cls-1" d="M744.11,559.11c100.49,102.86-62.15,255.76-158.48,147.48-93.13-104.68,61.68-246.56,158.48-147.48ZM679.61,621.13c-16.44-16.42-45.19,9.35-25.87,27.01,17.64,16.13,42.08-10.83,25.87-27.01Z"/>
  <path class="cls-1" d="M399.48,338.87c148.56-17.78,164.49,205.66,20.85,214.57-137.12,8.51-155.75-198.43-20.85-214.57ZM400.69,459.47c26.17,22.09,46.07-29.55,14.67-32.76-18.19-1.86-27.22,22.17-14.67,32.76Z"/>
</svg>