<svg width="16" height="16" viewBox="0 0 16 16" fill="none" xmlns="http://www.w3.org/2000/svg">
<g clip-path="url(#clip0_61851_38860)">
<path d="M14.5625 4.25H10.8125V1.40625C10.8125 0.630844 10.1817 0 9.40625 0H1.90625C1.13084 0 0.5 0.630844 0.5 1.40625V14.5938C0.5 15.3692 1.13084 16 1.90625 16H9.40625C10.1817 16 10.8125 15.3692 10.8125 14.5938V11.75H14.5625C15.0794 11.75 15.5 11.3294 15.5 10.8125V5.1875C15.5 4.67056 15.0794 4.25 14.5625 4.25ZM12.6941 10.8125H6.11841C6.04222 9.81684 5.2455 9.02019 4.24981 8.94409L4.24963 7.05594C5.24541 6.97994 6.04222 6.18325 6.11841 5.1875H12.6941C12.7703 6.18309 13.5669 6.97972 14.5625 7.05591V8.94413C13.5669 9.02028 12.7703 9.81691 12.6941 10.8125ZM4.24941 5.18753C4.24972 5.1875 5.17584 5.1875 5.17616 5.1875C5.10741 5.66591 4.728 6.04519 4.2495 6.11372L4.24941 5.18753ZM5.17616 10.8125H4.25L4.24991 9.88634C4.72819 9.95503 5.10744 10.3342 5.17616 10.8125ZM14.5625 6.11366C14.0843 6.04494 13.7051 5.66575 13.6363 5.1875H14.5625V6.11366ZM1.90625 0.9375H9.40625C9.66472 0.9375 9.875 1.14778 9.875 1.40625V2.375H1.4375V1.40625C1.4375 1.14778 1.64778 0.9375 1.90625 0.9375ZM9.40625 15.0625H1.90625C1.64778 15.0625 1.4375 14.8522 1.4375 14.5938V13.625H9.875V14.5938C9.875 14.8522 9.66472 15.0625 9.40625 15.0625ZM9.875 12.6875H1.4375V3.3125H9.875V4.25H4.25C3.73306 4.25 3.3125 4.67056 3.3125 5.1875V10.8125C3.3125 11.3294 3.73306 11.75 4.25 11.75H9.875V12.6875ZM13.6363 10.8125C13.7051 10.3343 14.0843 9.95506 14.5625 9.88634V10.8125H13.6363Z" fill="#6F7C97"/>
<path d="M9.40625 6.125C8.37238 6.125 7.53125 6.96613 7.53125 8C7.53125 9.03387 8.37238 9.875 9.40625 9.875C10.4401 9.875 11.2812 9.03387 11.2812 8C11.2812 6.96613 10.4401 6.125 9.40625 6.125ZM9.40625 8.9375C8.88931 8.9375 8.46875 8.51694 8.46875 8C8.46875 7.48306 8.88931 7.0625 9.40625 7.0625C9.92319 7.0625 10.3438 7.48306 10.3438 8C10.3438 8.51694 9.92319 8.9375 9.40625 8.9375Z" fill="#6F7C97"/>
</g>
<defs>
<clipPath id="clip0_61851_38860">
<rect width="16" height="16" fill="white"/>
</clipPath>
</defs>
</svg>
