<svg width="16" height="16" viewBox="0 0 16 16" fill="none" xmlns="http://www.w3.org/2000/svg">
<g clip-path="url(#clip0_61851_38789)">
<mask id="mask0_61851_38789" style="mask-type:luminance" maskUnits="userSpaceOnUse" x="0" y="0" width="16" height="16">
<path d="M16 0H0V16H16V0Z" fill="white"/>
</mask>
<g mask="url(#mask0_61851_38789)">
<mask id="mask1_61851_38789" style="mask-type:luminance" maskUnits="userSpaceOnUse" x="0" y="0" width="16" height="16">
<path d="M0 9.53674e-07H16V16H0V9.53674e-07Z" fill="white"/>
</mask>
<g mask="url(#mask1_61851_38789)">
<path d="M8.15625 12.25L9.44703 8.86091C9.47337 8.79644 9.56469 8.79634 9.59119 8.86075L10.8702 12.25" stroke="#6F7C97" stroke-width="0.78125" stroke-miterlimit="10" stroke-linecap="round" stroke-linejoin="round"/>
<path d="M8.55859 11.4062H10.474" stroke="#6F7C97" stroke-width="0.78125" stroke-miterlimit="10" stroke-linecap="round" stroke-linejoin="round"/>
<path d="M7.00508 8.8125H5.55664V12.25H7.00508" stroke="#6F7C97" stroke-width="0.78125" stroke-miterlimit="10" stroke-linecap="round" stroke-linejoin="round"/>
<path d="M6.89827 10.5312H5.55664" stroke="#6F7C97" stroke-width="0.78125" stroke-miterlimit="10" stroke-linecap="round" stroke-linejoin="round"/>
<path d="M2.09375 8.8145L3.19178 10.4961L4.28075 8.82322" stroke="#6F7C97" stroke-width="0.78125" stroke-miterlimit="10" stroke-linecap="round" stroke-linejoin="round"/>
<path d="M3.1875 12.25L3.19181 10.4941" stroke="#6F7C97" stroke-width="0.78125" stroke-miterlimit="10" stroke-linecap="round" stroke-linejoin="round"/>
<path d="M12.4619 10.6094L13.9059 12.25" stroke="#6F7C97" stroke-width="0.78125" stroke-miterlimit="10" stroke-linecap="round" stroke-linejoin="round"/>
<path d="M12.0479 8.8125V12.25" stroke="#6F7C97" stroke-width="0.78125" stroke-miterlimit="10" stroke-linecap="round" stroke-linejoin="round"/>
<path d="M13.9062 9.70816C13.9062 10.2015 13.4736 10.6015 12.9623 10.6015C12.7087 10.6015 12.0552 10.6055 12.0552 10.6055C12.0552 10.6055 12.0511 9.95684 12.0511 9.70816C12.0511 9.50388 12.0488 8.81478 12.0488 8.81478H12.9623C13.4736 8.81478 13.9062 9.21475 13.9062 9.70816Z" stroke="#6F7C97" stroke-width="0.78125" stroke-miterlimit="10" stroke-linecap="round" stroke-linejoin="round"/>
<path d="M14.5937 15.5312H1.40625C0.888469 15.5312 0.46875 15.1115 0.46875 14.5938V5.53125H15.5312V14.5938C15.5312 15.1115 15.1115 15.5312 14.5937 15.5312Z" stroke="#6F7C97" stroke-width="0.9375" stroke-miterlimit="10" stroke-linecap="round" stroke-linejoin="round"/>
<path d="M15.5312 5.53125H0.46875V2.71875C0.46875 2.20097 0.888469 1.78125 1.40625 1.78125H14.5937C15.1115 1.78125 15.5312 2.20097 15.5312 2.71875V5.53125Z" stroke="#6F7C97" stroke-width="0.9375" stroke-miterlimit="10" stroke-linecap="round" stroke-linejoin="round"/>
<path d="M6.125 3.09375V0.46875" stroke="#6F7C97" stroke-width="0.9375" stroke-miterlimit="10" stroke-linecap="round" stroke-linejoin="round"/>
<path d="M13.625 3.09375V0.46875" stroke="#6F7C97" stroke-width="0.9375" stroke-miterlimit="10" stroke-linecap="round" stroke-linejoin="round"/>
<path d="M9.875 3.09375V0.46875" stroke="#6F7C97" stroke-width="0.9375" stroke-miterlimit="10" stroke-linecap="round" stroke-linejoin="round"/>
<path d="M2.375 3.09375V0.46875" stroke="#6F7C97" stroke-width="0.9375" stroke-miterlimit="10" stroke-linecap="round" stroke-linejoin="round"/>
</g>
</g>
</g>
<defs>
<clipPath id="clip0_61851_38789">
<rect width="16" height="16" fill="white"/>
</clipPath>
</defs>
</svg>
