<?xml version="1.0" encoding="UTF-8"?>
<svg id="_x33_0" xmlns="http://www.w3.org/2000/svg" version="1.1" xmlns:xlink="http://www.w3.org/1999/xlink" viewBox="0 0 757.45 441.86">
  <!-- Generator: Adobe Illustrator 29.7.1, SVG Export Plug-In . SVG Version: 2.1.1 Build 8)  -->
  <defs>
    <style>
      .st0 {
        fill: #fff;
      }

      .st1 {
        fill: #f0953e;
      }

      .st2 {
        fill: #3b8916;
      }

      .st3 {
        fill: none;
      }

      .st4 {
        clip-path: url(#clippath-1);
      }

      .st5 {
        fill: #16007e;
      }

      .st6 {
        clip-path: url(#clippath);
      }
    </style>
    <clipPath id="clippath">
      <rect class="st3" width="757.45" height="441.86"/>
    </clipPath>
    <clipPath id="clippath-1">
      <rect class="st3" width="757.45" height="441.86"/>
    </clipPath>
  </defs>
  <g class="st6">
    <rect class="st0" width="757.45" height="441.86"/>
    <rect class="st1" width="757.45" height="147.3"/>
    <rect class="st2" y="294.57" width="757.45" height="147.29"/>
    <g class="st4">
      <path class="st5" d="M378.73,154.65c-36.6,0-66.29,29.67-66.29,66.28s29.68,66.25,66.29,66.25,66.27-29.65,66.27-66.25c-.01-36.61-29.67-66.28-66.27-66.28M378.65,161.11l-1.67,33.29,1.78,18.98,1.77-18.98-1.69-33.29c1.71,0,3.38.1,5.05.25-.01.1-.03.2-.03.3,0,1.53,1.22,2.76,2.74,2.76,1.39,0,2.52-1.06,2.71-2.36,1.65.28,3.25.66,4.85,1.08l-10.24,31.71-3.22,18.8,6.63-17.87,6.97-32.59c1.62.43,3.22.9,4.8,1.49-.13.33-.21.65-.21,1.03,0,1.51,1.22,2.74,2.74,2.74,1.12,0,2.1-.68,2.51-1.66,1.53.7,3.01,1.48,4.46,2.31l-18.1,27.97-7.99,17.35,11.04-15.57,15.17-29.68c1.43.85,2.83,1.73,4.19,2.69-.35.48-.59,1.03-.59,1.68,0,1.5,1.23,2.74,2.74,2.74.92,0,1.69-.43,2.2-1.08,1.28,1.08,2.52,2.21,3.72,3.39l-24.72,22.32-12.2,14.71,14.71-12.17,22.32-24.73c1.18,1.18,2.31,2.41,3.39,3.69-.63.5-1.02,1.26-1.02,2.14,0,1.51,1.23,2.74,2.74,2.74.6,0,1.15-.2,1.62-.53.96,1.36,1.87,2.76,2.7,4.22l-29.65,15.19-15.58,11.04,17.34-7.99,27.99-18.13c.88,1.53,1.66,3.11,2.41,4.7-.98.42-1.68,1.41-1.68,2.54,0,1.5,1.23,2.73,2.75,2.73.36,0,.7-.08,1-.2.54,1.48,1.02,3.01,1.43,4.55l-32.6,6.98-17.89,6.61,18.79-3.19,31.72-10.24c.43,1.58.81,3.22,1.11,4.87-1.33.2-2.35,1.33-2.35,2.71,0,1.51,1.23,2.74,2.74,2.74h.29c.14,1.64.24,3.31.24,4.99l-33.28-1.68-19.01,1.79,18.99,1.76,33.3-1.68c0,1.68-.1,3.36-.24,5.02-.09-.02-.18-.02-.29-.02-1.51,0-2.74,1.23-2.74,2.74,0,1.38,1.02,2.51,2.34,2.71-.3,1.65-.67,3.27-1.09,4.87l-11.31-3.66-20.39-6.58-18.8-3.24.07.05-.07-.02,17.87,6.63,32.6,6.98c-.45,1.61-.94,3.19-1.52,4.77-.13-.05-.28-.1-.42-.13h-.01c-.18-.05-.36-.05-.55-.05-1.52,0-2.74,1.23-2.74,2.74,0,.38.06.73.21,1.06h.01c.16.43.43.78.77,1.05h.01c.06.05.13.1.2.15h.01c.08.05.15.1.21.13h.02s.1.1.18.13c-.72,1.53-1.48,2.99-2.31,4.44l-27.96-18.1h-.02l-17.34-7.98.08.05,9.05,6.41,6.44,4.59h.02l29.64,15.17c-.85,1.45-1.76,2.91-2.74,4.29-.45-.33-1-.5-1.61-.5-1.51,0-2.74,1.21-2.74,2.74,0,.85.39,1.58.99,2.08-1.07,1.28-2.15,2.49-3.3,3.64l-22.34-24.7-14.65-12.15,12.13,14.66,24.74,22.32c-1.15,1.15-2.37,2.26-3.61,3.29-.48-.38-1.08-.6-1.72-.6-1.52,0-2.74,1.23-2.74,2.74,0,.4.09.8.24,1.16-1.43,1-2.91,1.96-4.42,2.81l-15.19-29.63-11.03-15.59h-.02l7.99,17.35,18.08,27.99c-1.42.8-2.9,1.58-4.39,2.26-.43-.95-1.39-1.6-2.49-1.6-1.51,0-2.74,1.23-2.74,2.73,0,.36.08.68.18.98-1.57.58-3.18,1.08-4.82,1.53l-6.97-32.61-6.63-17.85-.02-.03,3.24,18.8,10.24,31.71c-1.6.43-3.23.8-4.89,1.1-.19-1.33-1.35-2.33-2.73-2.33-1.51,0-2.74,1.23-2.74,2.74,0,.1.02.2.02.28-1.66.14-3.33.22-5.01.22l1.71-33.26-1.78-19.01-1.78,19.01,1.71,33.26c-1.73,0-3.41-.08-5.1-.22.02-.08.02-.18.02-.28,0-1.51-1.23-2.74-2.74-2.74-1.39,0-2.53,1.01-2.72,2.33-1.62-.33-3.22-.68-4.78-1.1l10.24-31.71,3.2-18.77-6.62,17.85-6.99,32.61c-1.62-.45-3.22-.95-4.78-1.5.13-.3.19-.65.19-1.01,0-1.51-1.21-2.73-2.72-2.73-1.12,0-2.1.68-2.53,1.63-1.51-.7-3-1.48-4.44-2.31l18.1-27.97,7.97-17.35-11.05,15.57-15.17,29.65c-1.45-.83-2.88-1.76-4.27-2.71.32-.45.53-1,.53-1.63,0-1.51-1.22-2.74-2.76-2.74-.85,0-1.62.4-2.11,1.03-1.26-1.08-2.49-2.19-3.64-3.34l24.73-22.32,12.18-14.69v-.02l-14.69,12.2-22.34,24.7c-1.17-1.18-2.31-2.41-3.39-3.69.62-.51,1.03-1.28,1.03-2.13,0-1.51-1.2-2.74-2.72-2.74-.62,0-1.17.23-1.64.55-.96-1.38-1.85-2.79-2.7-4.24l29.68-15.19,15.55-11.02-17.32,7.98-27.97,18.1c-.82-1.43-1.56-2.89-2.28-4.37,1.05-.38,1.8-1.38,1.8-2.56,0-1.5-1.22-2.76-2.74-2.76-.43,0-.82.13-1.17.28-.57-1.61-1.09-3.21-1.53-4.87l32.58-6.98,17.91-6.65-18.82,3.24-31.73,10.24c-.43-1.6-.79-3.23-1.09-4.89,1.34-.18,2.35-1.33,2.35-2.71,0-1.51-1.23-2.73-2.74-2.73-.11,0-.19.02-.3.02-.13-1.66-.21-3.34-.23-5.02l33.29,1.68,18.97-1.76-18.97-1.78-33.29,1.7c.02-1.68.11-3.36.23-4.99.16,0,.3.02.46.02,1.51,0,2.76-1.23,2.76-2.74s-1.1-2.61-2.52-2.74c.3-1.65.66-3.29,1.09-4.87l31.73,10.24,18.82,3.19-17.9-6.61-32.6-7c.44-1.61.95-3.22,1.51-4.77.3.12.66.2,1,.2,1.53,0,2.74-1.23,2.74-2.74,0-1.1-.67-2.08-1.64-2.51.71-1.53,1.48-3.02,2.31-4.47l27.97,18.13,17.34,7.96-15.57-11.05-29.68-15.16c.85-1.46,1.76-2.86,2.72-4.27.46.38,1.03.55,1.65.55,1.51,0,2.74-1.21,2.74-2.71,0-.88-.43-1.68-1.07-2.16,1.07-1.28,2.18-2.49,3.36-3.67l22.34,24.73,14.71,12.17-12.18-14.69-24.73-22.35c1.19-1.18,2.41-2.31,3.7-3.36.5.6,1.27,1.03,2.13,1.03,1.51,0,2.73-1.23,2.73-2.74,0-.63-.18-1.18-.52-1.63,1.37-.95,2.77-1.86,4.21-2.71l15.17,29.68,11.05,15.54-7.95-17.33-18.12-27.97c1.42-.83,2.88-1.58,4.37-2.28.39,1.03,1.39,1.73,2.54,1.73,1.51,0,2.76-1.2,2.76-2.71,0-.41-.09-.8-.23-1.13,1.58-.57,3.22-1.08,4.85-1.51l7,32.57,6.62,17.9-3.2-18.8-10.24-31.71c1.6-.42,3.21-.81,4.87-1.11.19,1.33,1.34,2.36,2.72,2.36,1.51,0,2.74-1.26,2.74-2.76,0-.1,0-.21-.02-.3,1.66-.15,3.32-.23,4.99-.23"/>
      <path class="st0" d="M378.78,211.04c5.48,0,9.92,4.42,9.92,9.92s-4.44,9.92-9.92,9.92-9.94-4.44-9.94-9.92,4.45-9.92,9.94-9.92"/>
      <path class="st5" d="M378.75,213.28c4.25,0,7.69,3.46,7.69,7.71s-3.44,7.68-7.69,7.68-7.7-3.44-7.7-7.68,3.45-7.71,7.7-7.71"/>
    </g>
  </g>
</svg>