<?xml version="1.0" encoding="UTF-8"?>
<svg id="Layer_1" data-name="Layer 1" xmlns="http://www.w3.org/2000/svg" viewBox="0 0 1080 1080">
  <defs>
    <style>
      .cls-1 {
        fill: #211f1f;
      }

      .cls-2 {
        fill: #1a9ec2;
      }
    </style>
  </defs>
  <path class="cls-1" d="M757.41,477.93l27.04-35.01c4.13-7.84-6.46-.14-9.16,1.01-8.53,3.62-21.46,4.6-29.36-.96-3.92-2.76-12.63-14.66-16.67-14.59-22.52,12.33-44.41,19.51-70.53,17.71-16.54-1.14-40.11-14.59-47.9-29.41-3.52-6.7-2.39-15.09-11.86-10.07-15.98,8.48-45.58,27.15-62.96,28.59-13.25,1.09-35.08-2.89-44.01-13.61-4.13-4.97-6.35-13.9-9.99-17.81-2.21-2.37-3.25-1.95-5.94-.71-9.24,4.29-19.95,12.27-29.45,17.34-19.24,10.26-43.76,21.4-65.4,24.79-11.66,1.83-31.46-2.62-40.48-10.68-3.28-2.92-6.16-10.96-10.2-10.89-2.24.04-10.47,7.36-13.26,9.15-14.91,9.54-23.68,9.69-40.3,3.8-16.11-5.71-30.12-17-38.85-31.68-21.57-36.25-1.87-51.36,23.59-75.15,26.17-24.45,56.93-47.62,89.95-61.95,14.13-6.13,24.64-7.4,39.86-3.44,26.85,6.99,67.66,49.86,45.12,77.58-13.56,16.68-32.11,29.97-47.14,45.09-6.85,6.89-5.65,17.4,5.38,16.23,13.7-1.46,39.25-23.95,50.24-33.17,51.79-43.46,99.41-95.18,147.83-142.43,12.12-11.83,43.85-45.36,58.12-49.68,10.64-3.22,33.42,3.9,43.04,9.58,8.23,4.86,9.44,9.23,2.27,16.06-9.53,9.07-21.74,17.69-31.89,26.43-44.5,38.34-87.54,81.45-124.06,127.53-4.48,5.65-14.92,17.72-16.5,24.18-2.91,11.85,7.86,15.19,17.53,12.11,15.44-4.92,46.06-33.95,59.31-45.8,41.95-37.48,80.55-79.54,123.08-116.3,12.02-10.39,28.62-25.13,41.35-33.93,8.59-5.93,25.84-3.31,35.45-.19,3.63,1.18,19.36,8.78,21.21,11.33,2.12,2.93-.69,6.2-2.74,8.2-32.98,26.25-69,51.72-98.01,82.37-14.35,15.16-29.21,32.18-42.72,48.15-7.07,8.35-29.78,34.32-30.8,43.82-.93,8.65,9.96,18.2,18,19.18,15.21,1.85,32.54-13.21,43.34-22.97,25.49-23.01,48.55-51.41,71.85-76.66,5.95-6.45,14.49-16.5,20.76-21.97,7.89-6.89,25-2.94,34.54-.77,7.61,1.73,27.12,5.66,18.64,16.66-10.17,13.19-28.73,28.21-40.71,41.34-11.92,13.06-33.16,35.72-40.69,50.86-12.03,24.18,16.91,12.62,27.73,7.39,38.77-18.71,72.67-51.39,104.18-80.27,6.35-5.82,9.11-12.04,18.71-13.16,9.05-1.06,37.07,5.68,45.25,10.21,9.78,5.42,3.44,10.93-1.91,16.19-16.46,16.19-35.6,31.2-52.58,47.11-31.37,29.37-66.85,64.21-93.55,97.69-1.02,1.27-2.38,2.78-2.73,4.39-18.45-2.87-37.39-5.13-55.94-7.46-1.48-.19-3.44.33-4.65,0-.69-.18-.38-1.33-.43-1.37ZM383.61,307.19c-10.76,1.74-51.31,34.04-61.86,42.58-9.23,7.47-40.53,32.68-44.55,41.57-3.07,6.77.18,13.54,7.89,13.37,11.22-.26,31.24-13.89,41-20.09,22.08-14.03,36.18-25.04,53.3-45.03,3.64-4.25,13.26-15,15.07-19.51,2.99-7.45-3.37-14.1-10.85-12.89Z"/>
  <path class="cls-2" d="M757.41,477.93c.06.04-.25,1.19.43,1.37,1.21.32,3.17-.19,4.65,0,18.55,2.33,37.49,4.58,55.94,7.46,51.08,7.95,114.49,20.89,161.85,41.25,7.06,3.03,16.75,6.81,13.93,16.21-.85,2.83-8.96,17.81-10.98,19.54-6.56,5.62-27.09-4.3-34.76-6.65-52.51-16.07-105.72-26.69-159.87-35.76-18.62-3.12-37.52-6.68-56.28-8.82-78.16-8.91-164.96-6.55-243.74-4.04-114.63,3.64-235.83,22.82-349.04,41.54-21.48,3.55-54.77,13.14-75.38,11.24-9.35-.86-24.76-8.28-32.99-13.12-9.49-5.59-13.85-10.32-.5-14.77,19.08-6.37,43.46-10.32,63.45-14.53,109.49-23.05,220.85-37.8,332.7-43.64,78.16-4.08,154.92-6.4,233.32-2.71,29.8,1.4,59.69,4.79,89.49,6.12,2.13.1,7.48-.91,7.79-.67Z"/>
  <path class="cls-1" d="M77.52,429.55c-4.18-4.23-.09-11.75,2.13-16.06,13.08-25.48,32.24-54.53,48.62-78.19,37.75-54.53,79.12-106.54,118.54-159.83-12.42-1.84-25.12-1.77-37.63-.68-27.05,2.35-60.82,6.08-87.15,11.86-13.48,2.96-17.03,7.91-29.16-3.38-5.09-4.74-19.2-18.41-22.74-23.38-2.3-3.23-2.38-5.52,1.08-7.79,4.63-3.03,32.46-7,39.85-8.3,59.75-10.49,118.3-13.46,178.83-15.11,38.33-1.04,76.95.48,115.24,4.04,13.36,1.24,37.25,2.85,49.35,6.94,6.33,2.14,10.84,19.19,11.34,25.28.24,9.11,2.84,14.76-9.11,14.59-18.45-.26-39.61-2.27-58.34-3.42-21.41-1.31-42.96-4.09-64.4-4.77-4.91-.15-16.91-.77-20.69,1.74-43.03,55.86-87.06,111.1-125.07,170.6-17.53,27.43-35.47,55.54-49.21,85.06-2.1,2.65-3.76,3.44-7.1,3.75-11.85,1.11-26.07-.14-37.97-.73-4.66-.23-12.93,1.28-16.41-2.24Z"/>
  <path class="cls-1" d="M559.41,711.22l.68,21.7c4.59-3.87,8.42-8.55,13.33-12.09,30-21.67,88.38-19.87,103.98,18.87l9.48-11.19c41.57-39.06,122.22-25.59,122.73,40.71v144.11s-34.58,0-34.58,0v-141.4c0-3.75-2.88-13.52-4.63-17.07-11.8-24.03-54.32-22.83-71.69-5.68-5.15,5.09-13.19,19.68-13.19,26.82v137.33h-34.24c-.07,0-1.02-.95-1.02-1.02v-141.06c0-5.12-4.67-16.41-7.86-20.63-15.2-20.11-56.4-17.43-72.5.61-1.59,1.78-9.15,13.07-9.15,14.59v147.5h-33.57c-.07,0-1.02-.95-1.02-1.02v-201.08h33.23Z"/>
  <path class="cls-1" d="M104.41,806.85v106.47h-35.94v-271.95l112.25-.03c30.4,2.24,59.99,15.55,74.57,43.42,13.45,25.7,11.85,65.9-5.5,89.47-32.15,43.69-98.45,30.35-145.39,32.61ZM104.41,777.01h74.24c69.39-3.52,64.48-105.23-3.39-106.47h-70.85s0,106.47,0,106.47Z"/>
  <path class="cls-1" d="M1024.57,821.77h-136.97c-.12,27.01,14.72,56.22,41.89,64.24,11.19,3.3,26.38,3.18,37.59,0,13.48-3.83,24.53-13.79,33.52-24.12l20.46,14.93c1.09,1.85-4.83,9.02-6.31,10.74-34.1,39.7-103.39,39.04-137.98.31-31.49-35.26-31.21-104.14-5.46-142.42,22.96-34.14,66.67-47.91,105.11-31.85,42.08,17.59,50.16,67.4,48.15,108.16ZM989.99,793.28c-.43-27.68-13.27-55.07-43.82-57.56-34.53-2.81-54.57,26.19-57.21,57.56h101.03Z"/>
  <path class="cls-1" d="M402.09,741.74c-22.8-2.64-46.34-1.07-59.28,20.4-.56.93-3.78,6.67-3.78,7.07v144.11h-34.58v-202.1h33.9v22.38c3.16-2.61,5.03-6.55,7.79-9.5,11.29-12.12,28.24-18.12,44.75-16.94,1.74.12,11.2,1.49,11.2,3.04v31.54Z"/>
  <rect class="cls-1" x="436.67" y="711.22" width="34.58" height="202.1"/>
  <path class="cls-1" d="M788.6,521.33l-46.76,68.19c-1.39,1.19-3.27,1.72-5.09,1.69-10.57-.21-30.72-2.77-39.49-8.71-5.46-3.7-2.1-7.4.35-12.11,4.6-8.85,10.49-18.45,15.6-27.13,6.12-10.4,12.3-20.78,19.1-30.74,18.76,2.14,37.66,5.7,56.28,8.82Z"/>
  <path class="cls-1" d="M450.07,637.48c2.37-.32,5.52-.38,7.89-.1,23.48,2.74,23.15,39.98-3.32,40-27.1.03-26.73-36.86-4.57-39.9Z"/>
</svg>